%TF.GenerationSoftware,KiCad,Pcbnew,10.0.1*%
%TF.CreationDate,2026-04-20T10:58:22+08:00*%
%TF.ProjectId,Scopefun_v3,53636f70-6566-4756-9e5f-76332e6b6963,rev?*%
%TF.SameCoordinates,Original*%
%TF.FileFunction,Paste,Bot*%
%TF.FilePolarity,Positive*%
%FSLAX46Y46*%
G04 Gerber Fmt 4.6, Leading zero omitted, Abs format (unit mm)*
G04 Created by KiCad (PCBNEW 10.0.1) date 2026-04-20 10:58:22*
%MOMM*%
%LPD*%
G01*
G04 APERTURE LIST*
%ADD10C,0.400000*%
%ADD11R,0.889000X0.635000*%
%ADD12R,0.635000X0.889000*%
%ADD13R,1.300000X1.000000*%
%ADD14R,1.000000X1.300000*%
%ADD15R,1.100000X2.100000*%
%ADD16C,0.250000*%
%ADD17R,0.550000X0.500000*%
%ADD18R,0.500000X0.550000*%
%ADD19R,1.500000X4.000000*%
%ADD20R,1.050000X0.600000*%
%ADD21R,0.200000X0.675000*%
%ADD22R,1.200000X4.000000*%
G04 APERTURE END LIST*
%TO.C,D17*%
D10*
X56900000Y-171637500D02*
X56900000Y-171362500D01*
X56900000Y-172512500D02*
X56900000Y-172237500D01*
%TD*%
D11*
%TO.C,C58*%
X46250000Y-112225000D03*
X46250000Y-113725000D03*
%TD*%
D12*
%TO.C,C140*%
X68050000Y-169850000D03*
X69550000Y-169850000D03*
%TD*%
%TO.C,C141*%
X68050000Y-168150000D03*
X69550000Y-168150000D03*
%TD*%
D11*
%TO.C,C142*%
X64400000Y-162200000D03*
X64400000Y-160700000D03*
%TD*%
%TO.C,C144*%
X66000000Y-162200000D03*
X66000000Y-160700000D03*
%TD*%
%TO.C,C145*%
X77000000Y-162900000D03*
X77000000Y-161400000D03*
%TD*%
D12*
%TO.C,C146*%
X69550000Y-171500000D03*
X68050000Y-171500000D03*
%TD*%
D11*
%TO.C,C147*%
X73600000Y-169688000D03*
X73600000Y-171188000D03*
%TD*%
D12*
%TO.C,C149*%
X72750000Y-161600000D03*
X74250000Y-161600000D03*
%TD*%
D11*
%TO.C,C150*%
X75200000Y-169688000D03*
X75200000Y-171188000D03*
%TD*%
D12*
%TO.C,C151*%
X68050000Y-166550000D03*
X69550000Y-166550000D03*
%TD*%
D13*
%TO.C,C152*%
X75800000Y-175200000D03*
X75800000Y-177200000D03*
%TD*%
D11*
%TO.C,C153*%
X67900000Y-163300000D03*
X67900000Y-164800000D03*
%TD*%
%TO.C,C155*%
X72000000Y-169688000D03*
X72000000Y-171188000D03*
%TD*%
D13*
%TO.C,C156*%
X62600000Y-162300000D03*
X62600000Y-160300000D03*
%TD*%
D12*
%TO.C,C161*%
X69150000Y-159900000D03*
X67650000Y-159900000D03*
%TD*%
D11*
%TO.C,C165*%
X66000000Y-164800000D03*
X66000000Y-166300000D03*
%TD*%
%TO.C,C166*%
X78900000Y-165200000D03*
X78900000Y-166700000D03*
%TD*%
%TO.C,C167*%
X77200000Y-165200000D03*
X77200000Y-166700000D03*
%TD*%
%TO.C,C168*%
X79700000Y-160950000D03*
X79700000Y-159450000D03*
%TD*%
D12*
%TO.C,C172*%
X73250000Y-166600000D03*
X74750000Y-166600000D03*
%TD*%
D11*
%TO.C,C173*%
X78400000Y-168800000D03*
X78400000Y-170300000D03*
%TD*%
%TO.C,C174*%
X76800000Y-168800000D03*
X76800000Y-170300000D03*
%TD*%
%TO.C,C175*%
X64000000Y-168900000D03*
X64000000Y-170400000D03*
%TD*%
%TO.C,C176*%
X65800000Y-168900000D03*
X65800000Y-170400000D03*
%TD*%
D14*
%TO.C,C182*%
X69400000Y-157900000D03*
X67400000Y-157900000D03*
%TD*%
D13*
%TO.C,C183*%
X80600000Y-151700000D03*
X80600000Y-153700000D03*
%TD*%
%TO.C,C187*%
X78600000Y-151700000D03*
X78600000Y-153700000D03*
%TD*%
D11*
%TO.C,C190*%
X74800000Y-151950000D03*
X74800000Y-153450000D03*
%TD*%
%TO.C,C191*%
X60100000Y-140400000D03*
X60100000Y-141900000D03*
%TD*%
%TO.C,C193*%
X76600000Y-151950000D03*
X76600000Y-153450000D03*
%TD*%
D12*
%TO.C,C194*%
X54450000Y-151600000D03*
X52950000Y-151600000D03*
%TD*%
%TO.C,C195*%
X58000000Y-136900000D03*
X59500000Y-136900000D03*
%TD*%
D13*
%TO.C,C196*%
X76600000Y-146900000D03*
X76600000Y-148900000D03*
%TD*%
D12*
%TO.C,C198*%
X58550000Y-150300000D03*
X57050000Y-150300000D03*
%TD*%
%TO.C,C199*%
X64600000Y-137125000D03*
X63100000Y-137125000D03*
%TD*%
D13*
%TO.C,C200*%
X78750000Y-146900000D03*
X78750000Y-148900000D03*
%TD*%
D12*
%TO.C,C201*%
X56550000Y-144050000D03*
X58050000Y-144050000D03*
%TD*%
D11*
%TO.C,C202*%
X61450000Y-140400000D03*
X61450000Y-141900000D03*
%TD*%
%TO.C,C203*%
X64450000Y-146650000D03*
X64450000Y-148150000D03*
%TD*%
%TO.C,C204*%
X74800000Y-147150000D03*
X74800000Y-148650000D03*
%TD*%
D12*
%TO.C,C207*%
X63050000Y-140100000D03*
X64550000Y-140100000D03*
%TD*%
D13*
%TO.C,C209*%
X63300000Y-151800000D03*
X63300000Y-153800000D03*
%TD*%
D12*
%TO.C,C210*%
X60250000Y-146000000D03*
X61750000Y-146000000D03*
%TD*%
D13*
%TO.C,C211*%
X77800000Y-136100000D03*
X77800000Y-134100000D03*
%TD*%
D14*
%TO.C,C212*%
X70600000Y-142300000D03*
X72600000Y-142300000D03*
%TD*%
D11*
%TO.C,C213*%
X65599999Y-144150000D03*
X65599999Y-142650000D03*
%TD*%
%TO.C,C214*%
X71900000Y-136550000D03*
X71900000Y-138050000D03*
%TD*%
D12*
%TO.C,C215*%
X71250000Y-144100000D03*
X72750000Y-144100000D03*
%TD*%
D11*
%TO.C,C216*%
X75900000Y-135850000D03*
X75900000Y-134350000D03*
%TD*%
D12*
%TO.C,C217*%
X71250000Y-145550000D03*
X72750000Y-145550000D03*
%TD*%
D11*
%TO.C,C219*%
X70100000Y-140150000D03*
X70100000Y-138650000D03*
%TD*%
%TO.C,C220*%
X64900000Y-152050000D03*
X64900000Y-153550000D03*
%TD*%
D12*
%TO.C,C221*%
X70650000Y-135300000D03*
X69150000Y-135300000D03*
%TD*%
D11*
%TO.C,C222*%
X70300000Y-152050000D03*
X70300000Y-153550000D03*
%TD*%
D13*
%TO.C,C244*%
X35700000Y-144400000D03*
X35700000Y-142400000D03*
%TD*%
%TO.C,C245*%
X68200000Y-151900000D03*
X68200000Y-153900000D03*
%TD*%
D12*
%TO.C,C246*%
X41750000Y-148100000D03*
X40250000Y-148100000D03*
%TD*%
%TO.C,C247*%
X36650000Y-148100000D03*
X38150000Y-148100000D03*
%TD*%
%TO.C,C248*%
X31299999Y-148100000D03*
X32799999Y-148100000D03*
%TD*%
%TO.C,C249*%
X29600000Y-148100000D03*
X28100000Y-148100000D03*
%TD*%
%TO.C,C251*%
X39350000Y-157300000D03*
X40850000Y-157300000D03*
%TD*%
%TO.C,C252*%
X29500000Y-157300000D03*
X28000000Y-157300000D03*
%TD*%
%TO.C,C250*%
X25800000Y-150200000D03*
X24300000Y-150200000D03*
%TD*%
%TO.C,C255*%
X37550000Y-157300000D03*
X36050000Y-157300000D03*
%TD*%
%TO.C,C256*%
X31250000Y-157300000D03*
X32750000Y-157300000D03*
%TD*%
D11*
%TO.C,C253*%
X34850000Y-146750000D03*
X34850000Y-148250000D03*
%TD*%
D12*
%TO.C,C254*%
X30100000Y-152700000D03*
X28600000Y-152700000D03*
%TD*%
D13*
%TO.C,L7*%
X70950000Y-177200000D03*
X70950000Y-175200000D03*
%TD*%
%TO.C,L9*%
X77800000Y-177200000D03*
X77800000Y-175200000D03*
%TD*%
%TO.C,C177*%
X81650000Y-161200000D03*
X81650000Y-159200000D03*
%TD*%
D12*
%TO.C,C154*%
X72750000Y-160000000D03*
X74250000Y-160000000D03*
%TD*%
D11*
%TO.C,C163*%
X64200000Y-164800000D03*
X64200000Y-166300000D03*
%TD*%
D13*
%TO.C,C100*%
X83640000Y-144870000D03*
X83640000Y-142870000D03*
%TD*%
D12*
%TO.C,R107*%
X82150000Y-143860000D03*
X80650000Y-143860000D03*
%TD*%
D15*
%TO.C,C119*%
X77290000Y-140250000D03*
X80590000Y-140250000D03*
%TD*%
D12*
%TO.C,C112*%
X80680000Y-142370000D03*
X82180000Y-142370000D03*
%TD*%
D16*
%TO.C,U20*%
X85210000Y-143420000D03*
X85210000Y-143920000D03*
X85210000Y-144420000D03*
X85710000Y-143420000D03*
X85710000Y-143920000D03*
X85710000Y-144420000D03*
X86210000Y-143420000D03*
X86210000Y-143920000D03*
X86210000Y-144420000D03*
%TD*%
D11*
%TO.C,R110*%
X90850000Y-141990000D03*
X90850000Y-143490000D03*
%TD*%
%TO.C,R104*%
X87650000Y-141990000D03*
X87650000Y-143490000D03*
%TD*%
%TO.C,R111*%
X89250000Y-143490000D03*
X89250000Y-141990000D03*
%TD*%
D12*
%TO.C,C109*%
X87700000Y-140140000D03*
X89200000Y-140140000D03*
%TD*%
%TO.C,C103*%
X87600000Y-145440000D03*
X89100000Y-145440000D03*
%TD*%
D11*
%TO.C,C116*%
X92450000Y-141990000D03*
X92450000Y-143490000D03*
%TD*%
D13*
%TO.C,C120*%
X33700000Y-144400000D03*
X33700000Y-142400000D03*
%TD*%
D17*
%TO.C,R46*%
X54760000Y-139420000D03*
X54760000Y-140420000D03*
%TD*%
%TO.C,R51*%
X54750000Y-136990000D03*
X54750000Y-137990000D03*
%TD*%
D18*
%TO.C,R52*%
X59230000Y-135100000D03*
X60230000Y-135100000D03*
%TD*%
%TO.C,R55*%
X61070000Y-133490000D03*
X62070000Y-133490000D03*
%TD*%
D12*
%TO.C,C143*%
X69550000Y-173100000D03*
X68050000Y-173100000D03*
%TD*%
D19*
%TO.C,L2*%
X79110000Y-143730000D03*
X75510000Y-143730000D03*
%TD*%
D11*
%TO.C,R103*%
X90950000Y-145340002D03*
X90950000Y-146840002D03*
%TD*%
D20*
%TO.C,D16*%
X53000000Y-176550000D03*
X53000000Y-177500000D03*
X53000000Y-178450000D03*
X50300000Y-178450000D03*
X50300000Y-177500000D03*
X50300000Y-176550000D03*
%TD*%
D21*
%TO.C,D17*%
X55900000Y-171500000D03*
X56400000Y-171500000D03*
X57400000Y-171500000D03*
X57900000Y-171500000D03*
X57900000Y-172375000D03*
X57400000Y-172375000D03*
X56400000Y-172375000D03*
X55900000Y-172375000D03*
%TD*%
D22*
%TO.C,GDT2*%
X31800000Y-45500000D03*
X35800000Y-45500000D03*
%TD*%
%TO.C,GDT1*%
X56800000Y-45500000D03*
X60800000Y-45500000D03*
%TD*%
D18*
%TO.C,R42*%
X64025000Y-134425000D03*
X65025000Y-134425000D03*
%TD*%
%TO.C,R67*%
X67625000Y-133625000D03*
X68625000Y-133625000D03*
%TD*%
D11*
%TO.C,C42*%
X39100000Y-130740000D03*
X39100000Y-132240000D03*
%TD*%
D17*
%TO.C,R41*%
X53120000Y-140230000D03*
X53120000Y-141230000D03*
%TD*%
D11*
%TO.C,C54*%
X34550000Y-111890000D03*
X34550000Y-113390000D03*
%TD*%
D18*
%TO.C,R65*%
X66300000Y-132900000D03*
X65300000Y-132900000D03*
%TD*%
M02*
