%TF.GenerationSoftware,KiCad,Pcbnew,10.0.1*%
%TF.CreationDate,2026-04-20T10:58:22+08:00*%
%TF.ProjectId,Scopefun_v3,53636f70-6566-4756-9e5f-76332e6b6963,rev?*%
%TF.SameCoordinates,Original*%
%TF.FileFunction,Copper,L3,Inr*%
%TF.FilePolarity,Positive*%
%FSLAX46Y46*%
G04 Gerber Fmt 4.6, Leading zero omitted, Abs format (unit mm)*
G04 Created by KiCad (PCBNEW 10.0.1) date 2026-04-20 10:58:22*
%MOMM*%
%LPD*%
G01*
G04 APERTURE LIST*
%TA.AperFunction,ComponentPad*%
%ADD10C,1.650000*%
%TD*%
%TA.AperFunction,ComponentPad*%
%ADD11C,2.540000*%
%TD*%
%TA.AperFunction,ComponentPad*%
%ADD12C,3.550000*%
%TD*%
%TA.AperFunction,ComponentPad*%
%ADD13C,1.676400*%
%TD*%
%TA.AperFunction,ComponentPad*%
%ADD14C,1.524000*%
%TD*%
%TA.AperFunction,ComponentPad*%
%ADD15C,1.200000*%
%TD*%
%TA.AperFunction,ComponentPad*%
%ADD16C,3.000000*%
%TD*%
%TA.AperFunction,ComponentPad*%
%ADD17C,2.700000*%
%TD*%
%TA.AperFunction,ViaPad*%
%ADD18C,0.400000*%
%TD*%
%TA.AperFunction,ViaPad*%
%ADD19C,0.500000*%
%TD*%
%TA.AperFunction,ViaPad*%
%ADD20C,0.800000*%
%TD*%
%TA.AperFunction,ViaPad*%
%ADD21C,0.450000*%
%TD*%
%TA.AperFunction,Conductor*%
%ADD22C,0.150000*%
%TD*%
%TA.AperFunction,Conductor*%
%ADD23C,0.127000*%
%TD*%
%TA.AperFunction,Conductor*%
%ADD24C,0.130000*%
%TD*%
%TA.AperFunction,Conductor*%
%ADD25C,0.200000*%
%TD*%
%TA.AperFunction,Conductor*%
%ADD26C,0.350000*%
%TD*%
%TA.AperFunction,Conductor*%
%ADD27C,0.250000*%
%TD*%
G04 APERTURE END LIST*
D10*
%TO.N,TMS*%
%TO.C,J2*%
X81130000Y-129000000D03*
%TO.N,TDI*%
X83670000Y-129000000D03*
%TO.N,TDO*%
X86210000Y-129000000D03*
%TO.N,TCK*%
X88750000Y-129000000D03*
%TO.N,GND*%
X91290000Y-129000000D03*
%TO.N,+1V8*%
X93830000Y-129000000D03*
%TD*%
D11*
%TO.N,Net-(CH1-In)*%
%TO.C,CH1*%
X57496000Y-37146000D03*
D12*
%TO.N,GND*%
X54198000Y-33848000D03*
X54198000Y-40448000D03*
X60798000Y-33848000D03*
X60798000Y-40448000D03*
%TD*%
D11*
%TO.N,Net-(CH2-In)*%
%TO.C,CH2*%
X32496000Y-37146000D03*
D12*
%TO.N,GND*%
X29198000Y-33848000D03*
X29198000Y-40448000D03*
X35798000Y-33848000D03*
X35798000Y-40448000D03*
%TD*%
D13*
%TO.N,GND*%
%TO.C,SLP3*%
X46289250Y-35092400D03*
%TO.N,Net-(LED3-A)*%
X43710750Y-35092400D03*
%TD*%
%TO.N,GND*%
%TO.C,SLP2*%
X71463250Y-35326416D03*
%TO.N,Net-(LED2-A)*%
X68884750Y-35326416D03*
%TD*%
%TO.N,GND*%
%TO.C,SLP1*%
X77907750Y-184707600D03*
%TO.N,Net-(LED1-A)*%
X80486250Y-184707600D03*
%TD*%
D14*
%TO.N,+VCC_USB*%
%TO.C,P1*%
X58150000Y-176490000D03*
%TO.N,/USB Port/U2D-*%
X55650000Y-176490000D03*
%TO.N,/USB Port/U2D+*%
X55650000Y-178490000D03*
%TO.N,GND*%
X58150000Y-178490000D03*
D15*
%TO.N,U3TX-*%
X52650000Y-174490000D03*
%TO.N,U3TX+*%
X54400000Y-174490000D03*
%TO.N,GND*%
X56900000Y-174490000D03*
%TO.N,U3RX+*%
X59400000Y-174490000D03*
%TO.N,U3RX-*%
X61150000Y-174490000D03*
D16*
%TO.N,/USB Port/SHLD*%
X50880000Y-181200000D03*
X62920000Y-181200000D03*
%TD*%
D17*
%TO.N,GND*%
%TO.C,GND_P2*%
X87240000Y-183270000D03*
X87240000Y-187370000D03*
%TD*%
D18*
%TO.N,Va*%
X84480000Y-65670000D03*
X82820000Y-66530000D03*
X82800000Y-65670000D03*
X81000000Y-66590000D03*
X84460000Y-66540000D03*
X80970000Y-65670000D03*
D19*
%TO.N,GND*%
X78900000Y-97700000D03*
D18*
X50220000Y-121350000D03*
D19*
X33770000Y-127050000D03*
X24475000Y-168700000D03*
X72900000Y-92200000D03*
D20*
X95620000Y-119720000D03*
X21580000Y-175130000D03*
D18*
X64450000Y-121550000D03*
X89200000Y-141070000D03*
D20*
X21460000Y-135220000D03*
D19*
X58750000Y-180875000D03*
X60150000Y-179825000D03*
D20*
X21620000Y-169860000D03*
D19*
X77700000Y-125840000D03*
D20*
X21760000Y-52620000D03*
X21620000Y-160380000D03*
D19*
X78650000Y-125030000D03*
D20*
X21800000Y-94920000D03*
X21620000Y-64690000D03*
X95400000Y-61060000D03*
D19*
X38575000Y-168675000D03*
X46725000Y-189050000D03*
X64325000Y-189025000D03*
D20*
X21670000Y-118660000D03*
D19*
X40000000Y-125425000D03*
X89500000Y-48000000D03*
X25700000Y-168725000D03*
X85200000Y-92100000D03*
X30122000Y-85940665D03*
D20*
X21890000Y-97770000D03*
D19*
X83100000Y-41100000D03*
D20*
X95700000Y-155820000D03*
D19*
X83500000Y-31000000D03*
X85100000Y-97500000D03*
D20*
X21670000Y-181620000D03*
D19*
X48648000Y-85940665D03*
D20*
X21890000Y-88820000D03*
D18*
X32790000Y-121130000D03*
D19*
X66850000Y-188325000D03*
D20*
X95400000Y-116250000D03*
X21760000Y-124800000D03*
X95480000Y-122480000D03*
D19*
X89090000Y-144560000D03*
D20*
X95660000Y-84570000D03*
D19*
X77870000Y-112830000D03*
X25675000Y-169500000D03*
D20*
X95660000Y-101510000D03*
D19*
X89500000Y-51200000D03*
X39320000Y-115730000D03*
D20*
X21710000Y-145470000D03*
D18*
X89140000Y-64490000D03*
D20*
X21710000Y-184910000D03*
D19*
X58750000Y-181775000D03*
X89300000Y-54600000D03*
X45225000Y-113775000D03*
D20*
X21580000Y-178770000D03*
D19*
X62300000Y-137900000D03*
X73500000Y-72800000D03*
X55700000Y-181875000D03*
X40900000Y-115780000D03*
D20*
X21710000Y-115720000D03*
D19*
X60200000Y-181750000D03*
X77100000Y-44400000D03*
X77400000Y-38300000D03*
D18*
X38740000Y-140540000D03*
D19*
X55700000Y-180975000D03*
X44100000Y-122830000D03*
D20*
X21590000Y-132320000D03*
D19*
X77200000Y-48100000D03*
D18*
X82700000Y-70380000D03*
D19*
X89700000Y-38200000D03*
D20*
X21710000Y-187890000D03*
D19*
X78710000Y-125830000D03*
X28210000Y-110090000D03*
X83100000Y-51300000D03*
X45750000Y-188200000D03*
X82900000Y-58000000D03*
D20*
X21710000Y-49640000D03*
D19*
X70230000Y-121050000D03*
D20*
X21760000Y-154900000D03*
X21760000Y-70700000D03*
D19*
X83100000Y-48100000D03*
X89900000Y-30900000D03*
X39700000Y-168675000D03*
D20*
X21710000Y-163720000D03*
D19*
X42570000Y-116430000D03*
X82390000Y-85580000D03*
X76060000Y-89020000D03*
D20*
X95530000Y-66150000D03*
X21710000Y-103740000D03*
X21590000Y-138250000D03*
X21500000Y-31590000D03*
X95610000Y-163710000D03*
X95660000Y-79700000D03*
X95750000Y-106600000D03*
D19*
X42990000Y-127690000D03*
X77000000Y-54700000D03*
X85960000Y-106850000D03*
X46700000Y-188175000D03*
D18*
X31770000Y-112430000D03*
D20*
X21710000Y-55740000D03*
D19*
X73970000Y-89030000D03*
X57150000Y-181850000D03*
D18*
X32730000Y-119620000D03*
D19*
X71920000Y-83790000D03*
D20*
X95530000Y-90760000D03*
X21800000Y-91940000D03*
X21840000Y-100800000D03*
X21800000Y-112600000D03*
D19*
X79600000Y-77200000D03*
D20*
X95700000Y-159680000D03*
X95530000Y-96290000D03*
X21800000Y-121860000D03*
D19*
X67410000Y-172300000D03*
D20*
X95760000Y-173460000D03*
X95720000Y-182580000D03*
D18*
X39220000Y-132970000D03*
D19*
X85800000Y-72700000D03*
D20*
X21840000Y-157660000D03*
X95400000Y-49300000D03*
D19*
X77200000Y-41100000D03*
D20*
X21620000Y-67760000D03*
D19*
X65790000Y-135780000D03*
D20*
X95750000Y-188660000D03*
D18*
X62700000Y-121760000D03*
D19*
X45725000Y-188975000D03*
X87200000Y-119910000D03*
D18*
X80590000Y-70410000D03*
D20*
X95830000Y-41800000D03*
X95350000Y-33060000D03*
D19*
X78800000Y-92200000D03*
X76830000Y-111720000D03*
D20*
X21600000Y-43660000D03*
D18*
X43580000Y-133620000D03*
D19*
X72800000Y-97600000D03*
D20*
X21670000Y-61660000D03*
D19*
X89800000Y-35000000D03*
D20*
X95750000Y-45350000D03*
X21670000Y-58680000D03*
D19*
X48302000Y-102925899D03*
X24450000Y-169475000D03*
D20*
X21800000Y-82810000D03*
X95570000Y-111120000D03*
D19*
X77500000Y-35100000D03*
D20*
X21710000Y-166790000D03*
X21600000Y-34620000D03*
X21890000Y-151830000D03*
D19*
X39850000Y-169550000D03*
D20*
X21710000Y-37780000D03*
D19*
X40680000Y-127100000D03*
X64325000Y-188325000D03*
X55700000Y-125225000D03*
X89300000Y-57900000D03*
X83400000Y-35100000D03*
D18*
X41260000Y-137490000D03*
D20*
X21670000Y-85840000D03*
D19*
X44130000Y-116510000D03*
X83000000Y-44400000D03*
X82900000Y-54700000D03*
D20*
X21760000Y-76710000D03*
D18*
X78610000Y-65200000D03*
D19*
X77200000Y-51300000D03*
X40090000Y-122840000D03*
X57150000Y-180925000D03*
D20*
X21710000Y-109750000D03*
X95620000Y-75930000D03*
D19*
X79400000Y-72800000D03*
X77820000Y-111700000D03*
D20*
X95830000Y-70930000D03*
X95680000Y-168020000D03*
D19*
X41990000Y-125450000D03*
X60200000Y-180825000D03*
D20*
X21500000Y-141400000D03*
D19*
X48750000Y-112850000D03*
X83300000Y-38300000D03*
X86000000Y-77100000D03*
D20*
X21760000Y-46570000D03*
D19*
X82260000Y-87160000D03*
X77700000Y-125020000D03*
X66900000Y-189000000D03*
D20*
X21420000Y-129160000D03*
X95570000Y-146030000D03*
D19*
X73700000Y-77200000D03*
D20*
X95690000Y-177960000D03*
X95790000Y-52900000D03*
D19*
X76820000Y-112780000D03*
X89500000Y-41000000D03*
D20*
X21760000Y-79780000D03*
X95830000Y-150640000D03*
D19*
X38500000Y-169650000D03*
D20*
X95400000Y-36970000D03*
X95530000Y-56890000D03*
D19*
X77600000Y-31000000D03*
X77000000Y-58000000D03*
X89400000Y-44300000D03*
X32077800Y-102925899D03*
%TO.N,Net-(Q2-G1)*%
X59850000Y-82550000D03*
X44375000Y-66525000D03*
%TO.N,Net-(Q2-G2)*%
X56600000Y-82550000D03*
X44275000Y-68225000D03*
%TO.N,Net-(Q1-G1)*%
X48025000Y-68225000D03*
X61475000Y-82575000D03*
%TO.N,Net-(Q1-G2)*%
X48000000Y-70475000D03*
X58250000Y-82700000D03*
%TO.N,Net-(R2-Pad2)*%
X65950000Y-82725000D03*
X53300000Y-48050000D03*
%TO.N,Net-(R3-Pad2)*%
X64225000Y-82500000D03*
X28375000Y-47950000D03*
%TO.N,-Va*%
X76070000Y-87500000D03*
X73960000Y-87510000D03*
%TO.N,+VCC_USB_P*%
X47025000Y-173575000D03*
X90630000Y-171240000D03*
X90370000Y-117540000D03*
X42150000Y-185350000D03*
X41125000Y-185350000D03*
X90370000Y-105950000D03*
X33925000Y-176975000D03*
X92070000Y-171220000D03*
X91780000Y-104400000D03*
X90390000Y-115880000D03*
X90530000Y-152130000D03*
X91780000Y-148220000D03*
X91830000Y-115860000D03*
X92120000Y-158400000D03*
X90630000Y-174350000D03*
X92060000Y-162520000D03*
X91900000Y-150720000D03*
X90460000Y-180450000D03*
X90290000Y-104450000D03*
X90680000Y-158420000D03*
X91450000Y-179270000D03*
X90460000Y-150740000D03*
X91930000Y-149610000D03*
X90400000Y-118950000D03*
X91810000Y-105930000D03*
X84480000Y-187050000D03*
X33175000Y-175950000D03*
X35825000Y-180550000D03*
X92120000Y-168730000D03*
X84510000Y-185100000D03*
X91850000Y-117500000D03*
D18*
X90990000Y-144540000D03*
D19*
X92340000Y-178360000D03*
X90380000Y-178340000D03*
X91840000Y-118930000D03*
X84490000Y-188240000D03*
X92410000Y-180480000D03*
X91910000Y-152110000D03*
X43350000Y-186250000D03*
X41125000Y-186300000D03*
X43350000Y-185375000D03*
X84480000Y-186080000D03*
X91740000Y-102800000D03*
X92070000Y-174330000D03*
X90680000Y-168750000D03*
X90340000Y-148240000D03*
X90300000Y-102820000D03*
X90490000Y-149630000D03*
X46360000Y-172620000D03*
D18*
%TO.N,+3V3*%
X71840000Y-110410000D03*
X87440000Y-102660000D03*
D19*
X27400000Y-134200000D03*
D18*
X87670000Y-85970000D03*
X89340000Y-63520000D03*
X71840000Y-109470000D03*
X71840000Y-108590000D03*
D19*
X88250000Y-111070000D03*
%TO.N,+VCC_USB*%
X47575000Y-183675000D03*
X48225000Y-184150000D03*
X48225000Y-183050000D03*
%TO.N,/USB Port/+VCC_USB_F*%
X49200000Y-177500000D03*
X48460000Y-177490000D03*
%TO.N,Net-(LED1-A)*%
X87769606Y-138419606D03*
%TO.N,Net-(LED2-A)*%
X69050000Y-37250000D03*
X69125000Y-82650000D03*
%TO.N,Net-(LED3-A)*%
X67550000Y-82275000D03*
%TO.N,LED[1]*%
X68300000Y-141900000D03*
X73602234Y-140801401D03*
%TO.N,CH2_K*%
X56675000Y-86525000D03*
X56300000Y-140900000D03*
%TO.N,CH2_GND*%
X59250000Y-138925000D03*
X66950000Y-128875000D03*
%TO.N,CH1_DC*%
X59320490Y-135825000D03*
X66000000Y-86750000D03*
%TO.N,CH2_DC*%
X60325000Y-138875000D03*
X64150000Y-86975000D03*
%TO.N,LED[3]*%
X67300000Y-138975000D03*
X67550000Y-86750000D03*
X66275000Y-140900000D03*
%TO.N,CH1_GND*%
X61475000Y-86750000D03*
X59275000Y-139850000D03*
%TO.N,CH1_K*%
X58275000Y-86575000D03*
X58300000Y-137900000D03*
D21*
%TO.N,/ADC/CH1+*%
X46025000Y-118650000D03*
X45250000Y-119675000D03*
D18*
%TO.N,+1V8*%
X72780000Y-120670000D03*
D19*
X33810000Y-125560000D03*
D18*
X64420000Y-125820000D03*
X39110000Y-130260000D03*
X43680000Y-135550000D03*
D19*
X88080000Y-124620000D03*
D18*
X67180000Y-125760000D03*
X72760000Y-123030000D03*
X43570000Y-132060000D03*
X72770000Y-121830000D03*
X70270000Y-126470000D03*
X38720000Y-138550000D03*
D19*
X55700000Y-126750000D03*
D18*
%TO.N,+1V8_VA*%
X40910000Y-117430000D03*
X35870000Y-120030000D03*
D19*
X44150000Y-118125000D03*
D18*
X39320000Y-117430000D03*
X37290000Y-120040000D03*
X67220000Y-121850000D03*
D19*
X42550000Y-118175000D03*
D18*
X50300000Y-119810000D03*
D19*
%TO.N,Net-(U29D-VBATT)*%
X57600000Y-166800000D03*
X48900000Y-169850000D03*
%TO.N,XTALO*%
X80300000Y-168600000D03*
D18*
X71200000Y-168200000D03*
D19*
%TO.N,XTALI*%
X83300000Y-165000000D03*
D18*
X72000000Y-168200000D03*
D19*
%TO.N,Net-(U29C-RESET#)*%
X65950000Y-173200000D03*
X59200000Y-166200000D03*
D18*
%TO.N,+1V0*%
X77320000Y-144770000D03*
D19*
X63250000Y-143950000D03*
D18*
X77120000Y-143020000D03*
D19*
X79790000Y-146930000D03*
D18*
X77210000Y-143840000D03*
D19*
%TO.N,+1V5*%
X25700000Y-163175000D03*
X26650000Y-163200000D03*
X24575000Y-163175000D03*
%TO.N,RE7*%
X57700000Y-118800000D03*
X59331859Y-140910837D03*
X36875000Y-94300000D03*
D18*
%TO.N,+1.48V*%
X32880000Y-112460000D03*
D19*
X35075000Y-110950000D03*
X47675000Y-112725000D03*
%TO.N,TMS*%
X65325466Y-139924534D03*
%TO.N,TDI*%
X65275000Y-138875000D03*
%TO.N,TCK*%
X65250000Y-140925000D03*
%TO.N,+1V2*%
X40650000Y-163100000D03*
X39575000Y-163100000D03*
X38550000Y-163125000D03*
D18*
%TO.N,ADC_RESETN*%
X72000000Y-163400000D03*
D19*
X25675000Y-129000000D03*
X79600000Y-163700000D03*
X46480000Y-120690000D03*
X81500000Y-176300000D03*
%TO.N,Net-(U29C-R_USB3)*%
X75824999Y-173700000D03*
X61800000Y-168900000D03*
%TO.N,Net-(U29C-R_USB2)*%
X62600000Y-170350000D03*
D18*
X70400000Y-168200000D03*
D19*
%TO.N,DONE*%
X62300000Y-144900000D03*
D18*
X76000000Y-166600000D03*
D19*
X63750000Y-163350000D03*
%TO.N,Net-(U12C-TDO_0)*%
X85800000Y-135400000D03*
X64300000Y-138900000D03*
%TO.N,INIT_B*%
X61300000Y-142900000D03*
X62400000Y-163300000D03*
D18*
X74400000Y-167397990D03*
%TO.N,PROG_B*%
X76000000Y-167400000D03*
D19*
X80900000Y-155500000D03*
X62300000Y-141900000D03*
D21*
%TO.N,DDR3_RESET#*%
X27000000Y-160100000D03*
D19*
X59300000Y-147900000D03*
X28000000Y-150300000D03*
D18*
%TO.N,fdata[14]*%
X69600000Y-162600000D03*
D19*
X69300000Y-151900000D03*
%TO.N,fdata[7]*%
X68300000Y-150900000D03*
D18*
X68800000Y-164200000D03*
D19*
%TO.N,fdata[5]*%
X67300000Y-150900000D03*
D18*
X69600000Y-165000000D03*
%TO.N,SLOE_SLRD*%
X70400000Y-162600000D03*
D19*
X69300000Y-149900000D03*
%TO.N,fdata[15]*%
X66300000Y-149900000D03*
D18*
X70400000Y-165000000D03*
%TO.N,FLAGA*%
X70400000Y-164200000D03*
D19*
X69300000Y-148900000D03*
D18*
%TO.N,fdata[9]*%
X68800000Y-162600000D03*
D19*
X68300000Y-148900000D03*
%TO.N,fdata[8]*%
X67300000Y-148900000D03*
D18*
X68000000Y-162600000D03*
%TO.N,fdata[1]*%
X68800000Y-165000000D03*
D19*
X66300000Y-148900000D03*
D18*
%TO.N,DDR3_DQ10*%
X39600000Y-155500000D03*
X60300000Y-148900000D03*
D21*
%TO.N,DDR3_DQS1_P*%
X44170000Y-155104000D03*
D18*
X58300000Y-148900000D03*
D21*
%TO.N,DDR3_DQS1_N*%
X44170000Y-155696000D03*
D18*
X57300000Y-148900000D03*
%TO.N,DDR3_DQ9*%
X39700000Y-151600000D03*
X55100000Y-148400000D03*
%TO.N,FLAGD*%
X72800000Y-164200000D03*
D19*
X69300000Y-147900000D03*
D18*
%TO.N,FLAGB*%
X71200000Y-164200000D03*
D19*
X67300000Y-147900000D03*
%TO.N,fdata[17]*%
X66300000Y-147900000D03*
D18*
X73600000Y-162600000D03*
D19*
%TO.N,SPI_SCK*%
X63300000Y-147900000D03*
D18*
X73600000Y-167397990D03*
%TO.N,DDR3_DQ14*%
X40400000Y-155500000D03*
X60300000Y-147900000D03*
%TO.N,DDR3_DQ8*%
X38800000Y-154700000D03*
X56300000Y-147900000D03*
%TO.N,DDR3_DQ15*%
X53900000Y-147900000D03*
X41200000Y-151500000D03*
D19*
%TO.N,faddr[0]*%
X69300000Y-146900000D03*
D18*
X72800000Y-163400000D03*
%TO.N,fdata[20]*%
X74400000Y-163400000D03*
D19*
X68300000Y-146900000D03*
%TO.N,fdata[23]*%
X67300000Y-146900000D03*
D18*
X74400000Y-164200000D03*
%TO.N,DDR3_DQ12*%
X41400000Y-154300000D03*
X59300000Y-146900000D03*
%TO.N,DDR3_DQ11*%
X58300000Y-146900000D03*
X41400000Y-150700000D03*
%TO.N,DDR3_DQS0_N*%
X57300000Y-146900000D03*
D21*
X44300000Y-150896000D03*
D18*
%TO.N,DDR3_DQ13*%
X56300000Y-146903200D03*
X42200000Y-149900000D03*
%TO.N,DDR3_DQ1*%
X37300000Y-153800000D03*
X59300000Y-145900000D03*
D21*
%TO.N,DDR3_DQS0_P*%
X44300000Y-150304000D03*
D18*
X57300000Y-145900000D03*
%TO.N,DDR3_DQ3*%
X38000000Y-154700000D03*
X55200000Y-145400000D03*
%TO.N,fdata[31]*%
X72800000Y-165800000D03*
D19*
X69300000Y-143900000D03*
D18*
%TO.N,fdata[27]*%
X73600000Y-165000000D03*
D19*
X68300000Y-144900000D03*
D18*
%TO.N,DDR3_DQ0*%
X37200000Y-150700000D03*
X59300000Y-144900000D03*
%TO.N,DDR3_DQ2*%
X37800000Y-147000000D03*
X59300000Y-143900000D03*
%TO.N,DDR3_DQ6*%
X36400000Y-147000000D03*
X57300000Y-142900000D03*
%TO.N,DDR3_DQ7*%
X35600000Y-154700000D03*
X55200000Y-144400000D03*
D19*
%TO.N,fdata[26]*%
X68300000Y-143900000D03*
D18*
X77100000Y-164200000D03*
%TO.N,fdata[2]*%
X70400000Y-165800000D03*
D19*
X67300000Y-143900000D03*
%TO.N,SPI_MOSI*%
X57300000Y-144900000D03*
D18*
X72000000Y-167400000D03*
%TO.N,DDR3_DQ4*%
X36400000Y-150700000D03*
D21*
X56300000Y-142900000D03*
D18*
%TO.N,DDR3_DQ5*%
X34800000Y-154700000D03*
X53900000Y-143400000D03*
D21*
%TO.N,data4_N*%
X37411500Y-131200000D03*
D19*
X58250000Y-141975000D03*
%TO.N,LED[2]*%
X69150000Y-86600000D03*
X69800000Y-133150000D03*
D21*
%TO.N,data4_P*%
X37988500Y-131200000D03*
D19*
X59225000Y-141875000D03*
D21*
%TO.N,data3_N*%
X39645999Y-135254001D03*
D19*
X57365000Y-140965000D03*
D21*
%TO.N,data11_N*%
X59836500Y-127788500D03*
X66300000Y-139900000D03*
%TO.N,data3_P*%
X40054001Y-134845999D03*
D19*
X57310000Y-139980000D03*
D21*
%TO.N,data9_N*%
X45811500Y-131600000D03*
X44095999Y-136395999D03*
%TO.N,data11_P*%
X66300000Y-138900000D03*
X59836500Y-127211500D03*
%TO.N,data10_P*%
X63225000Y-139000000D03*
X61013500Y-128221500D03*
%TO.N,CLK_ADC_N*%
X41711500Y-131100000D03*
D19*
X58270000Y-139840000D03*
D21*
%TO.N,data9_P*%
X44504001Y-136804001D03*
X46388500Y-131600000D03*
%TO.N,data10_N*%
X61013500Y-128798500D03*
D19*
X62260000Y-138890000D03*
D21*
%TO.N,data0_N*%
X36400000Y-124411500D03*
D19*
X61300000Y-137890000D03*
D21*
%TO.N,data0_P*%
X36400000Y-124988500D03*
D19*
X60325000Y-137900000D03*
%TO.N,CLK_ADC_P*%
X57290000Y-137850000D03*
D21*
X42288500Y-131100000D03*
%TO.N,data7_P*%
X47595999Y-136904001D03*
X43339570Y-130378744D03*
%TO.N,data7_N*%
X42762570Y-130378744D03*
X48004001Y-136495999D03*
%TO.N,data12_P*%
X59194010Y-125721500D03*
D19*
X67290000Y-137860000D03*
D21*
%TO.N,data1_P*%
X54500000Y-132788500D03*
X36500000Y-126798500D03*
D19*
%TO.N,data12_N*%
X67240000Y-135890000D03*
D21*
X59194010Y-126298500D03*
D19*
%TO.N,data13_P*%
X63290000Y-135320000D03*
D21*
X50000000Y-124721500D03*
D19*
%TO.N,data13_N*%
X61740000Y-135550000D03*
D21*
X50000000Y-125298500D03*
%TO.N,data1_N*%
X54500000Y-132211500D03*
X36500000Y-126221500D03*
%TO.N,data6_N*%
X40721500Y-130600000D03*
X51904001Y-132795999D03*
%TO.N,data6_P*%
X51495999Y-133204001D03*
X41298500Y-130600000D03*
D18*
%TO.N,/POWER SUPPLY/PG1*%
X83380000Y-118020000D03*
%TO.N,/POWER SUPPLY/PG2*%
X82390000Y-105610000D03*
X83610000Y-118710000D03*
X32920000Y-179390000D03*
D19*
%TO.N,ADC_CLK_EN*%
X24675000Y-135800000D03*
X76050000Y-182550000D03*
%TD*%
%TO.N,Net-(Q2-G2)*%
D22*
X56600000Y-82328453D02*
X44300000Y-70028453D01*
X44300000Y-70028453D02*
X44300000Y-68250000D01*
D23*
X44300000Y-68250000D02*
X44275000Y-68225000D01*
X56600000Y-82550000D02*
X56600000Y-82328453D01*
%TO.N,Net-(Q1-G1)*%
X48025000Y-69125000D02*
X48025000Y-68225000D01*
D22*
X61475000Y-82575000D02*
X48025000Y-69125000D01*
%TO.N,Net-(Q1-G2)*%
D24*
X58250000Y-82700000D02*
X58250000Y-80725000D01*
D22*
X58250000Y-80725000D02*
X48000000Y-70475000D01*
%TO.N,Net-(R2-Pad2)*%
X65950000Y-82725000D02*
X65950000Y-60700000D01*
D23*
X65950000Y-60700000D02*
X53300000Y-48050000D01*
%TO.N,Net-(R3-Pad2)*%
X29464500Y-49039500D02*
X28375000Y-47950000D01*
X57028722Y-71813500D02*
X56786500Y-71571278D01*
X54819278Y-69486500D02*
X54786500Y-69486500D01*
X55061500Y-69761500D02*
X55061500Y-69728722D01*
X55061500Y-69728722D02*
X54819278Y-69486500D01*
X56786500Y-71571278D02*
X56786500Y-71486500D01*
X54786500Y-69486500D02*
X34339500Y-49039500D01*
X56786500Y-71486500D02*
X55061500Y-69761500D01*
X64225000Y-78925000D02*
X57113500Y-71813500D01*
X34339500Y-49039500D02*
X29464500Y-49039500D01*
X57113500Y-71813500D02*
X57028722Y-71813500D01*
X64225000Y-82500000D02*
X64225000Y-78925000D01*
%TO.N,Net-(LED1-A)*%
D25*
X82600000Y-152675000D02*
X82600000Y-160600000D01*
X83700000Y-176600000D02*
X83700000Y-183200000D01*
X88275000Y-147000000D02*
X82600000Y-152675000D01*
X82192400Y-184707600D02*
X80486250Y-184707600D01*
X82600000Y-160600000D02*
X85200000Y-163200000D01*
X87769606Y-138419606D02*
X88275000Y-138925000D01*
X88275000Y-138925000D02*
X88275000Y-147000000D01*
X85200000Y-163200000D02*
X85200000Y-175100000D01*
X85200000Y-175100000D02*
X83700000Y-176600000D01*
X83700000Y-183200000D02*
X82192400Y-184707600D01*
%TO.N,Net-(LED2-A)*%
D23*
X69125000Y-37325000D02*
X69050000Y-37250000D01*
D25*
X69125000Y-82650000D02*
X69125000Y-37325000D01*
%TO.N,Net-(LED3-A)*%
D26*
X43710750Y-36289982D02*
X67249000Y-59828232D01*
X43710750Y-35092400D02*
X43710750Y-36289982D01*
X67249000Y-59828232D02*
X67249000Y-77249000D01*
X67249000Y-77249000D02*
X67550000Y-77550000D01*
X67550000Y-77550000D02*
X67550000Y-82275000D01*
%TO.N,LED[1]*%
D23*
X68700000Y-141500000D02*
X68300000Y-141900000D01*
X73550833Y-140750000D02*
X71350000Y-140750000D01*
X71350000Y-140750000D02*
X70600000Y-141500000D01*
X70600000Y-141500000D02*
X68700000Y-141500000D01*
X73602234Y-140801401D02*
X73550833Y-140750000D01*
%TO.N,CH2_K*%
D22*
X56739500Y-86589500D02*
X56739500Y-140460500D01*
X56739500Y-140460500D02*
X56300000Y-140900000D01*
D23*
X56675000Y-86525000D02*
X56739500Y-86589500D01*
%TO.N,CH2_GND*%
X59250000Y-138925000D02*
X59641490Y-139316490D01*
X61858510Y-136127128D02*
X66950000Y-131035638D01*
D22*
X66950000Y-131035638D02*
X66950000Y-128875000D01*
D23*
X60507872Y-139316490D02*
X61858510Y-137965852D01*
X61858510Y-137965852D02*
X61858510Y-136127128D01*
X59641490Y-139316490D02*
X60507872Y-139316490D01*
%TO.N,CH1_DC*%
D22*
X66000000Y-86750000D02*
X66000000Y-129145490D01*
D23*
X66000000Y-129145490D02*
X59320490Y-135825000D01*
%TO.N,CH2_DC*%
X59850000Y-137475000D02*
X59850000Y-138075000D01*
X59850000Y-138075000D02*
X60325000Y-138550000D01*
X58879000Y-136504000D02*
X59850000Y-137475000D01*
X60325000Y-138550000D02*
X60325000Y-138875000D01*
X64150000Y-117400000D02*
X60425000Y-121125000D01*
D22*
X64150000Y-86975000D02*
X64150000Y-117400000D01*
D23*
X58879000Y-135642128D02*
X58879000Y-136504000D01*
D22*
X60425000Y-121125000D02*
X60425000Y-134096128D01*
D23*
X60425000Y-134096128D02*
X58879000Y-135642128D01*
%TO.N,LED[3]*%
D22*
X66849000Y-140326000D02*
X66275000Y-140900000D01*
X66849000Y-139426000D02*
X66849000Y-140326000D01*
X67300000Y-138975000D02*
X66849000Y-139426000D01*
%TO.N,CH1_GND*%
X58780000Y-139355000D02*
X58800000Y-139375000D01*
X58605510Y-136891120D02*
X58780000Y-137065610D01*
X61400000Y-86825000D02*
X61400000Y-117014390D01*
D23*
X61475000Y-86750000D02*
X61400000Y-86825000D01*
D22*
X58800000Y-119614390D02*
X58800000Y-122389390D01*
X58780000Y-137065610D02*
X58780000Y-139355000D01*
X58800000Y-122389390D02*
X58605510Y-122583880D01*
D23*
X61400000Y-117014390D02*
X58800000Y-119614390D01*
X58800000Y-139375000D02*
X59275000Y-139850000D01*
D22*
X58605510Y-122583880D02*
X58605510Y-136891120D01*
%TO.N,CH1_K*%
X58300000Y-137900000D02*
X58300000Y-137325000D01*
X58275000Y-137300000D02*
X58275000Y-86575000D01*
D23*
X58300000Y-137325000D02*
X58275000Y-137300000D01*
%TO.N,Net-(U29D-VBATT)*%
D27*
X57600000Y-166800000D02*
X51950000Y-166800000D01*
X51950000Y-166800000D02*
X48900000Y-169850000D01*
%TO.N,XTALO*%
D23*
X72400000Y-169400000D02*
X79500000Y-169400000D01*
X71200000Y-168200000D02*
X72400000Y-169400000D01*
X79500000Y-169400000D02*
X80300000Y-168600000D01*
%TO.N,XTALI*%
X83300000Y-165000000D02*
X80900000Y-167400000D01*
X79700000Y-167400000D02*
X78800000Y-168300000D01*
X78800000Y-168300000D02*
X75900000Y-168300000D01*
X80900000Y-167400000D02*
X79700000Y-167400000D01*
X75900000Y-168300000D02*
X75600000Y-168600000D01*
X75600000Y-168600000D02*
X72400000Y-168600000D01*
X72400000Y-168600000D02*
X72000000Y-168200000D01*
%TO.N,Net-(U29C-RESET#)*%
D25*
X65950000Y-173200000D02*
X62950000Y-173200000D01*
X59200000Y-169450000D02*
X62950000Y-173200000D01*
X59200000Y-166200000D02*
X59200000Y-169450000D01*
%TO.N,RE7*%
D22*
X57675000Y-136637189D02*
X57675000Y-118825000D01*
X58082365Y-140292990D02*
X57762990Y-139973615D01*
X59331859Y-140910837D02*
X58714012Y-140292990D01*
X57751000Y-137654355D02*
X57751000Y-136713189D01*
X57762990Y-139792365D02*
X57675000Y-139704375D01*
X57675000Y-139704375D02*
X57675000Y-138105625D01*
X57742990Y-138037635D02*
X57742990Y-137662365D01*
X57742990Y-137662365D02*
X57751000Y-137654355D01*
X57675000Y-138105625D02*
X57742990Y-138037635D01*
X57675000Y-118825000D02*
X57700000Y-118800000D01*
X58714012Y-140292990D02*
X58082365Y-140292990D01*
X57762990Y-139973615D02*
X57762990Y-139792365D01*
X57751000Y-136713189D02*
X57675000Y-136637189D01*
%TO.N,TDI*%
X86252990Y-136747010D02*
X84126000Y-138874000D01*
X86252990Y-131582990D02*
X86252990Y-136747010D01*
X83670000Y-129000000D02*
X86252990Y-131582990D01*
X69552000Y-138450000D02*
X65700000Y-138450000D01*
X65700000Y-138450000D02*
X65275000Y-138875000D01*
X69976000Y-138874000D02*
X69552000Y-138450000D01*
X84126000Y-138874000D02*
X69976000Y-138874000D01*
%TO.N,TCK*%
X66677990Y-142352990D02*
X83197010Y-142352990D01*
X65250000Y-140925000D02*
X66677990Y-142352990D01*
X88750000Y-136800000D02*
X88750000Y-129000000D01*
X83197010Y-142352990D02*
X88750000Y-136800000D01*
%TO.N,ADC_RESETN*%
D25*
X26675000Y-136900000D02*
X26675000Y-130000000D01*
D23*
X72409509Y-165409509D02*
X72409509Y-166109509D01*
X72600000Y-166300000D02*
X75500000Y-166300000D01*
X75500000Y-166300000D02*
X75800000Y-166000000D01*
D25*
X63000000Y-174400000D02*
X61400000Y-172800000D01*
D23*
X78700000Y-165800000D02*
X79600000Y-164900000D01*
D25*
X26600000Y-136975000D02*
X26675000Y-136900000D01*
X28500000Y-161500000D02*
X26700000Y-161500000D01*
D23*
X72400000Y-164600000D02*
X72400000Y-165400000D01*
D25*
X26600000Y-155700000D02*
X26600000Y-136975000D01*
D23*
X72400000Y-165400000D02*
X72409509Y-165409509D01*
X76700000Y-165800000D02*
X78700000Y-165800000D01*
X75800000Y-166000000D02*
X76500000Y-166000000D01*
D25*
X25700000Y-160500000D02*
X25700000Y-156600000D01*
X61400000Y-172800000D02*
X48400000Y-172800000D01*
D23*
X72409509Y-166109509D02*
X72600000Y-166300000D01*
D25*
X31600000Y-164600000D02*
X28500000Y-161500000D01*
X48400000Y-172800000D02*
X40200000Y-164600000D01*
X25700000Y-156600000D02*
X26600000Y-155700000D01*
X26700000Y-161500000D02*
X25700000Y-160500000D01*
D23*
X79600000Y-164900000D02*
X79600000Y-163700000D01*
D25*
X40200000Y-164600000D02*
X31600000Y-164600000D01*
X81500000Y-176300000D02*
X72100000Y-176300000D01*
X70200000Y-174400000D02*
X63000000Y-174400000D01*
D23*
X72000000Y-164200000D02*
X72400000Y-164600000D01*
X76500000Y-166000000D02*
X76700000Y-165800000D01*
D25*
X26675000Y-130000000D02*
X25675000Y-129000000D01*
D23*
X72000000Y-163400000D02*
X72000000Y-164200000D01*
D25*
X72100000Y-176300000D02*
X70200000Y-174400000D01*
%TO.N,Net-(U29C-R_USB3)*%
D22*
X61800000Y-170550000D02*
X61800000Y-168900000D01*
X65700000Y-171650000D02*
X62900000Y-171650000D01*
X68300000Y-171000000D02*
X66350000Y-171000000D01*
X71000000Y-173700000D02*
X68300000Y-171000000D01*
X66350000Y-171000000D02*
X65700000Y-171650000D01*
X62900000Y-171650000D02*
X61800000Y-170550000D01*
X75824999Y-173700000D02*
X71000000Y-173700000D01*
%TO.N,Net-(U29C-R_USB2)*%
D23*
X63350000Y-171100000D02*
X65500000Y-171100000D01*
X66300000Y-169700000D02*
X69600000Y-169700000D01*
X65800000Y-170800000D02*
X65800000Y-170200000D01*
X65800000Y-170200000D02*
X66300000Y-169700000D01*
X62600000Y-170350000D02*
X63350000Y-171100000D01*
X70000000Y-169300000D02*
X70000000Y-168600000D01*
X65500000Y-171100000D02*
X65800000Y-170800000D01*
X69600000Y-169700000D02*
X70000000Y-169300000D01*
X70000000Y-168600000D02*
X70400000Y-168200000D01*
%TO.N,DONE*%
X64500000Y-165800000D02*
X64000000Y-165300000D01*
X63500000Y-145400000D02*
X62800000Y-145400000D01*
X66700000Y-166600000D02*
X65900000Y-165800000D01*
X63900000Y-159200000D02*
X63900000Y-154700000D01*
X62800000Y-145400000D02*
X62300000Y-144900000D01*
X63000000Y-162600000D02*
X63000000Y-160100000D01*
X76000000Y-166600000D02*
X75600000Y-167000000D01*
X63800000Y-146100000D02*
X63800000Y-145700000D01*
X64800000Y-147100000D02*
X63800000Y-146100000D01*
X70000000Y-166200000D02*
X69600000Y-166600000D01*
X72050000Y-166650000D02*
X71600000Y-166200000D01*
X63000000Y-160100000D02*
X63900000Y-159200000D01*
X74800000Y-167000000D02*
X74450000Y-166650000D01*
X64000000Y-165300000D02*
X64000000Y-164250000D01*
X63750000Y-163350000D02*
X63000000Y-162600000D01*
X69600000Y-166600000D02*
X66700000Y-166600000D01*
X63800000Y-145700000D02*
X63500000Y-145400000D01*
X63900000Y-154700000D02*
X63800000Y-154600000D01*
X63750000Y-164000000D02*
X63750000Y-163350000D01*
X74450000Y-166650000D02*
X72050000Y-166650000D01*
X63800000Y-152300000D02*
X64800000Y-151300000D01*
X75600000Y-167000000D02*
X74800000Y-167000000D01*
X64000000Y-164250000D02*
X63750000Y-164000000D01*
X71600000Y-166200000D02*
X70000000Y-166200000D01*
X65900000Y-165800000D02*
X64500000Y-165800000D01*
X64800000Y-151300000D02*
X64800000Y-147100000D01*
X63800000Y-154600000D02*
X63800000Y-152300000D01*
%TO.N,Net-(U12C-TDO_0)*%
X64620000Y-135019390D02*
X64620000Y-134680000D01*
X65100000Y-134200000D02*
X68600000Y-134200000D01*
X64585010Y-135054380D02*
X64620000Y-135019390D01*
X64300000Y-138900000D02*
X64585010Y-138614990D01*
X84100000Y-133700000D02*
X85800000Y-135400000D01*
X64620000Y-134680000D02*
X65100000Y-134200000D01*
X64585010Y-138614990D02*
X64585010Y-135054380D01*
X68900000Y-133900000D02*
X74700000Y-133900000D01*
X68600000Y-134200000D02*
X68900000Y-133900000D01*
X74900000Y-133700000D02*
X84100000Y-133700000D01*
X74700000Y-133900000D02*
X74900000Y-133700000D01*
%TO.N,INIT_B*%
X62400000Y-159800000D02*
X62700000Y-159500000D01*
X63800000Y-150400000D02*
X64300000Y-149900000D01*
X61800000Y-146100000D02*
X61800000Y-143400000D01*
X61800000Y-143400000D02*
X61300000Y-142900000D01*
X62700000Y-165200000D02*
X62700000Y-164200000D01*
X74400000Y-167397990D02*
X74002010Y-167000000D01*
X62100000Y-146400000D02*
X61800000Y-146100000D01*
X64300000Y-147200000D02*
X63500000Y-146400000D01*
X64900000Y-167000000D02*
X63500000Y-165600000D01*
X62700000Y-152500000D02*
X63800000Y-151400000D01*
X62700000Y-164200000D02*
X62400000Y-163900000D01*
X62400000Y-163300000D02*
X62400000Y-159800000D01*
X62700000Y-159500000D02*
X62700000Y-152500000D01*
X64300000Y-149900000D02*
X64300000Y-147200000D01*
X74002010Y-167000000D02*
X64900000Y-167000000D01*
X63800000Y-151400000D02*
X63800000Y-150400000D01*
X63500000Y-165600000D02*
X63100000Y-165600000D01*
X63500000Y-146400000D02*
X62100000Y-146400000D01*
X63100000Y-165600000D02*
X62700000Y-165200000D01*
X62400000Y-163900000D02*
X62400000Y-163300000D01*
%TO.N,PROG_B*%
X80900000Y-149200000D02*
X75600000Y-143900000D01*
X71300000Y-143900000D02*
X70800000Y-143400000D01*
X65800000Y-143400000D02*
X64800000Y-142400000D01*
X80900000Y-157450000D02*
X81750000Y-158300000D01*
X64800000Y-142400000D02*
X62800000Y-142400000D01*
X77200000Y-166200000D02*
X76000000Y-167400000D01*
X80100000Y-164650000D02*
X80100000Y-165150000D01*
X80100000Y-165150000D02*
X79050000Y-166200000D01*
X70800000Y-143400000D02*
X65800000Y-143400000D01*
X80900000Y-157450000D02*
X80900000Y-155500000D01*
X79050000Y-166200000D02*
X77200000Y-166200000D01*
X81750000Y-158300000D02*
X81750000Y-163000000D01*
X81750000Y-163000000D02*
X80100000Y-164650000D01*
X75600000Y-143900000D02*
X71300000Y-143900000D01*
X62800000Y-142400000D02*
X62300000Y-141900000D01*
X80900000Y-155500000D02*
X80900000Y-149200000D01*
%TO.N,DDR3_RESET#*%
X60800000Y-150900000D02*
X60800000Y-147700000D01*
X43550000Y-160100000D02*
X45150000Y-161700000D01*
X55200000Y-161700000D02*
X60200000Y-156700000D01*
X27000000Y-160100000D02*
X27000000Y-157200000D01*
X45150000Y-161700000D02*
X55200000Y-161700000D01*
X27000000Y-157200000D02*
X27300000Y-156900000D01*
X59800000Y-147400000D02*
X59300000Y-147900000D01*
X60800000Y-147700000D02*
X60500000Y-147400000D01*
X27300000Y-156900000D02*
X27300000Y-151000000D01*
X60500000Y-147400000D02*
X59800000Y-147400000D01*
X27300000Y-151000000D02*
X28000000Y-150300000D01*
X60200000Y-151500000D02*
X60800000Y-150900000D01*
X27000000Y-160100000D02*
X43550000Y-160100000D01*
X60200000Y-156700000D02*
X60200000Y-151500000D01*
%TO.N,fdata[14]*%
X69300000Y-151900000D02*
X70000000Y-152600000D01*
X69600000Y-161300000D02*
X69600000Y-162600000D01*
X69750000Y-161150000D02*
X69600000Y-161300000D01*
X70000000Y-152600000D02*
X70000000Y-157300000D01*
X70000000Y-157300000D02*
X69750000Y-157550000D01*
X69750000Y-157550000D02*
X69750000Y-161150000D01*
%TO.N,fdata[7]*%
X68300000Y-150900000D02*
X68300000Y-155900000D01*
X68100000Y-158600000D02*
X68100000Y-161900000D01*
X67900000Y-156300000D02*
X67900000Y-158400000D01*
X67900000Y-158400000D02*
X68100000Y-158600000D01*
X68800000Y-164200000D02*
X68400000Y-163800000D01*
X68300000Y-155900000D02*
X67900000Y-156300000D01*
X68400000Y-162200000D02*
X68400000Y-163800000D01*
X68100000Y-161900000D02*
X68400000Y-162200000D01*
%TO.N,fdata[5]*%
X67300000Y-155100000D02*
X67300000Y-150900000D01*
X68400000Y-164600000D02*
X66600000Y-162800000D01*
X69200000Y-164600000D02*
X68400000Y-164600000D01*
X66600000Y-162800000D02*
X66600000Y-155800000D01*
X66600000Y-155800000D02*
X67300000Y-155100000D01*
X69600000Y-165000000D02*
X69200000Y-164600000D01*
%TO.N,SLOE_SLRD*%
X70350000Y-157850000D02*
X70600000Y-157600000D01*
X69300000Y-149900000D02*
X70500000Y-151100000D01*
X70400000Y-162600000D02*
X70400000Y-162100000D01*
X70400000Y-162100000D02*
X70350000Y-162050000D01*
X70500000Y-153800000D02*
X70500000Y-151100000D01*
X70350000Y-162050000D02*
X70350000Y-157850000D01*
X70600000Y-153900000D02*
X70500000Y-153800000D01*
X70600000Y-157600000D02*
X70600000Y-153900000D01*
%TO.N,fdata[15]*%
X66300000Y-149900000D02*
X66300000Y-154500000D01*
X66300000Y-154500000D02*
X65500000Y-155300000D01*
X64700000Y-160350000D02*
X64700000Y-161300000D01*
X67700000Y-165400000D02*
X70000000Y-165400000D01*
X65500000Y-159550000D02*
X64700000Y-160350000D01*
X65500000Y-155300000D02*
X65500000Y-159550000D01*
X65400000Y-162000000D02*
X65400000Y-163700000D01*
X66700000Y-165000000D02*
X67300000Y-165000000D01*
X64700000Y-161300000D02*
X65400000Y-162000000D01*
X67300000Y-165000000D02*
X67700000Y-165400000D01*
X70000000Y-165400000D02*
X70400000Y-165000000D01*
X65400000Y-163700000D02*
X66700000Y-165000000D01*
%TO.N,FLAGA*%
X71200000Y-158000000D02*
X70900000Y-158300000D01*
X69581802Y-149500000D02*
X69600000Y-149500000D01*
X71200000Y-160400000D02*
X71200000Y-161100000D01*
X70861499Y-163738501D02*
X70400000Y-164200000D01*
X71800000Y-151700000D02*
X71800000Y-153900000D01*
X69300000Y-148900000D02*
X69300000Y-149218198D01*
X70861499Y-161438501D02*
X70861499Y-163738501D01*
X69600000Y-149500000D02*
X71800000Y-151700000D01*
X71200000Y-154500000D02*
X71200000Y-158000000D01*
X71200000Y-161100000D02*
X70861499Y-161438501D01*
X70900000Y-158300000D02*
X70900000Y-160100000D01*
X71800000Y-153900000D02*
X71200000Y-154500000D01*
X70900000Y-160100000D02*
X71200000Y-160400000D01*
X69300000Y-149218198D02*
X69581802Y-149500000D01*
%TO.N,fdata[9]*%
X68800000Y-156800000D02*
X68700000Y-156900000D01*
X68700000Y-161700000D02*
X68800000Y-161800000D01*
X68800000Y-149400000D02*
X68800000Y-156800000D01*
X68700000Y-156900000D02*
X68700000Y-161700000D01*
X68300000Y-148900000D02*
X68800000Y-149400000D01*
X68800000Y-161800000D02*
X68800000Y-162600000D01*
%TO.N,fdata[8]*%
X67800000Y-149400000D02*
X67800000Y-155400000D01*
X67100000Y-156100000D02*
X67100000Y-161000000D01*
X67100000Y-161000000D02*
X67600000Y-161500000D01*
X67600000Y-162200000D02*
X68000000Y-162600000D01*
X67800000Y-155400000D02*
X67100000Y-156100000D01*
X67300000Y-148900000D02*
X67800000Y-149400000D01*
X67600000Y-161500000D02*
X67600000Y-162200000D01*
%TO.N,fdata[1]*%
X66300000Y-163400000D02*
X66000000Y-163100000D01*
X68050000Y-165000000D02*
X67250000Y-164200000D01*
X66700000Y-164200000D02*
X66300000Y-163800000D01*
X66300000Y-163800000D02*
X66300000Y-163400000D01*
X66800000Y-154800000D02*
X66800000Y-149400000D01*
X66000000Y-163100000D02*
X66000000Y-155600000D01*
X67250000Y-164200000D02*
X66700000Y-164200000D01*
X68800000Y-165000000D02*
X68050000Y-165000000D01*
X66000000Y-155600000D02*
X66800000Y-154800000D01*
X66800000Y-149400000D02*
X66300000Y-148900000D01*
%TO.N,DDR3_DQ10*%
X41100000Y-156000000D02*
X41400000Y-156300000D01*
X39600000Y-155500000D02*
X40100000Y-156000000D01*
X60300000Y-150100000D02*
X60300000Y-148900000D01*
X40100000Y-156000000D02*
X41100000Y-156000000D01*
X41400000Y-156400000D02*
X44300000Y-159300000D01*
X44300000Y-159300000D02*
X51100000Y-159300000D01*
X41400000Y-156300000D02*
X41400000Y-156400000D01*
X51100000Y-159300000D02*
X60300000Y-150100000D01*
%TO.N,DDR3_DQS1_P*%
X51347428Y-154160217D02*
X51417558Y-154248160D01*
X52369418Y-153643410D02*
X52336659Y-153617284D01*
X50071228Y-155594493D02*
X49983285Y-155524363D01*
X52648455Y-153563477D02*
X52622331Y-153596236D01*
X50527135Y-155684797D02*
X50501011Y-155717556D01*
X52336659Y-153617284D02*
X52192548Y-153473173D01*
X50545316Y-155523443D02*
X50554640Y-155564293D01*
X50237963Y-155119535D02*
X50286768Y-155220877D01*
X50554640Y-155564293D02*
X50554639Y-155606195D01*
X52788661Y-152166682D02*
X52478219Y-152477124D01*
X49339071Y-155616276D02*
X49318021Y-155637323D01*
X52675959Y-153484875D02*
X52666636Y-153525725D01*
X52648456Y-153364371D02*
X52666636Y-153402123D01*
X52359283Y-152998215D02*
X52408088Y-153099557D01*
X51671457Y-153354239D02*
X51570115Y-153403042D01*
X49550137Y-155475559D02*
X49448795Y-155524362D01*
X50212934Y-154897391D02*
X50212934Y-155009873D01*
X50942603Y-154414899D02*
X50832941Y-154389869D01*
X56700000Y-148800000D02*
X56155342Y-148800000D01*
X50212934Y-155009873D02*
X50237963Y-155119535D01*
X50447204Y-155764729D02*
X50409452Y-155782910D01*
X51615299Y-154545535D02*
X51605976Y-154586385D01*
X52478219Y-152477124D02*
X52408087Y-152565067D01*
X58000000Y-148900000D02*
X57500000Y-148400000D01*
X52334254Y-152888553D02*
X52359283Y-152998215D01*
X50237964Y-154787729D02*
X50212934Y-154897391D01*
X57500000Y-148400000D02*
X57100000Y-148400000D01*
X58300000Y-148900000D02*
X58000000Y-148900000D01*
X51273594Y-153836731D02*
X51273594Y-153949213D01*
X52666636Y-153525725D02*
X52648455Y-153563477D01*
X50286768Y-155220877D02*
X50356898Y-155308820D01*
X51540623Y-154677945D02*
X51507864Y-154704069D01*
X51460391Y-153494956D02*
X51417559Y-153537784D01*
X51561671Y-154656896D02*
X51540623Y-154677945D01*
X56155342Y-148800000D02*
X54327000Y-150628342D01*
X50832941Y-154389869D02*
X50720459Y-154389869D01*
X51893601Y-153329209D02*
X51781119Y-153329209D01*
X48528342Y-156427000D02*
X46828342Y-156427000D01*
X50356899Y-154598444D02*
X50286767Y-154686387D01*
X50356898Y-155308820D02*
X50501010Y-155452932D01*
X51429262Y-154731573D02*
X51387360Y-154731574D01*
X49318021Y-155637323D02*
X48528342Y-156427000D01*
X51587796Y-154425031D02*
X51605976Y-154462783D01*
X52478218Y-153187500D02*
X52622330Y-153331612D01*
X52666636Y-153402123D02*
X52675960Y-153442973D01*
X51347427Y-153625727D02*
X51298624Y-153727069D01*
X52408088Y-153099557D02*
X52478218Y-153187500D01*
X50479963Y-155738605D02*
X50447204Y-155764729D01*
X50554639Y-155606195D02*
X50545316Y-155647045D01*
X51615300Y-154503633D02*
X51615299Y-154545535D01*
X51273594Y-153949213D02*
X51298623Y-154058875D01*
X52003263Y-153354239D02*
X51893601Y-153329209D01*
X52192548Y-153473173D02*
X52104605Y-153403043D01*
X50409452Y-155782910D02*
X50368602Y-155792233D01*
X49983285Y-155524363D02*
X49881943Y-155475559D01*
X50286767Y-154686387D02*
X50237964Y-154787729D01*
X52334254Y-152776071D02*
X52334254Y-152888553D01*
X54327000Y-150628342D02*
X54327000Y-151928342D01*
X54088660Y-152166682D02*
X52788661Y-152166682D01*
X50215339Y-155738604D02*
X50071228Y-155594493D01*
X45771658Y-156727000D02*
X45473000Y-156428342D01*
X51417559Y-153537784D02*
X51347427Y-153625727D01*
X50501010Y-155452932D02*
X50527136Y-155485691D01*
X52601283Y-153617285D02*
X52568524Y-153643409D01*
X51482172Y-153473174D02*
X51460391Y-153494956D01*
X50720459Y-154389869D02*
X50610797Y-154414899D01*
X51470112Y-154722250D02*
X51429262Y-154731573D01*
X49448795Y-155524362D02*
X49360852Y-155594494D01*
X50610797Y-154414899D02*
X50509455Y-154463702D01*
X49772281Y-155450529D02*
X49659799Y-155450529D01*
X51570115Y-153403042D02*
X51482172Y-153473174D01*
X50326700Y-155792234D02*
X50285850Y-155782909D01*
X52489922Y-153670913D02*
X52448020Y-153670914D01*
X50509455Y-154463702D02*
X50421512Y-154533834D01*
X51275999Y-154677944D02*
X51131888Y-154533833D01*
X44771659Y-155227001D02*
X44293001Y-155227001D01*
X51346510Y-154722249D02*
X51308758Y-154704070D01*
X52568524Y-153643409D02*
X52530772Y-153661590D01*
X51417558Y-154248160D02*
X51561670Y-154392272D01*
X52407170Y-153661589D02*
X52369418Y-153643410D01*
X54327000Y-151928342D02*
X54088660Y-152166682D01*
X46528342Y-156727000D02*
X45771658Y-156727000D01*
X52408087Y-152565067D02*
X52359284Y-152666409D01*
X50248098Y-155764730D02*
X50215339Y-155738604D01*
X50421512Y-154533834D02*
X50399731Y-154555616D01*
X51308758Y-154704070D02*
X51275999Y-154677944D01*
X50285850Y-155782909D02*
X50248098Y-155764730D01*
X44293001Y-155227001D02*
X44170000Y-155104000D01*
X52530772Y-153661590D02*
X52489922Y-153670913D01*
X50399731Y-154555616D02*
X50356899Y-154598444D01*
X51043945Y-154463703D02*
X50942603Y-154414899D01*
X51387360Y-154731574D02*
X51346510Y-154722249D01*
X52448020Y-153670914D02*
X52407170Y-153661589D01*
X46828342Y-156427000D02*
X46528342Y-156727000D01*
X52675960Y-153442973D02*
X52675959Y-153484875D01*
X52622331Y-153596236D02*
X52601283Y-153617285D01*
X49881943Y-155475559D02*
X49772281Y-155450529D01*
X50501011Y-155717556D02*
X50479963Y-155738605D01*
X50368602Y-155792233D02*
X50326700Y-155792234D01*
X49659799Y-155450529D02*
X49550137Y-155475559D01*
X45473000Y-156428342D02*
X45473000Y-155928342D01*
X51605976Y-154462783D02*
X51615300Y-154503633D01*
X51587795Y-154624137D02*
X51561671Y-154656896D01*
X57100000Y-148400000D02*
X56700000Y-148800000D01*
X51507864Y-154704069D02*
X51470112Y-154722250D01*
X51605976Y-154586385D02*
X51587795Y-154624137D01*
X52359284Y-152666409D02*
X52334254Y-152776071D01*
X52622330Y-153331612D02*
X52648456Y-153364371D01*
X49360852Y-155594494D02*
X49339071Y-155616276D01*
X51131888Y-154533833D02*
X51043945Y-154463703D01*
X50527136Y-155485691D02*
X50545316Y-155523443D01*
X51298624Y-153727069D02*
X51273594Y-153836731D01*
X51781119Y-153329209D02*
X51671457Y-153354239D01*
X50545316Y-155647045D02*
X50527135Y-155684797D01*
X45473000Y-155928342D02*
X44771659Y-155227001D01*
X51561670Y-154392272D02*
X51587796Y-154425031D01*
X51298623Y-154058875D02*
X51347428Y-154160217D01*
X52104605Y-153403043D02*
X52003263Y-153354239D01*
%TO.N,DDR3_DQS1_N*%
X46671658Y-157073000D02*
X45628342Y-157073000D01*
X50644388Y-154800273D02*
X50623338Y-154821320D01*
X49736991Y-155807304D02*
X49695089Y-155807305D01*
X51630369Y-153913923D02*
X51639694Y-153954773D01*
X51898242Y-154791829D02*
X51828110Y-154879772D01*
X50797651Y-154746644D02*
X50755749Y-154746645D01*
X50767451Y-155230056D02*
X50837581Y-155317999D01*
X52958901Y-153196679D02*
X53007705Y-153298021D01*
X57150000Y-149650000D02*
X57300000Y-149500000D01*
X45628342Y-157073000D02*
X45127000Y-156571658D01*
X52744658Y-152700000D02*
X52718534Y-152732759D01*
X53032735Y-153407683D02*
X53032735Y-153520165D01*
X51828110Y-154879772D02*
X51763497Y-154944385D01*
X50513554Y-156123979D02*
X50403892Y-156149009D01*
X56800000Y-149250000D02*
X56800000Y-149550000D01*
X51775559Y-153695308D02*
X51737807Y-153713489D01*
X52691030Y-152811361D02*
X52691029Y-152853263D01*
X51683998Y-153760660D02*
X51657874Y-153793419D01*
X50614896Y-156075175D02*
X50513554Y-156123979D01*
X50597214Y-154854079D02*
X50579034Y-154891831D01*
X51630370Y-153872021D02*
X51630369Y-153913923D01*
X52736216Y-153953855D02*
X52634874Y-154002659D01*
X49848352Y-155860934D02*
X49992463Y-156005044D01*
X54673000Y-152071658D02*
X54231976Y-152512682D01*
X52931976Y-152512682D02*
X52744658Y-152700000D01*
X50181748Y-156123979D02*
X50080404Y-156075176D01*
X50909012Y-154800274D02*
X51053123Y-154944384D01*
X50291410Y-156149009D02*
X50181748Y-156123979D01*
X52691029Y-152853263D02*
X52700354Y-152894113D01*
X54673000Y-150811972D02*
X54673000Y-152071658D01*
X51639694Y-153954773D02*
X51657873Y-153992525D01*
X51828111Y-154169396D02*
X51898241Y-154257339D01*
X56900000Y-149650000D02*
X57150000Y-149650000D01*
X52201724Y-153953856D02*
X52113783Y-153883724D01*
X50579034Y-154891831D02*
X50569710Y-154932681D01*
X51858311Y-153685984D02*
X51816409Y-153685985D01*
X49777841Y-155816628D02*
X49736991Y-155807304D01*
X50623338Y-154821320D02*
X50597214Y-154854079D01*
X51969672Y-153739614D02*
X52113783Y-153883724D01*
X51898241Y-154257339D02*
X51947045Y-154358681D01*
X52303068Y-154002659D02*
X52201724Y-153953856D01*
X49562678Y-155881980D02*
X48671658Y-156773000D01*
X52412730Y-154027689D02*
X52303068Y-154002659D01*
X49616487Y-155834809D02*
X49583728Y-155860933D01*
X50080404Y-156075176D02*
X49992463Y-156005044D01*
X51242408Y-155063319D02*
X51141064Y-155014516D01*
X50837582Y-155852489D02*
X50767450Y-155940432D01*
X51141064Y-155014516D02*
X51053123Y-154944384D01*
X50623339Y-155085944D02*
X50767451Y-155230056D01*
X45127000Y-156071658D02*
X44628341Y-155572999D01*
X52718534Y-152732759D02*
X52700354Y-152770511D01*
X44293001Y-155572999D02*
X44170000Y-155696000D01*
X53007705Y-153298021D02*
X53032735Y-153407683D01*
X45127000Y-156571658D02*
X45127000Y-156071658D01*
X49848352Y-155860934D02*
X49815593Y-155834808D01*
X50702837Y-156005045D02*
X50614896Y-156075175D01*
X51969672Y-153739614D02*
X51936913Y-153713488D01*
X54231976Y-152512682D02*
X52931976Y-152512682D01*
X51737807Y-153713489D02*
X51705048Y-153739613D01*
X49654239Y-155816628D02*
X49616487Y-155834809D01*
X51972075Y-154580825D02*
X51947045Y-154690487D01*
X51936913Y-153713488D02*
X51899161Y-153695308D01*
X51763497Y-154944385D02*
X51675556Y-155014515D01*
X52700354Y-152770511D02*
X52691030Y-152811361D01*
X51816409Y-153685985D02*
X51775559Y-153695308D01*
X51899161Y-153695308D02*
X51858311Y-153685984D01*
X50767450Y-155940432D02*
X50702837Y-156005045D01*
X52700354Y-152894113D02*
X52718533Y-152931865D01*
X51675556Y-155014515D02*
X51574214Y-155063319D01*
X52718533Y-152931865D02*
X52744659Y-152964624D01*
X50714899Y-154755968D02*
X50677147Y-154774149D01*
X49815593Y-155834808D02*
X49777841Y-155816628D01*
X51574214Y-155063319D02*
X51464552Y-155088349D01*
X52824157Y-153883725D02*
X52736216Y-153953855D01*
X50886385Y-155751147D02*
X50837582Y-155852489D01*
X52525212Y-154027689D02*
X52412730Y-154027689D01*
X52634874Y-154002659D02*
X52525212Y-154027689D01*
X50569709Y-154974583D02*
X50579034Y-155015433D01*
X51972075Y-154468343D02*
X51972075Y-154580825D01*
X48671658Y-156773000D02*
X46971658Y-156773000D01*
X51947045Y-154358681D02*
X51972075Y-154468343D01*
X50755749Y-154746645D02*
X50714899Y-154755968D01*
X49583728Y-155860933D02*
X49562678Y-155881980D01*
X50403892Y-156149009D02*
X50291410Y-156149009D01*
X51947045Y-154690487D02*
X51898242Y-154791829D01*
X50911415Y-155641485D02*
X50886385Y-155751147D01*
X51639694Y-153831171D02*
X51630370Y-153872021D01*
X51657873Y-153992525D02*
X51683999Y-154025284D01*
X50911415Y-155529003D02*
X50911415Y-155641485D01*
X49695089Y-155807305D02*
X49654239Y-155816628D01*
X50597213Y-155053185D02*
X50623339Y-155085944D01*
X52744659Y-152964624D02*
X52888771Y-153108736D01*
X51705048Y-153739613D02*
X51683998Y-153760660D01*
X52888770Y-153819112D02*
X52824157Y-153883725D01*
X51352070Y-155088349D02*
X51242408Y-155063319D01*
X50886385Y-155419341D02*
X50911415Y-155529003D01*
X50838501Y-154755968D02*
X50797651Y-154746644D01*
X56800000Y-149250000D02*
X56715840Y-149165840D01*
X51464552Y-155088349D02*
X51352070Y-155088349D01*
X44628341Y-155572999D02*
X44293001Y-155572999D01*
X50579034Y-155015433D02*
X50597213Y-155053185D01*
X50677147Y-154774149D02*
X50644388Y-154800273D01*
X56715840Y-149165840D02*
X56319132Y-149165840D01*
X46971658Y-156773000D02*
X46671658Y-157073000D01*
X57300000Y-149500000D02*
X57300000Y-148900000D01*
X50569710Y-154932681D02*
X50569709Y-154974583D01*
X50837581Y-155317999D02*
X50886385Y-155419341D01*
X51683999Y-154025284D02*
X51828111Y-154169396D01*
X53007705Y-153629827D02*
X52958902Y-153731169D01*
X52888771Y-153108736D02*
X52958901Y-153196679D01*
X52958902Y-153731169D02*
X52888770Y-153819112D01*
X50876253Y-154774148D02*
X50838501Y-154755968D01*
X51657874Y-153793419D02*
X51639694Y-153831171D01*
X53032735Y-153520165D02*
X53007705Y-153629827D01*
X50909012Y-154800274D02*
X50876253Y-154774148D01*
X56800000Y-149550000D02*
X56900000Y-149650000D01*
X56319132Y-149165840D02*
X54673000Y-150811972D01*
%TO.N,DDR3_DQ9*%
X50090215Y-152634904D02*
X50140653Y-152659194D01*
X48390215Y-154334904D02*
X48440653Y-154359194D01*
X49544128Y-151645457D02*
X49504543Y-151605872D01*
X50594504Y-150705015D02*
X50636776Y-150719807D01*
X49375144Y-152626941D02*
X49350854Y-152576503D01*
X50269806Y-150813224D02*
X50293633Y-150775303D01*
X51256268Y-150894369D02*
X51274757Y-150841529D01*
X50750000Y-151450000D02*
X50756268Y-151505630D01*
X51155872Y-151645457D02*
X51195457Y-151605872D01*
X48475144Y-153526941D02*
X48450854Y-153476503D01*
X51195457Y-151605872D02*
X51225242Y-151558470D01*
X48852085Y-154112899D02*
X48864543Y-154058320D01*
X48758835Y-153045505D02*
X48814817Y-153045505D01*
X47819834Y-153782252D02*
X47863603Y-153817157D01*
X48495232Y-154371651D02*
X48551214Y-154371651D01*
X49395232Y-153471651D02*
X49451214Y-153471651D01*
X49669396Y-152257963D02*
X49719834Y-152282252D01*
X40100000Y-152000000D02*
X40800000Y-152000000D01*
X49644370Y-151693731D02*
X49591530Y-151675242D01*
X49764543Y-153102338D02*
X49752085Y-153047759D01*
X48704256Y-153057963D02*
X48758835Y-153045505D01*
X51250000Y-151450000D02*
X51250000Y-150950000D01*
X49410049Y-152670710D02*
X49375144Y-152626941D01*
X49700000Y-151700000D02*
X49644370Y-151693731D01*
X50443731Y-151894369D02*
X50425242Y-151841529D01*
X49591530Y-151224757D02*
X49644370Y-151206268D01*
X49644370Y-151206268D02*
X49700000Y-151200000D01*
X49474758Y-151558470D02*
X49456269Y-151505630D01*
X50550000Y-150700000D02*
X50594504Y-150705015D01*
X50250000Y-150950000D02*
X50250000Y-150900000D01*
X50804542Y-151605872D02*
X50844127Y-151645457D01*
X50706366Y-150775303D02*
X50730193Y-150813224D01*
X48869396Y-153057963D02*
X48919834Y-153082252D01*
X50744985Y-150855496D02*
X50750000Y-150900000D01*
X49456269Y-151505630D02*
X49450000Y-151450000D01*
X48450854Y-153476503D02*
X48438397Y-153421924D01*
X53300000Y-149400000D02*
X54300000Y-148400000D01*
X50750000Y-150900000D02*
X50750000Y-151450000D01*
X50363223Y-150719807D02*
X50405495Y-150705015D01*
X50356231Y-152634904D02*
X50400000Y-152600000D01*
X51225242Y-151558470D02*
X51243731Y-151505630D01*
X49692893Y-153307106D02*
X49727796Y-153263337D01*
X49692891Y-152953552D02*
X49410049Y-152670710D01*
X49456269Y-151394369D02*
X49474758Y-151341529D01*
X48605793Y-154359194D02*
X48656231Y-154334904D01*
X48656231Y-154334904D02*
X48700000Y-154300000D01*
X52300000Y-150700000D02*
X53300000Y-149700000D01*
X48346446Y-154300000D02*
X48390215Y-154334904D01*
X50944369Y-151693731D02*
X51000000Y-151700000D01*
X51055630Y-151693731D02*
X51108470Y-151675242D01*
X50450000Y-152550000D02*
X50450000Y-151950000D01*
X48864543Y-154002338D02*
X48852085Y-153947759D01*
X48440653Y-154359194D02*
X48495232Y-154371651D01*
X49453818Y-152282252D02*
X49504256Y-152257963D01*
X51000000Y-151700000D02*
X51055630Y-151693731D01*
X40800000Y-152000000D02*
X42400000Y-153600000D01*
X49763603Y-152317157D02*
X50046446Y-152600000D01*
X50844127Y-151645457D02*
X50891529Y-151675242D01*
X50774757Y-151558470D02*
X50804542Y-151605872D01*
X48792891Y-153853552D02*
X48510049Y-153570710D01*
X49504256Y-152257963D02*
X49558835Y-152245505D01*
X50674697Y-150743634D02*
X50706366Y-150775303D01*
X50255630Y-151706268D02*
X50200000Y-151700000D01*
X49474758Y-151341529D02*
X49504543Y-151294127D01*
X48852085Y-153947759D02*
X48827796Y-153897321D01*
X49451214Y-153471651D02*
X49505793Y-153459194D01*
X53300000Y-149700000D02*
X53300000Y-149400000D01*
X51274757Y-150841529D02*
X51304542Y-150794127D01*
X49450000Y-151450000D02*
X49456269Y-151394369D01*
X49752085Y-153212899D02*
X49764543Y-153158320D01*
X49614817Y-152245505D02*
X49669396Y-152257963D01*
X50405495Y-150705015D02*
X50450000Y-150700000D01*
X50155873Y-151145457D02*
X50195458Y-151105872D01*
X50250000Y-150900000D02*
X50255014Y-150855496D01*
X47604256Y-153757963D02*
X47658835Y-153745505D01*
X50243732Y-151005630D02*
X50250000Y-150950000D01*
X51250000Y-150950000D02*
X51256268Y-150894369D01*
X50308470Y-151724757D02*
X50255630Y-151706268D01*
X49764543Y-153158320D02*
X49764543Y-153102338D01*
X49700000Y-151200000D02*
X50000000Y-151200000D01*
X47658835Y-153745505D02*
X47714817Y-153745505D01*
X50450000Y-150700000D02*
X50550000Y-150700000D01*
X48551214Y-154371651D02*
X48605793Y-154359194D01*
X46300000Y-154900000D02*
X47200000Y-154900000D01*
X48827796Y-153897321D02*
X48792891Y-153853552D01*
X50255014Y-150855496D02*
X50269806Y-150813224D01*
X48827796Y-154163337D02*
X48852085Y-154112899D01*
X50200000Y-151700000D02*
X49700000Y-151700000D01*
X48792893Y-154207106D02*
X48827796Y-154163337D01*
X50756268Y-151505630D02*
X50774757Y-151558470D01*
X49558835Y-152245505D02*
X49614817Y-152245505D01*
X48864543Y-154058320D02*
X48864543Y-154002338D01*
X54300000Y-148400000D02*
X55100000Y-148400000D01*
X48700000Y-154300000D02*
X48792893Y-154207106D01*
X48438397Y-153365942D02*
X48450854Y-153311363D01*
X50395457Y-151794127D02*
X50355872Y-151754542D01*
X49505793Y-153459194D02*
X49556231Y-153434904D01*
X49727796Y-152997321D02*
X49692891Y-152953552D01*
X49504543Y-151294127D02*
X49544128Y-151254542D01*
X51444369Y-150706268D02*
X51500000Y-150700000D01*
X47769396Y-153757963D02*
X47819834Y-153782252D01*
X49338397Y-152465942D02*
X49350854Y-152411363D01*
X50046446Y-152600000D02*
X50090215Y-152634904D01*
X50400000Y-152600000D02*
X50450000Y-152550000D01*
X47863603Y-153817157D02*
X48346446Y-154300000D01*
X48438397Y-153421924D02*
X48438397Y-153365942D01*
X49752085Y-153047759D02*
X49727796Y-152997321D01*
X48919834Y-153082252D02*
X48963603Y-153117157D01*
X49719834Y-152282252D02*
X49763603Y-152317157D01*
X47200000Y-154900000D02*
X47400000Y-154700000D01*
X50891529Y-151675242D02*
X50944369Y-151693731D01*
X50293633Y-150775303D02*
X50325302Y-150743634D01*
X49556231Y-153434904D02*
X49600000Y-153400000D01*
X49290215Y-153434904D02*
X49340653Y-153459194D01*
X49410049Y-152317157D02*
X49453818Y-152282252D01*
X50195458Y-151105872D02*
X50225243Y-151058470D01*
X51304542Y-150794127D02*
X51344127Y-150754542D01*
X42400000Y-153600000D02*
X45600000Y-153600000D01*
X49375144Y-152360925D02*
X49410049Y-152317157D01*
X51243731Y-151505630D02*
X51250000Y-151450000D01*
X51391529Y-150724757D02*
X51444369Y-150706268D01*
X50055631Y-151193731D02*
X50108471Y-151175242D01*
X49727796Y-153263337D02*
X49752085Y-153212899D01*
X45800000Y-154400000D02*
X46300000Y-154900000D01*
X45800000Y-153800000D02*
X45800000Y-154400000D01*
X51500000Y-150700000D02*
X52300000Y-150700000D01*
X49350854Y-152576503D02*
X49338397Y-152521924D01*
X50251214Y-152671651D02*
X50305793Y-152659194D01*
X51344127Y-150754542D02*
X51391529Y-150724757D01*
X48814817Y-153045505D02*
X48869396Y-153057963D01*
X49600000Y-153400000D02*
X49692893Y-153307106D01*
X50636776Y-150719807D02*
X50674697Y-150743634D01*
X50325302Y-150743634D02*
X50363223Y-150719807D01*
X47714817Y-153745505D02*
X47769396Y-153757963D01*
X48963603Y-153117157D02*
X49246446Y-153400000D01*
X50730193Y-150813224D02*
X50744985Y-150855496D01*
X39700000Y-151600000D02*
X40100000Y-152000000D01*
X48475144Y-153260925D02*
X48653818Y-153082252D01*
X49338397Y-152521924D02*
X49338397Y-152465942D01*
X48510049Y-153570710D02*
X48475144Y-153526941D01*
X49350854Y-152411363D02*
X49375144Y-152360925D01*
X50225243Y-151058470D02*
X50243732Y-151005630D01*
X49504543Y-151605872D02*
X49474758Y-151558470D01*
X49340653Y-153459194D02*
X49395232Y-153471651D01*
X50450000Y-151950000D02*
X50443731Y-151894369D01*
X47400000Y-153936070D02*
X47553818Y-153782252D01*
X49544128Y-151254542D02*
X49591530Y-151224757D01*
X50305793Y-152659194D02*
X50356231Y-152634904D01*
X47553818Y-153782252D02*
X47604256Y-153757963D01*
X50000000Y-151200000D02*
X50055631Y-151193731D01*
X47400000Y-154700000D02*
X47400000Y-153936070D01*
X49591530Y-151675242D02*
X49544128Y-151645457D01*
X50195232Y-152671651D02*
X50251214Y-152671651D01*
X48450854Y-153311363D02*
X48475144Y-153260925D01*
X45600000Y-153600000D02*
X45800000Y-153800000D01*
X50425242Y-151841529D02*
X50395457Y-151794127D01*
X48653818Y-153082252D02*
X48704256Y-153057963D01*
X50108471Y-151175242D02*
X50155873Y-151145457D01*
X51108470Y-151675242D02*
X51155872Y-151645457D01*
X50355872Y-151754542D02*
X50308470Y-151724757D01*
X50140653Y-152659194D02*
X50195232Y-152671651D01*
X49246446Y-153400000D02*
X49290215Y-153434904D01*
%TO.N,FLAGD*%
X72900000Y-160400000D02*
X72900000Y-161000000D01*
X72100000Y-158800000D02*
X72100000Y-159600000D01*
X72900000Y-161000000D02*
X72400000Y-161500000D01*
X72400000Y-163800000D02*
X72800000Y-164200000D01*
X70000000Y-147900000D02*
X73000000Y-150900000D01*
X72400000Y-161500000D02*
X72400000Y-163800000D01*
X73000000Y-150900000D02*
X73000000Y-157900000D01*
X72100000Y-159600000D02*
X72900000Y-160400000D01*
X69300000Y-147900000D02*
X70000000Y-147900000D01*
X73000000Y-157900000D02*
X72100000Y-158800000D01*
%TO.N,FLAGB*%
X71200000Y-163400000D02*
X71200000Y-164200000D01*
X70500000Y-149400000D02*
X72400000Y-151300000D01*
X71500000Y-161600000D02*
X71500000Y-163100000D01*
X67800000Y-148400000D02*
X69500000Y-148400000D01*
X67300000Y-147900000D02*
X67800000Y-148400000D01*
X69800000Y-149100000D02*
X70100000Y-149400000D01*
X71500000Y-163100000D02*
X71200000Y-163400000D01*
X72400000Y-151300000D02*
X72400000Y-154200000D01*
X72400000Y-154200000D02*
X72000000Y-154600000D01*
X69500000Y-148400000D02*
X69800000Y-148700000D01*
X71500000Y-159900000D02*
X72000000Y-160400000D01*
X71500000Y-158600000D02*
X71500000Y-159900000D01*
X70100000Y-149400000D02*
X70500000Y-149400000D01*
X69800000Y-148700000D02*
X69800000Y-149100000D01*
X72000000Y-161100000D02*
X71500000Y-161600000D01*
X72000000Y-158100000D02*
X71500000Y-158600000D01*
X72000000Y-154600000D02*
X72000000Y-158100000D01*
X72000000Y-160400000D02*
X72000000Y-161100000D01*
%TO.N,fdata[17]*%
X66800000Y-147400000D02*
X70300000Y-147400000D01*
X66300000Y-147900000D02*
X66800000Y-147400000D01*
X73200000Y-161400000D02*
X73200000Y-162200000D01*
X70300000Y-147400000D02*
X73500000Y-150600000D01*
X73500000Y-150600000D02*
X73500000Y-161100000D01*
X73500000Y-161100000D02*
X73200000Y-161400000D01*
X73200000Y-162200000D02*
X73600000Y-162600000D01*
%TO.N,SPI_SCK*%
X73375001Y-167624999D02*
X73375001Y-167622989D01*
X61800000Y-165950000D02*
X61800000Y-167650000D01*
X61800000Y-167650000D02*
X62450000Y-168300000D01*
X68500000Y-167800000D02*
X73200000Y-167800000D01*
X62800000Y-148400000D02*
X62800000Y-150400000D01*
X73375001Y-167622989D02*
X73600000Y-167397990D01*
X68000000Y-168300000D02*
X68500000Y-167800000D01*
X61800000Y-151400000D02*
X61800000Y-158500000D01*
X62800000Y-150400000D02*
X61800000Y-151400000D01*
X73200000Y-167800000D02*
X73375001Y-167624999D01*
X60300000Y-164450000D02*
X61800000Y-165950000D01*
X62450000Y-168300000D02*
X68000000Y-168300000D01*
X60300000Y-160000000D02*
X60300000Y-164450000D01*
X61800000Y-158500000D02*
X60300000Y-160000000D01*
X63300000Y-147900000D02*
X62800000Y-148400000D01*
%TO.N,DDR3_DQ14*%
X50600000Y-158600000D02*
X44700000Y-158600000D01*
X59500000Y-149400000D02*
X59100000Y-149400000D01*
X41000000Y-155500000D02*
X40400000Y-155500000D01*
X59100000Y-149400000D02*
X58800000Y-149700000D01*
X58800000Y-150400000D02*
X50600000Y-158600000D01*
X60300000Y-147900000D02*
X59800000Y-148400000D01*
X59800000Y-149100000D02*
X59500000Y-149400000D01*
X44700000Y-158600000D02*
X41700000Y-155600000D01*
X58800000Y-149700000D02*
X58800000Y-150400000D01*
X59800000Y-148400000D02*
X59800000Y-149100000D01*
X41700000Y-155600000D02*
X41100000Y-155600000D01*
X41100000Y-155600000D02*
X41000000Y-155500000D01*
%TO.N,DDR3_DQ8*%
X39066756Y-154692478D02*
X39130165Y-154670290D01*
X54000000Y-149700000D02*
X53400000Y-150300000D01*
X39533243Y-152707522D02*
X39600000Y-152700000D01*
X39730165Y-152729710D02*
X39787046Y-152765451D01*
X54600000Y-148900000D02*
X54000000Y-149500000D01*
X52400000Y-151400000D02*
X48610000Y-155190000D01*
X41800000Y-153800000D02*
X42200000Y-154200000D01*
X48610000Y-155190000D02*
X47740000Y-155190000D01*
X39929710Y-154730165D02*
X39965451Y-154787046D01*
X39834549Y-152812954D02*
X39870290Y-152869835D01*
X40800000Y-152900000D02*
X40866756Y-152907522D01*
X40434550Y-154787046D02*
X40470291Y-154730165D01*
X40069835Y-154870290D02*
X40133244Y-154892478D01*
X55300000Y-148900000D02*
X54600000Y-148900000D01*
X41100000Y-153200000D02*
X41100000Y-153570000D01*
X39300000Y-153000000D02*
X39307521Y-152933244D01*
X41092478Y-153133244D02*
X41100000Y-153200000D01*
X40565450Y-153012954D02*
X40612953Y-152965451D01*
X39892478Y-152933244D02*
X39900000Y-153000000D01*
X40133244Y-154892478D02*
X40200000Y-154900000D01*
X41034549Y-153012954D02*
X41070290Y-153069835D01*
X41100000Y-153570000D02*
X41330000Y-153800000D01*
X39130165Y-154670290D02*
X39187046Y-154634549D01*
X39307521Y-152933244D02*
X39329709Y-152869835D01*
X40492479Y-154666756D02*
X40500000Y-154600000D01*
X40470291Y-154730165D02*
X40492479Y-154666756D01*
X38800000Y-154700000D02*
X39000000Y-154700000D01*
X53400000Y-150550000D02*
X53550000Y-150700000D01*
X39900000Y-153000000D02*
X39900000Y-154600000D01*
X40330166Y-154870290D02*
X40387047Y-154834549D01*
X41330000Y-153800000D02*
X41800000Y-153800000D01*
X45109501Y-154609501D02*
X46000000Y-155500000D01*
X56300000Y-147900000D02*
X55300000Y-148900000D01*
X39469834Y-152729710D02*
X39533243Y-152707522D01*
X53300000Y-151400000D02*
X52400000Y-151400000D01*
X40987046Y-152965451D02*
X41034549Y-153012954D01*
X53400000Y-150300000D02*
X53400000Y-150550000D01*
X41070290Y-153069835D02*
X41092478Y-153133244D01*
X40930165Y-152929710D02*
X40987046Y-152965451D01*
X39234549Y-154587046D02*
X39270290Y-154530165D01*
X47356938Y-155500000D02*
X46000000Y-155500000D01*
X40500000Y-153200000D02*
X40507521Y-153133244D01*
X40500000Y-154600000D02*
X40500000Y-153200000D01*
X39787046Y-152765451D02*
X39834549Y-152812954D01*
X40612953Y-152965451D02*
X40669834Y-152929710D01*
X53550000Y-151150000D02*
X53300000Y-151400000D01*
X40507521Y-153133244D02*
X40529709Y-153069835D01*
X47363469Y-155493469D02*
X47356938Y-155500000D01*
X40529709Y-153069835D02*
X40565450Y-153012954D01*
X39365450Y-152812954D02*
X39412953Y-152765451D01*
X39870290Y-152869835D02*
X39892478Y-152933244D01*
X40387047Y-154834549D02*
X40434550Y-154787046D01*
X40733243Y-152907522D02*
X40800000Y-152900000D01*
X40866756Y-152907522D02*
X40930165Y-152929710D01*
X40012954Y-154834549D02*
X40069835Y-154870290D01*
X39666756Y-152707522D02*
X39730165Y-152729710D01*
X54000000Y-149500000D02*
X54000000Y-149700000D01*
X39300000Y-154400000D02*
X39300000Y-153000000D01*
X39907522Y-154666756D02*
X39929710Y-154730165D01*
X39270290Y-154530165D02*
X39292478Y-154466756D01*
X42200000Y-154200000D02*
X43330499Y-154200000D01*
X43740000Y-154609501D02*
X45109501Y-154609501D01*
X40200000Y-154900000D02*
X40266757Y-154892478D01*
X39900000Y-154600000D02*
X39907522Y-154666756D01*
X53550000Y-150700000D02*
X53550000Y-151150000D01*
X40266757Y-154892478D02*
X40330166Y-154870290D01*
X47740000Y-155190000D02*
X47363469Y-155493469D01*
X39329709Y-152869835D02*
X39365450Y-152812954D01*
X43330499Y-154200000D02*
X43740000Y-154609501D01*
X39187046Y-154634549D02*
X39234549Y-154587046D01*
X39600000Y-152700000D02*
X39666756Y-152707522D01*
X39000000Y-154700000D02*
X39066756Y-154692478D01*
X39292478Y-154466756D02*
X39300000Y-154400000D01*
X39412953Y-152765451D02*
X39469834Y-152729710D01*
X40669834Y-152929710D02*
X40733243Y-152907522D01*
X39965451Y-154787046D02*
X40012954Y-154834549D01*
%TO.N,DDR3_DQ15*%
X52944369Y-148806268D02*
X53000000Y-148800000D01*
X52804542Y-148894127D02*
X52844127Y-148854542D01*
X52891529Y-148824757D02*
X52944369Y-148806268D01*
X52844127Y-148854542D02*
X52891529Y-148824757D01*
X52756268Y-148994369D02*
X52774757Y-148941529D01*
X52774757Y-148941529D02*
X52804542Y-148894127D01*
X52750000Y-149050000D02*
X52756268Y-148994369D01*
X52000000Y-148800000D02*
X52055630Y-148806268D01*
X52108470Y-148824757D02*
X52155872Y-148854542D01*
X52055630Y-148806268D02*
X52108470Y-148824757D01*
X52195457Y-148894127D02*
X52225242Y-148941529D01*
X52155872Y-148854542D02*
X52195457Y-148894127D01*
X52225242Y-148941529D02*
X52243731Y-148994369D01*
X52243731Y-148994369D02*
X52250000Y-149050000D01*
X52743731Y-149505631D02*
X52750000Y-149450000D01*
X52250000Y-149450000D02*
X52256268Y-149505631D01*
X52608470Y-149675243D02*
X52655872Y-149645458D01*
X52655872Y-149645458D02*
X52695457Y-149605873D01*
X52695457Y-149605873D02*
X52725242Y-149558471D01*
X52725242Y-149558471D02*
X52743731Y-149505631D01*
X52304542Y-149605873D02*
X52344127Y-149645458D01*
X52256268Y-149505631D02*
X52274757Y-149558471D01*
X52344127Y-149645458D02*
X52391529Y-149675243D01*
X52274757Y-149558471D02*
X52304542Y-149605873D01*
X52555630Y-149693732D02*
X52608470Y-149675243D01*
X52391529Y-149675243D02*
X52444369Y-149693732D01*
X52500000Y-149700000D02*
X52555630Y-149693732D01*
X52444369Y-149693732D02*
X52500000Y-149700000D01*
X52750000Y-149450000D02*
X52750000Y-149050000D01*
X49655872Y-149945458D02*
X49695457Y-149905873D01*
X49144318Y-150352233D02*
X49086193Y-150331894D01*
X49695457Y-149905873D02*
X49725242Y-149858471D01*
X48774757Y-148941529D02*
X48804542Y-148894127D01*
X49240003Y-150771459D02*
X49272766Y-150719318D01*
X49108470Y-148824757D02*
X49155872Y-148854542D01*
X49086193Y-150331894D02*
X48963806Y-150318105D01*
X42800000Y-153100000D02*
X45800000Y-153100000D01*
X50891529Y-148824757D02*
X50944369Y-148806268D01*
X49196459Y-150815003D02*
X49240003Y-150771459D01*
X49250000Y-149050000D02*
X49250000Y-149750000D01*
X50344127Y-149945458D02*
X50391529Y-149975243D01*
X50155872Y-148854542D02*
X50195457Y-148894127D01*
X50725242Y-149858471D02*
X50743731Y-149805631D01*
X49756268Y-148994369D02*
X49774757Y-148941529D01*
X48944369Y-148806268D02*
X49000000Y-148800000D01*
X48536194Y-151431894D02*
X48475000Y-151425000D01*
X50304542Y-149905873D02*
X50344127Y-149945458D01*
X48646460Y-151484996D02*
X48594319Y-151452233D01*
X47975000Y-151425000D02*
X47913807Y-151418105D01*
X50500000Y-150000000D02*
X50555630Y-149993732D01*
X48750000Y-149050000D02*
X48756268Y-148994369D01*
X47803541Y-151365003D02*
X47759997Y-151321459D01*
X47759997Y-150978540D02*
X47803541Y-150934996D01*
X50055630Y-148806268D02*
X50108470Y-148824757D01*
X47913807Y-151418105D02*
X47855682Y-151397766D01*
X49774757Y-148941529D02*
X49804542Y-148894127D01*
X49293105Y-150661193D02*
X49300000Y-150600000D01*
X49274757Y-149858471D02*
X49304542Y-149905873D01*
X48743106Y-151638806D02*
X48722767Y-151580681D01*
X47975000Y-150875000D02*
X49025000Y-150875000D01*
X49000000Y-148800000D02*
X49055630Y-148806268D01*
X49144318Y-150847766D02*
X49196459Y-150815003D01*
X49891529Y-148824757D02*
X49944369Y-148806268D01*
X49500000Y-150000000D02*
X49555630Y-149993732D01*
X50750000Y-149050000D02*
X50756268Y-148994369D01*
X48750000Y-150050000D02*
X48750000Y-149050000D01*
X48804542Y-148894127D02*
X48844127Y-148854542D01*
X48756894Y-150111193D02*
X48750000Y-150050000D01*
X49256268Y-149805631D02*
X49274757Y-149858471D01*
X41600000Y-151500000D02*
X41800000Y-151700000D01*
X50000000Y-148800000D02*
X50055630Y-148806268D01*
X46100000Y-152400000D02*
X46300000Y-152200000D01*
X49344127Y-149945458D02*
X49391529Y-149975243D01*
X50444369Y-149993732D02*
X50500000Y-150000000D01*
X49272766Y-150480681D02*
X49240003Y-150428540D01*
X47855682Y-151397766D02*
X47803541Y-151365003D01*
X50655872Y-149945458D02*
X50695457Y-149905873D01*
X46100000Y-152800000D02*
X46100000Y-152400000D01*
X45800000Y-153100000D02*
X46100000Y-152800000D01*
X47200000Y-152200000D02*
X47700000Y-152700000D01*
X48891529Y-148824757D02*
X48944369Y-148806268D01*
X49750000Y-149050000D02*
X49756268Y-148994369D01*
X48963806Y-150318105D02*
X48905681Y-150297766D01*
X47700000Y-151150000D02*
X47706895Y-151088806D01*
X48475000Y-151425000D02*
X47975000Y-151425000D01*
X49608470Y-149975243D02*
X49655872Y-149945458D01*
X49055630Y-148806268D02*
X49108470Y-148824757D01*
X49240003Y-150428540D02*
X49196459Y-150384996D01*
X49555630Y-149993732D02*
X49608470Y-149975243D01*
X49304542Y-149905873D02*
X49344127Y-149945458D01*
X47759997Y-151321459D02*
X47727234Y-151269318D01*
X49272766Y-150719318D02*
X49293105Y-150661193D01*
X47803541Y-150934996D02*
X47855682Y-150902233D01*
X48905681Y-150297766D02*
X48853540Y-150265003D01*
X50391529Y-149975243D02*
X50444369Y-149993732D01*
X48853540Y-150265003D02*
X48809996Y-150221459D01*
X49195457Y-148894127D02*
X49225242Y-148941529D01*
X47913807Y-150881894D02*
X47975000Y-150875000D01*
X49804542Y-148894127D02*
X49844127Y-148854542D01*
X49844127Y-148854542D02*
X49891529Y-148824757D01*
X53000000Y-148800000D02*
X53900000Y-147900000D01*
X49300000Y-150600000D02*
X49293105Y-150538806D01*
X50695457Y-149905873D02*
X50725242Y-149858471D01*
X49750000Y-149750000D02*
X49750000Y-149050000D01*
X47727234Y-151030681D02*
X47759997Y-150978540D01*
X48809996Y-150221459D02*
X48777233Y-150169318D01*
X50108470Y-148824757D02*
X50155872Y-148854542D01*
X50225242Y-148941529D02*
X50243731Y-148994369D01*
X49293105Y-150538806D02*
X49272766Y-150480681D01*
X48750000Y-152150000D02*
X48750000Y-151700000D01*
X50774757Y-148941529D02*
X50804542Y-148894127D01*
X48690004Y-151528540D02*
X48646460Y-151484996D01*
X47706895Y-151088806D02*
X47727234Y-151030681D01*
X49444369Y-149993732D02*
X49500000Y-150000000D01*
X49196459Y-150384996D02*
X49144318Y-150352233D01*
X48756268Y-148994369D02*
X48774757Y-148941529D01*
X50250000Y-149050000D02*
X50250000Y-149750000D01*
X49391529Y-149975243D02*
X49444369Y-149993732D01*
X50243731Y-148994369D02*
X50250000Y-149050000D01*
X48750000Y-151700000D02*
X48743106Y-151638806D01*
X49025000Y-150875000D02*
X49086193Y-150868105D01*
X49086193Y-150868105D02*
X49144318Y-150847766D01*
X49743731Y-149805631D02*
X49750000Y-149750000D01*
X47727234Y-151269318D02*
X47706895Y-151211193D01*
X50608470Y-149975243D02*
X50655872Y-149945458D01*
X52000000Y-148800000D02*
X51000000Y-148800000D01*
X50756268Y-148994369D02*
X50774757Y-148941529D01*
X50944369Y-148806268D02*
X51000000Y-148800000D01*
X50750000Y-149750000D02*
X50750000Y-149050000D01*
X50274757Y-149858471D02*
X50304542Y-149905873D01*
X50555630Y-149993732D02*
X50608470Y-149975243D01*
X41200000Y-151500000D02*
X41600000Y-151500000D01*
X50743731Y-149805631D02*
X50750000Y-149750000D01*
X48844127Y-148854542D02*
X48891529Y-148824757D01*
X46300000Y-152200000D02*
X47200000Y-152200000D01*
X50195457Y-148894127D02*
X50225242Y-148941529D01*
X50256268Y-149805631D02*
X50274757Y-149858471D01*
X47706895Y-151211193D02*
X47700000Y-151150000D01*
X49944369Y-148806268D02*
X50000000Y-148800000D01*
X48200000Y-152700000D02*
X48750000Y-152150000D01*
X48594319Y-151452233D02*
X48536194Y-151431894D01*
X48722767Y-151580681D02*
X48690004Y-151528540D01*
X48777233Y-150169318D02*
X48756894Y-150111193D01*
X41800000Y-151700000D02*
X41800000Y-152100000D01*
X49155872Y-148854542D02*
X49195457Y-148894127D01*
X49725242Y-149858471D02*
X49743731Y-149805631D01*
X50804542Y-148894127D02*
X50844127Y-148854542D01*
X52250000Y-149450000D02*
X52250000Y-149050000D01*
X50844127Y-148854542D02*
X50891529Y-148824757D01*
X41800000Y-152100000D02*
X42800000Y-153100000D01*
X47855682Y-150902233D02*
X47913807Y-150881894D01*
X50250000Y-149750000D02*
X50256268Y-149805631D01*
X49250000Y-149750000D02*
X49256268Y-149805631D01*
X49225242Y-148941529D02*
X49243731Y-148994369D01*
X47700000Y-152700000D02*
X48200000Y-152700000D01*
X49243731Y-148994369D02*
X49250000Y-149050000D01*
%TO.N,faddr[0]*%
X74600000Y-153900000D02*
X74600000Y-150900000D01*
X74400000Y-158300000D02*
X74400000Y-154100000D01*
X74400000Y-154100000D02*
X74600000Y-153900000D01*
X74000000Y-162200000D02*
X74400000Y-161800000D01*
X74400000Y-161800000D02*
X74400000Y-160300000D01*
X72800000Y-163400000D02*
X73200000Y-163000000D01*
X70600000Y-146900000D02*
X69300000Y-146900000D01*
X74400000Y-160300000D02*
X74750000Y-159950000D01*
X73800000Y-163000000D02*
X74000000Y-162800000D01*
X74000000Y-162800000D02*
X74000000Y-162200000D01*
X74750000Y-159950000D02*
X74750000Y-158650000D01*
X74600000Y-150900000D02*
X70600000Y-146900000D01*
X73200000Y-163000000D02*
X73800000Y-163000000D01*
X74750000Y-158650000D02*
X74400000Y-158300000D01*
%TO.N,fdata[20]*%
X74800000Y-161500000D02*
X74800000Y-163000000D01*
X69100000Y-146400000D02*
X70800000Y-146400000D01*
X70800000Y-146400000D02*
X75300000Y-150900000D01*
X68300000Y-146900000D02*
X68600000Y-146900000D01*
X74800000Y-163000000D02*
X74400000Y-163400000D01*
X75300000Y-161000000D02*
X74800000Y-161500000D01*
X75300000Y-150900000D02*
X75300000Y-161000000D01*
X68600000Y-146900000D02*
X69100000Y-146400000D01*
%TO.N,fdata[23]*%
X75600000Y-163000000D02*
X74400000Y-164200000D01*
X68500000Y-146400000D02*
X69000000Y-145900000D01*
X76300000Y-149900000D02*
X76300000Y-160600000D01*
X67800000Y-146400000D02*
X68500000Y-146400000D01*
X72100000Y-146300000D02*
X72100000Y-146700000D01*
X67300000Y-146900000D02*
X67800000Y-146400000D01*
X76300000Y-160600000D02*
X75600000Y-161300000D01*
X71700000Y-145900000D02*
X72100000Y-146300000D01*
X73300000Y-147900000D02*
X74300000Y-147900000D01*
X72100000Y-146700000D02*
X73300000Y-147900000D01*
X74300000Y-147900000D02*
X76300000Y-149900000D01*
X75600000Y-161300000D02*
X75600000Y-163000000D01*
X69000000Y-145900000D02*
X71700000Y-145900000D01*
%TO.N,DDR3_DQ12*%
X55835167Y-151361951D02*
X55923466Y-151273652D01*
X55791841Y-151414473D02*
X55833727Y-151361951D01*
X56295206Y-151231767D02*
X56347729Y-151273651D01*
X57851682Y-150478248D02*
X57893568Y-150425725D01*
X57893568Y-150106505D02*
X57851682Y-150053984D01*
X55833727Y-151361951D02*
X55835167Y-151361951D01*
X55727048Y-152600000D02*
X55975148Y-152351900D01*
X57937663Y-150232527D02*
X57922716Y-150167031D01*
X56046182Y-152040683D02*
X56017034Y-151980157D01*
X56730108Y-150477647D02*
X56771994Y-150425125D01*
X58500000Y-149400000D02*
X58800000Y-149100000D01*
X56955301Y-151043331D02*
X56913415Y-150990810D01*
X56347729Y-151273651D02*
X56489151Y-151415073D01*
X57710261Y-149488299D02*
X57711701Y-149488299D01*
X56700961Y-150736340D02*
X56686013Y-150670845D01*
X55791842Y-151733691D02*
X55762694Y-151673166D01*
X47500000Y-157800000D02*
X47600000Y-157700000D01*
X57605961Y-150564228D02*
X57673139Y-150564229D01*
X56686012Y-150603667D02*
X56700962Y-150538172D01*
X56771994Y-150849389D02*
X56730109Y-150796865D01*
X56730109Y-150796865D02*
X56700961Y-150736340D01*
X57639229Y-149601346D02*
X57668375Y-149540821D01*
X57711701Y-149488299D02*
X57800000Y-149400000D01*
X55975148Y-151927636D02*
X55833727Y-151786215D01*
X55762694Y-151673166D02*
X55747746Y-151607671D01*
X56017034Y-152299377D02*
X56046182Y-152238851D01*
X57040275Y-150250844D02*
X57107453Y-150250844D01*
X57800000Y-149400000D02*
X58500000Y-149400000D01*
X55400000Y-152600000D02*
X55727048Y-152600000D01*
X57922716Y-150365199D02*
X57937663Y-150299705D01*
X55833727Y-151786215D02*
X55791842Y-151733691D01*
X56234680Y-151202619D02*
X56295206Y-151231767D01*
X55975148Y-152351900D02*
X56017034Y-152299377D01*
X56913415Y-150990810D02*
X56771994Y-150849389D01*
X56974779Y-150265793D02*
X57040275Y-150250844D01*
X41400000Y-154300000D02*
X44900000Y-157800000D01*
X56984449Y-151103857D02*
X56955301Y-151043331D01*
X56800367Y-151486105D02*
X56860892Y-151456959D01*
X56686013Y-150670845D02*
X56686012Y-150603667D01*
X57427418Y-150478247D02*
X57479941Y-150520132D01*
X57624280Y-149734019D02*
X57624279Y-149666841D01*
X56017034Y-151980157D02*
X55975148Y-151927636D01*
X57710261Y-149912563D02*
X57668376Y-149860039D01*
X56861733Y-150336826D02*
X56914253Y-150294941D01*
X49200000Y-157700000D02*
X49400000Y-157900000D01*
X57937663Y-150299705D02*
X57937663Y-150232527D01*
X57799159Y-150520133D02*
X57851682Y-150478248D01*
X55762695Y-151474998D02*
X55791841Y-151414473D01*
X57673139Y-150564229D02*
X57738634Y-150549279D01*
X55747745Y-151540493D02*
X55762695Y-151474998D01*
X57624279Y-149666841D02*
X57639229Y-149601346D01*
X56046182Y-152238851D02*
X56061129Y-152173357D01*
X57107453Y-150250844D02*
X57172947Y-150265793D01*
X56913415Y-151415074D02*
X56955301Y-151362551D01*
X56734872Y-151501055D02*
X56800367Y-151486105D01*
X57893568Y-150425725D02*
X57922716Y-150365199D01*
X56860892Y-151456959D02*
X56913415Y-151415074D01*
X57639228Y-149799514D02*
X57624280Y-149734019D01*
X57668375Y-149540821D02*
X57710261Y-149488299D01*
X56773434Y-150425125D02*
X56861733Y-150336826D01*
X57479941Y-150520132D02*
X57540466Y-150549280D01*
X56061129Y-152106179D02*
X56046182Y-152040683D01*
X56914253Y-150294941D02*
X56974779Y-150265793D01*
X58800000Y-147400000D02*
X59300000Y-146900000D01*
X55747746Y-151607671D02*
X55747745Y-151540493D01*
X56955301Y-151362551D02*
X56984449Y-151302025D01*
X44900000Y-157800000D02*
X47500000Y-157800000D01*
X49400000Y-157900000D02*
X50100000Y-157900000D01*
X56489151Y-151415073D02*
X56541674Y-151456958D01*
X56036512Y-151202619D02*
X56102008Y-151187670D01*
X57285996Y-150336825D02*
X57427418Y-150478247D01*
X57540466Y-150549280D02*
X57605961Y-150564228D01*
X57922716Y-150167031D02*
X57893568Y-150106505D01*
X57851682Y-150053984D02*
X57710261Y-149912563D01*
X56999396Y-151169353D02*
X56984449Y-151103857D01*
X56169186Y-151187670D02*
X56234680Y-151202619D01*
X55923466Y-151273652D02*
X55975986Y-151231767D01*
X55975986Y-151231767D02*
X56036512Y-151202619D01*
X56771994Y-150425125D02*
X56773434Y-150425125D01*
X56667694Y-151501054D02*
X56734872Y-151501055D01*
X50100000Y-157900000D02*
X55400000Y-152600000D01*
X56984449Y-151302025D02*
X56999396Y-151236531D01*
X56541674Y-151456958D02*
X56602199Y-151486106D01*
X58800000Y-149100000D02*
X58800000Y-147400000D01*
X56999396Y-151236531D02*
X56999396Y-151169353D01*
X57738634Y-150549279D02*
X57799159Y-150520133D01*
X56602199Y-151486106D02*
X56667694Y-151501054D01*
X57172947Y-150265793D02*
X57233473Y-150294941D01*
X47600000Y-157700000D02*
X49200000Y-157700000D01*
X57233473Y-150294941D02*
X57285996Y-150336825D01*
X56700962Y-150538172D02*
X56730108Y-150477647D01*
X57668376Y-149860039D02*
X57639228Y-149799514D01*
X56102008Y-151187670D02*
X56169186Y-151187670D01*
X56061129Y-152173357D02*
X56061129Y-152106179D01*
%TO.N,DDR3_DQ11*%
X56100000Y-147400000D02*
X55600000Y-147900000D01*
X47255496Y-149974985D02*
X47300000Y-149980000D01*
X42869090Y-150431199D02*
X42827205Y-150378676D01*
X48080194Y-150093223D02*
X48094986Y-150135495D01*
X48080194Y-149293223D02*
X48094986Y-149335495D01*
X44800000Y-152500000D02*
X44100000Y-152500000D01*
X52700000Y-148400000D02*
X52300000Y-148400000D01*
X42774682Y-150336790D02*
X42714156Y-150307643D01*
X43337451Y-151830013D02*
X43322503Y-151764520D01*
X42648662Y-150292694D02*
X42581483Y-150292694D01*
X42515989Y-150307643D02*
X42455463Y-150336790D01*
X47105015Y-150535495D02*
X47100000Y-150580000D01*
X46100000Y-151200000D02*
X44800000Y-152500000D01*
X48024698Y-149536366D02*
X47986777Y-149560193D01*
X47143634Y-149655302D02*
X47119807Y-149693223D01*
X47355496Y-148785014D02*
X47313224Y-148799806D01*
X43854278Y-152414018D02*
X43788785Y-152428968D01*
X48024698Y-150336366D02*
X47986777Y-150360193D01*
X42402942Y-151227207D02*
X42827205Y-150802940D01*
X46944319Y-151177766D02*
X46886194Y-151198105D01*
X47200000Y-148980000D02*
X47205015Y-149024504D01*
X54700000Y-147900000D02*
X54300000Y-147500000D01*
X43303993Y-152541885D02*
X43251470Y-152500000D01*
X43005749Y-151565489D02*
X42940256Y-151580439D01*
X51900000Y-148000000D02*
X51300000Y-148000000D01*
X46884299Y-151200000D02*
X46100000Y-151200000D01*
X43728258Y-152458114D02*
X43675736Y-152500001D01*
X55600000Y-147900000D02*
X54700000Y-147900000D01*
X48094986Y-149335495D02*
X48100000Y-149380000D01*
X47100000Y-150930000D02*
X47093106Y-150991193D01*
X43251471Y-151651471D02*
X43198949Y-151609586D01*
X51001895Y-148298105D02*
X48601895Y-148298105D01*
X42898237Y-150491725D02*
X42869090Y-150431199D01*
X47219807Y-148893223D02*
X47205015Y-148935495D01*
X42455464Y-151693356D02*
X42402941Y-151651471D01*
X42515991Y-151722504D02*
X42455464Y-151693356D01*
X48100000Y-150180000D02*
X48094986Y-150224504D01*
X43322502Y-151962686D02*
X43337452Y-151897193D01*
X47313224Y-148799806D02*
X47275303Y-148823633D01*
X48056367Y-150304697D02*
X48024698Y-150336366D01*
X42714157Y-151722503D02*
X42648664Y-151737453D01*
X47243634Y-149104697D02*
X47275303Y-149136366D01*
X57500000Y-147400000D02*
X57100000Y-147400000D01*
X47213224Y-150399806D02*
X47175303Y-150423633D01*
X42913186Y-150624398D02*
X42913186Y-150557219D01*
X43165488Y-152254278D02*
X43180438Y-152188785D01*
X47093106Y-150991193D02*
X47072767Y-151049318D01*
X57100000Y-147400000D02*
X56900000Y-147200000D01*
X47175303Y-150423633D02*
X47143634Y-150455302D01*
X47944505Y-149574985D02*
X47900000Y-149580000D01*
X42581484Y-151737452D02*
X42515991Y-151722504D01*
X43209585Y-152447478D02*
X43180437Y-152386951D01*
X42827205Y-150378676D02*
X42774682Y-150336790D01*
X47944505Y-149985014D02*
X47986777Y-149999806D01*
X48094986Y-150224504D02*
X48080194Y-150266776D01*
X42648664Y-151737453D02*
X42581484Y-151737452D01*
X43180438Y-152188785D02*
X43209584Y-152128258D01*
X43986951Y-152428967D02*
X43921458Y-152414019D01*
X47255496Y-150385014D02*
X47213224Y-150399806D01*
X42316960Y-151472929D02*
X42316959Y-151405749D01*
X47100000Y-150580000D02*
X47100000Y-150930000D01*
X48056367Y-149504697D02*
X48024698Y-149536366D01*
X47986777Y-149560193D02*
X47944505Y-149574985D01*
X47355496Y-149174985D02*
X47400000Y-149180000D01*
X48094986Y-150135495D02*
X48100000Y-150180000D01*
X42455463Y-150336790D02*
X42350417Y-150420561D01*
X43180437Y-152386951D02*
X43165489Y-152321458D01*
X47205015Y-149024504D02*
X47219807Y-149066776D01*
X43072929Y-151565490D02*
X43005749Y-151565489D01*
X42581483Y-150292694D02*
X42515989Y-150307643D01*
X47243634Y-148855302D02*
X47219807Y-148893223D01*
X47900000Y-150380000D02*
X47300000Y-150380000D01*
X42774684Y-151693357D02*
X42714157Y-151722503D01*
X57700000Y-147600000D02*
X57500000Y-147400000D01*
X47213224Y-149599806D02*
X47175303Y-149623633D01*
X44100000Y-152500000D02*
X44047478Y-152458115D01*
X47400000Y-149180000D02*
X47900000Y-149180000D01*
X47300000Y-149580000D02*
X47255496Y-149585014D01*
X42361055Y-151279729D02*
X42402942Y-151227207D01*
X47143634Y-149904697D02*
X47175303Y-149936366D01*
X46996460Y-151145003D02*
X46944319Y-151177766D01*
X47944505Y-149185014D02*
X47986777Y-149199806D01*
X48080194Y-150266776D02*
X48056367Y-150304697D01*
X47300000Y-149980000D02*
X47900000Y-149980000D01*
X48024698Y-149223633D02*
X48056367Y-149255302D01*
X47275303Y-148823633D02*
X47243634Y-148855302D01*
X47040004Y-151101459D02*
X46996460Y-151145003D01*
X43337452Y-151897193D02*
X43337451Y-151830013D01*
X48080194Y-149466776D02*
X48056367Y-149504697D01*
X43138422Y-151580438D02*
X43072929Y-151565490D01*
X56500000Y-147400000D02*
X56100000Y-147400000D01*
X43251470Y-152500000D02*
X43209585Y-152447478D01*
X47900000Y-149980000D02*
X47944505Y-149985014D01*
X47119807Y-149693223D02*
X47105015Y-149735495D01*
X47255496Y-149585014D02*
X47213224Y-149599806D01*
X42827205Y-150802940D02*
X42869090Y-150750418D01*
X43675736Y-152500001D02*
X43623213Y-152541886D01*
X43322503Y-151764520D02*
X43293355Y-151703993D01*
X43921458Y-152414019D02*
X43854278Y-152414018D01*
X46886194Y-151198105D02*
X46884299Y-151200000D01*
X43293355Y-151703993D02*
X43251471Y-151651471D01*
X42070978Y-150700000D02*
X41400000Y-150700000D01*
X47986777Y-149999806D02*
X48024698Y-150023633D01*
X56700000Y-147200000D02*
X56500000Y-147400000D01*
X47986777Y-149199806D02*
X48024698Y-149223633D01*
X47105015Y-149735495D02*
X47100000Y-149780000D01*
X42879729Y-151609585D02*
X42827207Y-151651472D01*
X47900000Y-149180000D02*
X47944505Y-149185014D01*
X42714156Y-150307643D02*
X42648662Y-150292694D01*
X42331909Y-151340256D02*
X42361055Y-151279729D01*
X47275303Y-149136366D02*
X47313224Y-149160193D01*
X42869090Y-150750418D02*
X42898237Y-150689892D01*
X43251471Y-152075736D02*
X43293356Y-152023213D01*
X54300000Y-147500000D02*
X53600000Y-147500000D01*
X48100000Y-149380000D02*
X48094986Y-149424504D01*
X47205015Y-148935495D02*
X47200000Y-148980000D01*
X42913186Y-150557219D02*
X42898237Y-150491725D01*
X52300000Y-148400000D02*
X51900000Y-148000000D01*
X43497193Y-152585982D02*
X43430013Y-152585981D01*
X42827207Y-151651472D02*
X42774684Y-151693357D01*
X47143634Y-150455302D02*
X47119807Y-150493223D01*
X47300000Y-150380000D02*
X47255496Y-150385014D01*
X48120000Y-148780000D02*
X47400000Y-148780000D01*
X47313224Y-149160193D02*
X47355496Y-149174985D01*
X47100000Y-149780000D02*
X47105015Y-149824504D01*
X42898237Y-150689892D02*
X42913186Y-150624398D01*
X43198949Y-151609586D02*
X43138422Y-151580438D01*
X42402941Y-151651471D02*
X42361056Y-151598949D01*
X48056367Y-150055302D02*
X48080194Y-150093223D01*
X43209584Y-152128258D02*
X43251471Y-152075736D01*
X43788785Y-152428968D02*
X43728258Y-152458114D01*
X48601895Y-148298105D02*
X48120000Y-148780000D01*
X47986777Y-150360193D02*
X47944505Y-150374985D01*
X47900000Y-149580000D02*
X47300000Y-149580000D01*
X43430013Y-152585981D02*
X43364520Y-152571033D01*
X51300000Y-148000000D02*
X51001895Y-148298105D01*
X47119807Y-150493223D02*
X47105015Y-150535495D01*
X43562686Y-152571032D02*
X43497193Y-152585982D01*
X42350417Y-150420561D02*
X42070978Y-150700000D01*
X47213224Y-149960193D02*
X47255496Y-149974985D01*
X53600000Y-147500000D02*
X52700000Y-148400000D01*
X43623213Y-152541886D02*
X43562686Y-152571032D01*
X42316959Y-151405749D02*
X42331909Y-151340256D01*
X56900000Y-147200000D02*
X56700000Y-147200000D01*
X58000000Y-147600000D02*
X57700000Y-147600000D01*
X48056367Y-149255302D02*
X48080194Y-149293223D01*
X48094986Y-149424504D02*
X48080194Y-149466776D01*
X47400000Y-148780000D02*
X47355496Y-148785014D01*
X43293356Y-152023213D02*
X43322502Y-151962686D01*
X58300000Y-147300000D02*
X58000000Y-147600000D01*
X43165489Y-152321458D02*
X43165488Y-152254278D01*
X47219807Y-149066776D02*
X47243634Y-149104697D01*
X47072767Y-151049318D02*
X47040004Y-151101459D01*
X42361056Y-151598949D02*
X42331908Y-151538422D01*
X48024698Y-150023633D02*
X48056367Y-150055302D01*
X47105015Y-149824504D02*
X47119807Y-149866776D01*
X58300000Y-146900000D02*
X58300000Y-147300000D01*
X42331908Y-151538422D02*
X42316960Y-151472929D01*
X47175303Y-149623633D02*
X47143634Y-149655302D01*
X47944505Y-150374985D02*
X47900000Y-150380000D01*
X47175303Y-149936366D02*
X47213224Y-149960193D01*
X43364520Y-152571033D02*
X43303993Y-152541885D01*
X47119807Y-149866776D02*
X47143634Y-149904697D01*
X44047478Y-152458115D02*
X43986951Y-152428967D01*
X42940256Y-151580439D02*
X42879729Y-151609585D01*
%TO.N,DDR3_DQS0_N*%
X56134049Y-145765052D02*
X56105229Y-145783161D01*
X44880051Y-150772999D02*
X44423001Y-150772999D01*
X46606585Y-145863260D02*
X46577658Y-145860000D01*
X56716811Y-146561235D02*
X56617635Y-146526532D01*
X56048000Y-146018229D02*
X55703726Y-146362503D01*
X45391177Y-149301810D02*
X45359050Y-149313052D01*
X47056353Y-146561756D02*
X46961558Y-146528586D01*
X45552072Y-146519100D02*
X45518902Y-146424305D01*
X44165052Y-148215950D02*
X44183161Y-148244770D01*
X45731189Y-148313764D02*
X45830365Y-148348467D01*
X45306162Y-149355229D02*
X45288053Y-149384049D01*
X46098962Y-146761756D02*
X45999162Y-146773000D01*
X45458711Y-145888362D02*
X45434062Y-145872875D01*
X46961558Y-146528586D02*
X46876521Y-146475153D01*
X45425000Y-149298000D02*
X45391177Y-149301810D01*
X56200000Y-145750000D02*
X56166176Y-145753810D01*
X45359050Y-149313052D02*
X45330230Y-149331161D01*
X45273000Y-150380050D02*
X44880051Y-150772999D01*
X45434062Y-145872875D02*
X45406585Y-145863260D01*
X56294770Y-145783161D02*
X56265950Y-145765052D01*
X45406585Y-145863260D02*
X45377658Y-145860000D01*
X57300000Y-146900000D02*
X56972999Y-146572999D01*
X46278794Y-146675153D02*
X46193757Y-146728586D01*
X46450917Y-145961073D02*
X46447658Y-145990000D01*
X45288053Y-149384049D02*
X45276811Y-149416176D01*
X56051810Y-145868176D02*
X56048000Y-145902000D01*
X45260532Y-145933596D02*
X45250917Y-145961073D01*
X56063052Y-145836049D02*
X56051810Y-145868176D01*
X44183161Y-148244770D02*
X44207229Y-148268838D01*
X44268176Y-148001810D02*
X44236049Y-148013052D01*
X45993631Y-148478667D02*
X46049533Y-148567635D01*
X44207229Y-148268838D02*
X44236049Y-148286947D01*
X44153810Y-148183823D02*
X44165052Y-148215950D01*
X56336947Y-145836049D02*
X56318838Y-145807229D01*
X46718902Y-146224305D02*
X46707658Y-146124505D01*
X45504398Y-145961073D02*
X45494783Y-145933596D01*
X44236049Y-148013052D02*
X44207229Y-148031161D01*
X46460532Y-145933596D02*
X46450917Y-145961073D01*
X56081161Y-145807229D02*
X56063052Y-145836049D01*
X49332816Y-146473000D02*
X49232816Y-146373000D01*
X46447658Y-146324505D02*
X46447658Y-145990000D01*
X47803532Y-146373000D02*
X47603532Y-146573000D01*
X44207229Y-148031161D02*
X44183161Y-148055229D01*
X45321253Y-145872875D02*
X45296604Y-145888362D01*
X45479296Y-145908947D02*
X45458711Y-145888362D01*
X56166176Y-145753810D02*
X56134049Y-145765052D01*
X45377658Y-145860000D02*
X45348730Y-145863260D01*
X56528667Y-146470630D02*
X56454369Y-146396332D01*
X45993631Y-149121332D02*
X45919333Y-149195630D01*
X46704398Y-145961073D02*
X46694783Y-145933596D01*
X46805505Y-146404137D02*
X46752072Y-146319100D01*
X45626777Y-149298000D02*
X45425000Y-149298000D01*
X45919333Y-149195630D02*
X45830365Y-149251532D01*
X50782155Y-146362503D02*
X50671658Y-146473000D01*
X44165052Y-148084049D02*
X44153810Y-148116176D01*
X46447658Y-146324505D02*
X46436413Y-146424305D01*
X46349810Y-146604137D02*
X46278794Y-146675153D01*
X46403243Y-146519100D02*
X46349810Y-146604137D01*
X45605505Y-146604137D02*
X45552072Y-146519100D01*
X45276019Y-145908947D02*
X45260532Y-145933596D01*
X56454369Y-146396332D02*
X56398467Y-146307364D01*
X46577658Y-145860000D02*
X46548730Y-145863260D01*
X44774703Y-148001810D02*
X44268176Y-148001810D01*
X50671658Y-146473000D02*
X49332816Y-146473000D01*
X46436413Y-146424305D02*
X46403243Y-146519100D01*
X46096000Y-148771223D02*
X46096000Y-148828776D01*
X45330230Y-149331161D02*
X45306162Y-149355229D01*
X56233823Y-145753810D02*
X56200000Y-145750000D01*
X46694783Y-145933596D02*
X46679296Y-145908947D01*
X56352000Y-146103776D02*
X56352000Y-145902000D01*
X46049533Y-149032364D02*
X45993631Y-149121332D01*
X45518902Y-146424305D02*
X45507658Y-146324505D01*
X44268176Y-148298189D02*
X44302000Y-148302000D01*
X45856353Y-146761756D02*
X45761558Y-146728586D01*
X56348189Y-145868176D02*
X56336947Y-145836049D01*
X46658711Y-145888362D02*
X46634062Y-145872875D01*
X45276811Y-149416176D02*
X45273000Y-149450000D01*
X46707658Y-145990000D02*
X46704398Y-145961073D01*
X46476019Y-145908947D02*
X46460532Y-145933596D01*
X45626777Y-148302000D02*
X45731189Y-148313764D01*
X45999162Y-146773000D02*
X45956153Y-146773000D01*
X45919333Y-148404369D02*
X45993631Y-148478667D01*
X56972999Y-146572999D02*
X56821223Y-146573000D01*
X56398467Y-146307364D02*
X56363764Y-146208188D01*
X56363764Y-146208188D02*
X56352000Y-146103776D01*
X46634062Y-145872875D02*
X46606585Y-145863260D01*
X45296604Y-145888362D02*
X45276019Y-145908947D01*
X46496604Y-145888362D02*
X46476019Y-145908947D01*
X44183161Y-148055229D02*
X44165052Y-148084049D01*
X45250917Y-145961073D02*
X45247658Y-145990000D01*
X46084236Y-148666811D02*
X46096000Y-148771223D01*
X55703726Y-146362503D02*
X50782155Y-146362503D01*
X56105229Y-145783161D02*
X56081161Y-145807229D01*
X45830365Y-148348467D02*
X45919333Y-148404369D01*
X46049533Y-148567635D02*
X46084236Y-148666811D01*
X47156153Y-146573000D02*
X47056353Y-146561756D01*
X45761558Y-146728586D02*
X45676521Y-146675153D01*
X49232816Y-146373000D02*
X47803532Y-146373000D01*
X46096000Y-148828776D02*
X46084236Y-148933188D01*
X46548730Y-145863260D02*
X46521253Y-145872875D01*
X45731189Y-149286235D02*
X45626777Y-149298000D01*
X44423001Y-150772999D02*
X44300000Y-150896000D01*
X46084236Y-148933188D02*
X46049533Y-149032364D01*
X45507658Y-146324505D02*
X45507658Y-145990000D01*
X56352000Y-145902000D02*
X56348189Y-145868176D01*
X56617635Y-146526532D02*
X56528667Y-146470630D01*
X56048000Y-145902000D02*
X56048000Y-146018229D01*
X45956153Y-146773000D02*
X45856353Y-146761756D01*
X44150000Y-148150000D02*
X44153810Y-148183823D01*
X46876521Y-146475153D02*
X46805505Y-146404137D01*
X44236049Y-148286947D02*
X44268176Y-148298189D01*
X56265950Y-145765052D02*
X56233823Y-145753810D01*
X46679296Y-145908947D02*
X46658711Y-145888362D01*
X45494783Y-145933596D02*
X45479296Y-145908947D01*
X56318838Y-145807229D02*
X56294770Y-145783161D01*
X46521253Y-145872875D02*
X46496604Y-145888362D01*
X46752072Y-146319100D02*
X46718902Y-146224305D01*
X45247658Y-147528855D02*
X44774703Y-148001810D01*
X44302000Y-148302000D02*
X45626777Y-148302000D01*
X46707658Y-146124505D02*
X46707658Y-145990000D01*
X45247658Y-145990000D02*
X45247658Y-147528855D01*
X56821223Y-146573000D02*
X56716811Y-146561235D01*
X47603532Y-146573000D02*
X47156153Y-146573000D01*
X46193757Y-146728586D02*
X46098962Y-146761756D01*
X45273000Y-149450000D02*
X45273000Y-150380050D01*
X45348730Y-145863260D02*
X45321253Y-145872875D01*
X45507658Y-145990000D02*
X45504398Y-145961073D01*
X45830365Y-149251532D02*
X45731189Y-149286235D01*
X44153810Y-148116176D02*
X44150000Y-148150000D01*
X45676521Y-146675153D02*
X45605505Y-146604137D01*
%TO.N,DDR3_DQ13*%
X48725242Y-147758470D02*
X48743731Y-147705630D01*
X48655872Y-147845457D02*
X48695457Y-147805872D01*
X49444369Y-147793731D02*
X49500000Y-147800000D01*
X50055630Y-147106268D02*
X50108470Y-147124757D01*
X42600000Y-149500000D02*
X42606650Y-149500000D01*
X42780563Y-149308470D02*
X42799052Y-149255630D01*
X46743731Y-147605630D02*
X46743731Y-149239981D01*
X43199448Y-149504542D02*
X43159863Y-149544127D01*
X48743731Y-147705630D02*
X48750000Y-147650000D01*
X43605320Y-151005320D02*
X44000000Y-151400000D01*
X50344127Y-147745457D02*
X50391529Y-147775242D01*
X43111588Y-149855630D02*
X43130077Y-149908470D01*
X48844127Y-147154542D02*
X48891529Y-147124757D01*
X43159862Y-149955872D02*
X43199447Y-149995457D01*
X46844127Y-147354542D02*
X46891529Y-147324757D01*
X50243731Y-147294369D02*
X50250000Y-147350000D01*
X43605320Y-150300000D02*
X43605320Y-151005320D01*
X49608470Y-147775242D02*
X49655872Y-147745457D01*
X44000000Y-151400000D02*
X45100000Y-151400000D01*
X49891529Y-147124757D02*
X49944369Y-147106268D01*
X51000000Y-147200000D02*
X52000000Y-147200000D01*
X43599052Y-149255630D02*
X43580563Y-149308470D01*
X43410951Y-148956268D02*
X43463791Y-148974757D01*
X47695457Y-148205872D02*
X47725242Y-148158470D01*
X46445457Y-150655873D02*
X46475242Y-150608471D01*
X48155872Y-147154542D02*
X48195457Y-147194127D01*
X50391529Y-147775242D02*
X50444369Y-147793731D01*
X49225242Y-147241529D02*
X49243731Y-147294369D01*
X55506400Y-147400000D02*
X56003200Y-146903200D01*
X46094369Y-150243732D02*
X46041529Y-150225243D01*
X47655872Y-148245457D02*
X47695457Y-148205872D01*
X43511193Y-149004542D02*
X43550778Y-149044127D01*
X46305630Y-150743732D02*
X46358470Y-150725243D01*
X48274757Y-147758470D02*
X48304542Y-147805872D01*
X47804542Y-147194127D02*
X47844127Y-147154542D01*
X47743731Y-148105630D02*
X47743731Y-147405630D01*
X43463791Y-149425242D02*
X43410951Y-149443731D01*
X48750000Y-147650000D02*
X48750000Y-147350000D01*
X43410951Y-150056268D02*
X43463791Y-150074757D01*
X49774757Y-147241529D02*
X49804542Y-147194127D01*
X48774757Y-147241529D02*
X48804542Y-147194127D01*
X48804542Y-147194127D02*
X48844127Y-147154542D01*
X50555630Y-147793731D02*
X50608470Y-147775242D01*
X47225242Y-147441529D02*
X47243731Y-147494369D01*
X46804542Y-147394127D02*
X46844127Y-147354542D01*
X46891529Y-147324757D02*
X46944369Y-147306268D01*
X49756268Y-147294369D02*
X49774757Y-147241529D01*
X50500000Y-147800000D02*
X50555630Y-147793731D01*
X43550778Y-150144127D02*
X43580563Y-150191529D01*
X46041529Y-149774758D02*
X46094369Y-149756269D01*
X48555630Y-147893731D02*
X48608470Y-147875242D01*
X49055630Y-147106268D02*
X49108470Y-147124757D01*
X48304542Y-147805872D02*
X48344127Y-147845457D01*
X46493731Y-150555631D02*
X46500000Y-150500000D01*
X47391529Y-148275242D02*
X47444369Y-148293731D01*
X43580563Y-150191529D02*
X43599052Y-150244369D01*
X47155872Y-147354542D02*
X47195457Y-147394127D01*
X46358470Y-150274758D02*
X46305630Y-150256269D01*
X45994127Y-149804543D02*
X46041529Y-149774758D01*
X48608470Y-147875242D02*
X48655872Y-147845457D01*
X42750778Y-149355872D02*
X42780563Y-149308470D01*
X43159863Y-149544127D02*
X43130078Y-149591529D01*
X45900000Y-150000000D02*
X45906268Y-149944370D01*
X49256268Y-147605630D02*
X49274757Y-147658470D01*
X43463791Y-150074757D02*
X43511193Y-150104542D01*
X48756268Y-147294369D02*
X48774757Y-147241529D01*
X49500000Y-147800000D02*
X49555630Y-147793731D01*
X48243731Y-147294369D02*
X48250000Y-147350000D01*
X46445457Y-150344128D02*
X46405872Y-150304543D01*
X50304542Y-147705872D02*
X50344127Y-147745457D01*
X52300000Y-147500000D02*
X52800000Y-147500000D01*
X48195457Y-147194127D02*
X48225242Y-147241529D01*
X50774757Y-147341529D02*
X50804542Y-147294127D01*
X46558470Y-149725243D02*
X46605872Y-149695458D01*
X47891529Y-147124757D02*
X47944369Y-147106268D01*
X50256268Y-147605630D02*
X50274757Y-147658470D01*
X45924757Y-149891530D02*
X45954542Y-149844128D01*
X42606650Y-149500000D02*
X42750778Y-149355872D01*
X47756268Y-147294369D02*
X47774757Y-147241529D01*
X50725242Y-147658470D02*
X50743731Y-147605630D01*
X45100000Y-151400000D02*
X45750000Y-150750000D01*
X42999690Y-148956268D02*
X43055320Y-148950000D01*
X45954542Y-149844128D02*
X45994127Y-149804543D01*
X50750000Y-147550000D02*
X50750000Y-147450000D01*
X47555630Y-148293731D02*
X47608470Y-148275242D01*
X49655872Y-147745457D02*
X49695457Y-147705872D01*
X47195457Y-147394127D02*
X47225242Y-147441529D01*
X46250000Y-150750000D02*
X46305630Y-150743732D01*
X49274757Y-147658470D02*
X49304542Y-147705872D01*
X43580563Y-149308470D02*
X43550778Y-149355872D01*
X46358470Y-150725243D02*
X46405872Y-150695458D01*
X43511193Y-149395457D02*
X43463791Y-149425242D01*
X47108470Y-147324757D02*
X47155872Y-147354542D01*
X50250000Y-147550000D02*
X50256268Y-147605630D01*
X42899448Y-149004542D02*
X42946850Y-148974757D01*
X46305630Y-150256269D02*
X46250000Y-150250000D01*
X46475242Y-150391530D02*
X46445457Y-150344128D01*
X49304542Y-147705872D02*
X49344127Y-147745457D01*
X46700000Y-149283712D02*
X46700000Y-149500000D01*
X46774757Y-147441529D02*
X46804542Y-147394127D01*
X47274757Y-148158470D02*
X47304542Y-148205872D01*
X49725242Y-147658470D02*
X49743731Y-147605630D01*
X55000000Y-147400000D02*
X55506400Y-147400000D01*
X49344127Y-147745457D02*
X49391529Y-147775242D01*
X46605872Y-149695458D02*
X46645457Y-149655873D01*
X43550778Y-149355872D02*
X43511193Y-149395457D01*
X46944369Y-147306268D02*
X47000000Y-147300000D01*
X43410951Y-149443731D02*
X43299690Y-149456268D01*
X43246849Y-150025242D02*
X43299689Y-150043731D01*
X47243731Y-147494369D02*
X47256268Y-147605630D01*
X42859863Y-149044127D02*
X42899448Y-149004542D01*
X50108470Y-147124757D02*
X50155872Y-147154542D01*
X45954542Y-150155873D02*
X45924757Y-150108471D01*
X47844127Y-147154542D02*
X47891529Y-147124757D01*
X50444369Y-147793731D02*
X50500000Y-147800000D01*
X48500000Y-147900000D02*
X48555630Y-147893731D01*
X50608470Y-147775242D02*
X50655872Y-147745457D01*
X46450000Y-149750000D02*
X46505630Y-149743732D01*
X48750000Y-147350000D02*
X48756268Y-147294369D01*
X43599052Y-150244369D02*
X43605320Y-150300000D01*
X46150000Y-149750000D02*
X46450000Y-149750000D01*
X46475242Y-150608471D02*
X46493731Y-150555631D01*
X46250000Y-150250000D02*
X46150000Y-150250000D01*
X43130077Y-149908470D02*
X43159862Y-149955872D01*
X43605320Y-149200000D02*
X43599052Y-149255630D01*
X48344127Y-147845457D02*
X48391529Y-147875242D01*
X50155872Y-147154542D02*
X50195457Y-147194127D01*
X43355320Y-148950000D02*
X43410951Y-148956268D01*
X46756268Y-147494369D02*
X46774757Y-147441529D01*
X45924757Y-150108471D02*
X45906268Y-150055631D01*
X50655872Y-147745457D02*
X50695457Y-147705872D01*
X50750000Y-147450000D02*
X50756268Y-147394369D01*
X50743731Y-147605630D02*
X50750000Y-147550000D01*
X46675242Y-149608471D02*
X46693731Y-149555631D01*
X49804542Y-147194127D02*
X49844127Y-147154542D01*
X50274757Y-147658470D02*
X50304542Y-147705872D01*
X49555630Y-147793731D02*
X49608470Y-147775242D01*
X50891529Y-147224757D02*
X50944369Y-147206268D01*
X46743731Y-147605630D02*
X46756268Y-147494369D01*
X47608470Y-148275242D02*
X47655872Y-148245457D01*
X47944369Y-147106268D02*
X48000000Y-147100000D01*
X46094369Y-149756269D02*
X46150000Y-149750000D01*
X48695457Y-147805872D02*
X48725242Y-147758470D01*
X45906268Y-150055631D02*
X45900000Y-150000000D01*
X52800000Y-147500000D02*
X53200000Y-147100000D01*
X46693731Y-149555631D02*
X46700000Y-149500000D01*
X42811589Y-149144369D02*
X42830078Y-149091529D01*
X49250000Y-147350000D02*
X49250000Y-147550000D01*
X50804542Y-147294127D02*
X50844127Y-147254542D01*
X43130078Y-149591529D02*
X43111589Y-149644369D01*
X43105320Y-149800000D02*
X43111588Y-149855630D01*
X46645457Y-149655873D02*
X46675242Y-149608471D01*
X46041529Y-150225243D02*
X45994127Y-150195458D01*
X43105320Y-149700000D02*
X43105320Y-149800000D01*
X48444369Y-147893731D02*
X48500000Y-147900000D01*
X48108470Y-147124757D02*
X48155872Y-147154542D01*
X53200000Y-147100000D02*
X54700000Y-147100000D01*
X49743731Y-147605630D02*
X49750000Y-147550000D01*
X45906268Y-149944370D02*
X45924757Y-149891530D01*
X47256268Y-147605630D02*
X47256268Y-148105630D01*
X48944369Y-147106268D02*
X49000000Y-147100000D01*
X54700000Y-147100000D02*
X55000000Y-147400000D01*
X45994127Y-150195458D02*
X45954542Y-150155873D01*
X49750000Y-147550000D02*
X49750000Y-147350000D01*
X47000000Y-147300000D02*
X47055630Y-147306268D01*
X56003200Y-146903200D02*
X56300000Y-146903200D01*
X49155872Y-147154542D02*
X49195457Y-147194127D01*
X49243731Y-147294369D02*
X49250000Y-147350000D01*
X43511193Y-150104542D02*
X43550778Y-150144127D01*
X43599052Y-149144369D02*
X43605320Y-149200000D01*
X50944369Y-147206268D02*
X51000000Y-147200000D01*
X47725242Y-148158470D02*
X47743731Y-148105630D01*
X46493731Y-150444370D02*
X46475242Y-150391530D01*
X47256268Y-148105630D02*
X47274757Y-148158470D01*
X48250000Y-147650000D02*
X48256268Y-147705630D01*
X48391529Y-147875242D02*
X48444369Y-147893731D01*
X49391529Y-147775242D02*
X49444369Y-147793731D01*
X43299689Y-150043731D02*
X43410951Y-150056268D01*
X50195457Y-147194127D02*
X50225242Y-147241529D01*
X49000000Y-147100000D02*
X49055630Y-147106268D01*
X50756268Y-147394369D02*
X50774757Y-147341529D01*
X49108470Y-147124757D02*
X49155872Y-147154542D01*
X49250000Y-147550000D02*
X49256268Y-147605630D01*
X47743731Y-147405630D02*
X47756268Y-147294369D01*
X50695457Y-147705872D02*
X50725242Y-147658470D01*
X47344127Y-148245457D02*
X47391529Y-148275242D01*
X47444369Y-148293731D02*
X47500000Y-148300000D01*
X50250000Y-147350000D02*
X50250000Y-147550000D01*
X43550778Y-149044127D02*
X43580563Y-149091529D01*
X43055320Y-148950000D02*
X43355320Y-148950000D01*
X43299690Y-149456268D02*
X43246850Y-149474757D01*
X47304542Y-148205872D02*
X47344127Y-148245457D01*
X50844127Y-147254542D02*
X50891529Y-147224757D01*
X43111589Y-149644369D02*
X43105320Y-149700000D01*
X48250000Y-147350000D02*
X48250000Y-147650000D01*
X49944369Y-147106268D02*
X50000000Y-147100000D01*
X50225242Y-147241529D02*
X50243731Y-147294369D01*
X48256268Y-147705630D02*
X48274757Y-147758470D01*
X46405872Y-150304543D02*
X46358470Y-150274758D01*
X43246850Y-149474757D02*
X43199448Y-149504542D01*
X48055630Y-147106268D02*
X48108470Y-147124757D01*
X42799052Y-149255630D02*
X42811589Y-149144369D01*
X43199447Y-149995457D02*
X43246849Y-150025242D01*
X47500000Y-148300000D02*
X47555630Y-148293731D01*
X52000000Y-147200000D02*
X52300000Y-147500000D01*
X48225242Y-147241529D02*
X48243731Y-147294369D01*
X46743731Y-149239981D02*
X46700000Y-149283712D01*
X48000000Y-147100000D02*
X48055630Y-147106268D01*
X43580563Y-149091529D02*
X43599052Y-149144369D01*
X50000000Y-147100000D02*
X50055630Y-147106268D01*
X48891529Y-147124757D02*
X48944369Y-147106268D01*
X43463791Y-148974757D02*
X43511193Y-149004542D01*
X46505630Y-149743732D02*
X46558470Y-149725243D01*
X46150000Y-150250000D02*
X46094369Y-150243732D01*
X47055630Y-147306268D02*
X47108470Y-147324757D01*
X49195457Y-147194127D02*
X49225242Y-147241529D01*
X45750000Y-150750000D02*
X46250000Y-150750000D01*
X42830078Y-149091529D02*
X42859863Y-149044127D01*
X42200000Y-149900000D02*
X42600000Y-149500000D01*
X46500000Y-150500000D02*
X46493731Y-150444370D01*
X47774757Y-147241529D02*
X47804542Y-147194127D01*
X49844127Y-147154542D02*
X49891529Y-147124757D01*
X49695457Y-147705872D02*
X49725242Y-147658470D01*
X49750000Y-147350000D02*
X49756268Y-147294369D01*
X46405872Y-150695458D02*
X46445457Y-150655873D01*
X42946850Y-148974757D02*
X42999690Y-148956268D01*
%TO.N,DDR3_DQ1*%
X38500000Y-151600000D02*
X38500000Y-152000000D01*
X48600000Y-144300000D02*
X48400000Y-144500000D01*
X47600000Y-144500000D02*
X47300000Y-144200000D01*
X37600000Y-152400000D02*
X37300000Y-152700000D01*
X49200000Y-144300000D02*
X48600000Y-144300000D01*
X39300000Y-150200000D02*
X39300000Y-150800000D01*
X38100000Y-152400000D02*
X37600000Y-152400000D01*
X53000000Y-144200000D02*
X52300000Y-144200000D01*
X50500000Y-144400000D02*
X50300000Y-144600000D01*
X57800000Y-145100000D02*
X57800000Y-144700000D01*
X40000000Y-149500000D02*
X39300000Y-150200000D01*
X57500000Y-144400000D02*
X56100000Y-144400000D01*
X52100000Y-144400000D02*
X50500000Y-144400000D01*
X52300000Y-144200000D02*
X52100000Y-144400000D01*
X49500000Y-144600000D02*
X49200000Y-144300000D01*
X47300000Y-144200000D02*
X44600000Y-144200000D01*
X56100000Y-144400000D02*
X55600000Y-144900000D01*
X55600000Y-144900000D02*
X53700000Y-144900000D01*
X58100000Y-145400000D02*
X57800000Y-145100000D01*
X38500000Y-152000000D02*
X38100000Y-152400000D01*
X44600000Y-144200000D02*
X40000000Y-148800000D01*
X59300000Y-145900000D02*
X58800000Y-145400000D01*
X53700000Y-144900000D02*
X53000000Y-144200000D01*
X58800000Y-145400000D02*
X58100000Y-145400000D01*
X39300000Y-150800000D02*
X38500000Y-151600000D01*
X37300000Y-152700000D02*
X37300000Y-153800000D01*
X40000000Y-148800000D02*
X40000000Y-149500000D01*
X50300000Y-144600000D02*
X49500000Y-144600000D01*
X57800000Y-144700000D02*
X57500000Y-144400000D01*
X48400000Y-144500000D02*
X47600000Y-144500000D01*
%TO.N,DDR3_DQS0_P*%
X49476132Y-146127000D02*
X49376132Y-146027000D01*
X46073296Y-146378054D02*
X46052711Y-146398639D01*
X46052711Y-146398639D02*
X46028062Y-146414126D01*
X47066532Y-146153405D02*
X47056917Y-146125928D01*
X43980667Y-148545630D02*
X44069635Y-148601532D01*
X43906369Y-148471332D02*
X43980667Y-148545630D01*
X46605162Y-145514000D02*
X46550153Y-145514000D01*
X50638839Y-146016503D02*
X50528342Y-146127000D01*
X46799757Y-145558415D02*
X46704962Y-145525245D01*
X46101658Y-146297000D02*
X46098398Y-146325928D01*
X47053658Y-145962496D02*
X47042413Y-145862696D01*
X55967635Y-145450467D02*
X55878667Y-145506369D01*
X45746190Y-148833823D02*
X45734948Y-148865950D01*
X45809243Y-145767901D02*
X45755810Y-145682864D01*
X47183658Y-146227000D02*
X47154730Y-146223741D01*
X56686235Y-145768811D02*
X56651532Y-145669635D01*
X56713052Y-146140950D02*
X56701810Y-146108823D01*
X45716839Y-148894770D02*
X45692771Y-148918838D01*
X45405162Y-145514000D02*
X45350153Y-145514000D01*
X55558720Y-146016503D02*
X50638839Y-146016503D01*
X57300000Y-145900000D02*
X56972999Y-146227001D01*
X45734948Y-148865950D02*
X45716839Y-148894770D01*
X44168811Y-148636235D02*
X44273223Y-148648000D01*
X45631824Y-148651810D02*
X45663951Y-148663052D01*
X45902604Y-146398639D02*
X45882019Y-146378054D01*
X45853658Y-145962496D02*
X45842413Y-145862696D01*
X44243176Y-147653810D02*
X44168811Y-147663764D01*
X45866532Y-146353405D02*
X45856917Y-146325928D01*
X55878667Y-145506369D02*
X55804369Y-145580667D01*
X55748467Y-145669635D02*
X55713764Y-145768811D01*
X45684794Y-145611848D02*
X45599757Y-145558415D01*
X45971658Y-146427000D02*
X45983658Y-146427000D01*
X45663951Y-148663052D02*
X45692771Y-148681161D01*
X56698000Y-146075000D02*
X56698000Y-145873223D01*
X56333188Y-145415764D02*
X56228776Y-145404000D01*
X44423001Y-150427001D02*
X44300000Y-150304000D01*
X44898398Y-146125928D02*
X44898398Y-147388799D01*
X56698000Y-145873223D02*
X56686235Y-145768811D01*
X45598000Y-148952000D02*
X45396224Y-148952000D01*
X46146072Y-145767901D02*
X46112902Y-145862696D01*
X55713764Y-145768811D02*
X55702000Y-145873223D01*
X56784049Y-146211947D02*
X56755229Y-146193838D01*
X45882019Y-146378054D02*
X45866532Y-146353405D01*
X45954730Y-146423741D02*
X45927253Y-146414126D01*
X45029370Y-149128667D02*
X44973468Y-149217635D01*
X45504962Y-145525245D02*
X45405162Y-145514000D01*
X44633387Y-147653810D02*
X44243176Y-147653810D01*
X43804000Y-148121223D02*
X43804000Y-148178776D01*
X56595630Y-145580667D02*
X56521332Y-145506369D01*
X44273223Y-148648000D02*
X45598000Y-148648000D01*
X49376132Y-146027000D02*
X47660216Y-146027000D01*
X44069635Y-148601532D02*
X44168811Y-148636235D01*
X45755810Y-145682864D02*
X45684794Y-145611848D01*
X56755229Y-146193838D02*
X56731161Y-146169770D01*
X56432364Y-145450467D02*
X56333188Y-145415764D01*
X46450353Y-145525245D02*
X46355558Y-145558415D01*
X45927253Y-146414126D02*
X45902604Y-146398639D01*
X46112902Y-145862696D02*
X46101658Y-145962496D01*
X56816176Y-146223189D02*
X56784049Y-146211947D01*
X45103668Y-149054369D02*
X45029370Y-149128667D01*
X44912902Y-145862696D02*
X44901658Y-145962496D01*
X44901658Y-145962496D02*
X44901658Y-146097000D01*
X46101658Y-145962496D02*
X46101658Y-146297000D01*
X46098398Y-146325928D02*
X46088783Y-146353405D01*
X44901658Y-146097000D02*
X44898398Y-146125928D01*
X47460216Y-146227000D02*
X47183658Y-146227000D01*
X45291812Y-148963764D02*
X45192636Y-148998467D01*
X45598000Y-148648000D02*
X45631824Y-148651810D01*
X45746190Y-148766176D02*
X45750000Y-148800000D01*
X56731161Y-146169770D02*
X56713052Y-146140950D01*
X55702000Y-145873223D02*
X55558720Y-146016503D01*
X43815764Y-148016811D02*
X43804000Y-148121223D01*
X45983658Y-146427000D02*
X45954730Y-146423741D01*
X56972999Y-146227001D02*
X56850000Y-146227000D01*
X47082019Y-146178054D02*
X47066532Y-146153405D01*
X56171223Y-145404000D02*
X56066811Y-145415764D01*
X45070521Y-145611848D02*
X44999505Y-145682864D01*
X45734948Y-148734049D02*
X45746190Y-148766176D01*
X45853658Y-145962496D02*
X45853658Y-146297000D01*
X56651532Y-145669635D02*
X56595630Y-145580667D01*
X45350153Y-145514000D02*
X45250353Y-145525245D01*
X47009243Y-145767901D02*
X46955810Y-145682864D01*
X43850467Y-148382364D02*
X43906369Y-148471332D01*
X47042413Y-145862696D02*
X47009243Y-145767901D01*
X47127253Y-146214126D02*
X47102604Y-146198639D01*
X45692771Y-148918838D02*
X45663951Y-148936947D01*
X44927000Y-150236734D02*
X44736733Y-150427001D01*
X45856917Y-146325928D02*
X45853658Y-146297000D01*
X44736733Y-150427001D02*
X44423001Y-150427001D01*
X44938765Y-149316811D02*
X44927000Y-149421223D01*
X46355558Y-145558415D02*
X46270521Y-145611848D01*
X46270521Y-145611848D02*
X46199505Y-145682864D01*
X47660216Y-146027000D02*
X47460216Y-146227000D01*
X43980667Y-147754369D02*
X43906369Y-147828667D01*
X44898398Y-147388799D02*
X44633387Y-147653810D01*
X47102604Y-146198639D02*
X47082019Y-146178054D01*
X45192636Y-148998467D02*
X45103668Y-149054369D01*
X45631824Y-148948189D02*
X45598000Y-148952000D01*
X45250353Y-145525245D02*
X45155558Y-145558415D01*
X43804000Y-148178776D02*
X43815764Y-148283188D01*
X46199505Y-145682864D02*
X46146072Y-145767901D01*
X46884794Y-145611848D02*
X46799757Y-145558415D01*
X46704962Y-145525245D02*
X46605162Y-145514000D01*
X43850467Y-147917635D02*
X43815764Y-148016811D01*
X56701810Y-146108823D02*
X56698000Y-146075000D01*
X43815764Y-148283188D02*
X43850467Y-148382364D01*
X44927000Y-149421223D02*
X44927000Y-150236734D01*
X45155558Y-145558415D02*
X45070521Y-145611848D01*
X46955810Y-145682864D02*
X46884794Y-145611848D01*
X56228776Y-145404000D02*
X56171223Y-145404000D01*
X45842413Y-145862696D02*
X45809243Y-145767901D01*
X45716839Y-148705229D02*
X45734948Y-148734049D01*
X44999505Y-145682864D02*
X44946072Y-145767901D01*
X43906369Y-147828667D02*
X43850467Y-147917635D01*
X55804369Y-145580667D02*
X55748467Y-145669635D01*
X46028062Y-146414126D02*
X46000585Y-146423741D01*
X47053658Y-146097000D02*
X47053658Y-145962496D01*
X45692771Y-148681161D02*
X45716839Y-148705229D01*
X45663951Y-148936947D02*
X45631824Y-148948189D01*
X46550153Y-145514000D02*
X46450353Y-145525245D01*
X56066811Y-145415764D02*
X55967635Y-145450467D01*
X47154730Y-146223741D02*
X47127253Y-146214126D01*
X44069635Y-147698467D02*
X43980667Y-147754369D01*
X50528342Y-146127000D02*
X49476132Y-146127000D01*
X44946072Y-145767901D02*
X44912902Y-145862696D01*
X44973468Y-149217635D02*
X44938765Y-149316811D01*
X44168811Y-147663764D02*
X44069635Y-147698467D01*
X56850000Y-146227000D02*
X56816176Y-146223189D01*
X56521332Y-145506369D02*
X56432364Y-145450467D01*
X45599757Y-145558415D02*
X45504962Y-145525245D01*
X45750000Y-148800000D02*
X45746190Y-148833823D01*
X46088783Y-146353405D02*
X46073296Y-146378054D01*
X45396224Y-148952000D02*
X45291812Y-148963764D01*
X47056917Y-146125928D02*
X47053658Y-146097000D01*
X46000585Y-146423741D02*
X45971658Y-146427000D01*
%TO.N,DDR3_DQ3*%
X42083453Y-147749666D02*
X42027471Y-147749666D01*
X43257992Y-146716889D02*
X43292895Y-146760659D01*
X43233702Y-146666451D02*
X43257992Y-146716889D01*
X38700000Y-152800000D02*
X38400000Y-152800000D01*
X42868633Y-148104161D02*
X42824866Y-148139065D01*
X43165955Y-147331960D02*
X43122186Y-147297055D01*
X42903538Y-148060392D02*
X42868633Y-148104161D01*
X43221245Y-146555890D02*
X43221245Y-146611872D01*
X42927828Y-148009953D02*
X42903538Y-148060392D01*
X40000000Y-150800000D02*
X39800000Y-150800000D01*
X42609288Y-148163355D02*
X42558850Y-148139065D01*
X43510643Y-146987271D02*
X43534933Y-147037708D01*
X41750000Y-148950000D02*
X41400000Y-148600000D01*
X43510643Y-147253287D02*
X43475738Y-147297056D01*
X42550887Y-147157978D02*
X42526597Y-147208416D01*
X51200000Y-145200000D02*
X49400000Y-145200000D01*
X41922454Y-147786413D02*
X41878685Y-147821316D01*
X43221245Y-146611872D02*
X43233702Y-146666451D01*
X42550887Y-147423994D02*
X42585790Y-147467764D01*
X42216513Y-148721269D02*
X42192223Y-148771708D01*
X41150000Y-149750000D02*
X41150000Y-150250000D01*
X40900000Y-150500000D02*
X40600000Y-150500000D01*
X48300000Y-145300000D02*
X47600000Y-145300000D01*
X41972891Y-147762125D02*
X41922454Y-147786413D01*
X42824866Y-148139065D02*
X42774428Y-148163355D01*
X43431971Y-147331960D02*
X43381533Y-147356250D01*
X55200000Y-145400000D02*
X53300000Y-145400000D01*
X49200000Y-145000000D02*
X48600000Y-145000000D01*
X43534933Y-147202848D02*
X43510643Y-147253287D01*
X40100000Y-150700000D02*
X40000000Y-150800000D01*
X42629559Y-147079308D02*
X42585790Y-147114210D01*
X41878685Y-147821316D02*
X41839572Y-147869294D01*
X39300000Y-152200000D02*
X38700000Y-152800000D01*
X42157318Y-148815477D02*
X42022795Y-148950000D01*
X43475738Y-147297056D02*
X43431971Y-147331960D01*
X39800000Y-150800000D02*
X39200000Y-151400000D01*
X42192223Y-148771708D02*
X42157318Y-148815477D01*
X40800000Y-148800000D02*
X40800000Y-149400000D01*
X42679996Y-147055020D02*
X42629559Y-147079308D01*
X43292895Y-146760659D02*
X43475738Y-146943502D01*
X43257992Y-146450873D02*
X43233702Y-146501311D01*
X52200000Y-145000000D02*
X52100000Y-144900000D01*
X42228970Y-148610709D02*
X42228970Y-148666691D01*
X41839572Y-147869294D02*
X41815282Y-147919732D01*
X41839572Y-148135310D02*
X41874475Y-148179080D01*
X42157318Y-148461923D02*
X42192223Y-148505692D01*
X43547390Y-147092288D02*
X43547390Y-147148270D01*
X43270972Y-147368707D02*
X43216393Y-147356250D01*
X52100000Y-144900000D02*
X51500000Y-144900000D01*
X39200000Y-151800000D02*
X39300000Y-151900000D01*
X42022795Y-148950000D02*
X41750000Y-148950000D01*
X41815282Y-147919732D02*
X41802825Y-147974311D01*
X42790558Y-147042561D02*
X42734576Y-147042561D01*
X42774428Y-148163355D02*
X42719849Y-148175812D01*
X42514140Y-147318977D02*
X42526597Y-147373556D01*
X43475738Y-146943502D02*
X43510643Y-146987271D01*
X42027471Y-147749666D02*
X41972891Y-147762125D01*
X42895575Y-147079308D02*
X42845136Y-147055020D01*
X49400000Y-145200000D02*
X49200000Y-145000000D01*
X42939344Y-147114213D02*
X42895575Y-147079308D01*
X42868633Y-147750607D02*
X42903538Y-147794376D01*
X42585790Y-147467764D02*
X42868633Y-147750607D01*
X41802825Y-148030293D02*
X41815282Y-148084872D01*
X42192223Y-148505692D02*
X42216513Y-148556129D01*
X43122186Y-147297055D02*
X42939344Y-147114213D01*
X42719849Y-148175812D02*
X42663867Y-148175812D01*
X38200000Y-153000000D02*
X38200000Y-153200000D01*
X42663867Y-148175812D02*
X42609288Y-148163355D01*
X43233702Y-146501311D02*
X43221245Y-146555890D01*
X42228970Y-148666691D02*
X42216513Y-148721269D01*
X39200000Y-151400000D02*
X39200000Y-151800000D01*
X41000000Y-148600000D02*
X40800000Y-148800000D01*
X40200000Y-150400000D02*
X40100000Y-150500000D01*
X52900000Y-145000000D02*
X52200000Y-145000000D01*
X38600000Y-154100000D02*
X38000000Y-154700000D01*
X47100000Y-144800000D02*
X44900000Y-144800000D01*
X41400000Y-148600000D02*
X41000000Y-148600000D01*
X38600000Y-153600000D02*
X38600000Y-154100000D01*
X42940285Y-147955375D02*
X42927828Y-148009953D01*
X42940285Y-147899393D02*
X42940285Y-147955375D01*
X42558850Y-148139065D02*
X42515081Y-148104160D01*
X42526597Y-147373556D02*
X42550887Y-147423994D01*
X41815282Y-148084872D02*
X41839572Y-148135310D01*
X42216513Y-148556129D02*
X42228970Y-148610709D01*
X40100000Y-150500000D02*
X40100000Y-150700000D01*
X42232239Y-147821318D02*
X42188470Y-147786413D01*
X43292895Y-146407105D02*
X43257992Y-146450873D01*
X42526597Y-147208416D02*
X42514140Y-147262995D01*
X44900000Y-144800000D02*
X43292895Y-146407105D01*
X43381533Y-147356250D02*
X43326954Y-147368707D01*
X43547390Y-147148270D02*
X43534933Y-147202848D01*
X42514140Y-147262995D02*
X42514140Y-147318977D01*
X40600000Y-150500000D02*
X40500000Y-150400000D01*
X47600000Y-145300000D02*
X47100000Y-144800000D01*
X42845136Y-147055020D02*
X42790558Y-147042561D01*
X42903538Y-147794376D02*
X42927828Y-147844813D01*
X53300000Y-145400000D02*
X52900000Y-145000000D01*
X43216393Y-147356250D02*
X43165955Y-147331960D01*
X41802825Y-147974311D02*
X41802825Y-148030293D01*
X48600000Y-145000000D02*
X48300000Y-145300000D01*
X42734576Y-147042561D02*
X42679996Y-147055020D01*
X43534933Y-147037708D02*
X43547390Y-147092288D01*
X41150000Y-150250000D02*
X40900000Y-150500000D01*
X42585790Y-147114210D02*
X42550887Y-147157978D01*
X38400000Y-152800000D02*
X38200000Y-153000000D01*
X42188470Y-147786413D02*
X42138031Y-147762125D01*
X42138031Y-147762125D02*
X42083453Y-147749666D01*
X40800000Y-149400000D02*
X41150000Y-149750000D01*
X42927828Y-147844813D02*
X42940285Y-147899393D01*
X43326954Y-147368707D02*
X43270972Y-147368707D01*
X40500000Y-150400000D02*
X40200000Y-150400000D01*
X41874475Y-148179080D02*
X42157318Y-148461923D01*
X42515081Y-148104160D02*
X42232239Y-147821318D01*
X39300000Y-151900000D02*
X39300000Y-152200000D01*
X38200000Y-153200000D02*
X38600000Y-153600000D01*
X51500000Y-144900000D02*
X51200000Y-145200000D01*
%TO.N,fdata[31]*%
X70153553Y-144400000D02*
X69653553Y-143900000D01*
X74000000Y-165400000D02*
X74200000Y-165200000D01*
X78480991Y-163719009D02*
X78480991Y-161152082D01*
X72800000Y-165800000D02*
X73200000Y-165400000D01*
X78300000Y-160971091D02*
X78300000Y-148600000D01*
X75450000Y-165000000D02*
X77200000Y-165000000D01*
X74200000Y-165200000D02*
X75250000Y-165200000D01*
X69653553Y-143900000D02*
X69300000Y-143900000D01*
X78300000Y-148600000D02*
X74100000Y-144400000D01*
X73200000Y-165400000D02*
X74000000Y-165400000D01*
X78480991Y-161152082D02*
X78300000Y-160971091D01*
X75250000Y-165200000D02*
X75450000Y-165000000D01*
X74100000Y-144400000D02*
X70153553Y-144400000D01*
X77200000Y-165000000D02*
X78480991Y-163719009D01*
%TO.N,fdata[27]*%
X75600000Y-163600000D02*
X76300000Y-162900000D01*
X76300000Y-162200000D02*
X76700000Y-161800000D01*
X71900000Y-145400000D02*
X68800000Y-145400000D01*
X68800000Y-145400000D02*
X68300000Y-144900000D01*
X73800000Y-146600000D02*
X73100000Y-145900000D01*
X73600000Y-165000000D02*
X73900000Y-164700000D01*
X74200000Y-146600000D02*
X73800000Y-146600000D01*
X75600000Y-163800000D02*
X75600000Y-163600000D01*
X73900000Y-164700000D02*
X74700000Y-164700000D01*
X76700000Y-161000000D02*
X76900000Y-160800000D01*
X76900000Y-149300000D02*
X74200000Y-146600000D01*
X76300000Y-162900000D02*
X76300000Y-162200000D01*
X72400000Y-145900000D02*
X71900000Y-145400000D01*
X76900000Y-160800000D02*
X76900000Y-149300000D01*
X76700000Y-161800000D02*
X76700000Y-161000000D01*
X74700000Y-164700000D02*
X75600000Y-163800000D01*
X73100000Y-145900000D02*
X72400000Y-145900000D01*
%TO.N,DDR3_DQ0*%
X53400000Y-142100000D02*
X55200000Y-143900000D01*
X37200000Y-150700000D02*
X37200000Y-148300000D01*
X58300000Y-143900000D02*
X59300000Y-144900000D01*
X55200000Y-143900000D02*
X58300000Y-143900000D01*
X37200000Y-148300000D02*
X43400000Y-142100000D01*
X43400000Y-142100000D02*
X53400000Y-142100000D01*
%TO.N,DDR3_DQ2*%
X47300000Y-141500000D02*
X47233243Y-141492478D01*
X45829709Y-141330165D02*
X45807521Y-141266756D01*
X46287046Y-141434549D02*
X46230165Y-141470290D01*
X44366756Y-140907521D02*
X44300000Y-140900000D01*
X48170290Y-141069834D02*
X48134549Y-141012953D01*
X45865450Y-141387046D02*
X45829709Y-141330165D01*
X46230165Y-141470290D02*
X46166756Y-141492478D01*
X45312953Y-140965450D02*
X45265450Y-141012953D01*
X45192478Y-141266756D02*
X45170290Y-141330165D01*
X44430165Y-140929709D02*
X44366756Y-140907521D01*
X46334549Y-141387046D02*
X46287046Y-141434549D01*
X37800000Y-147000000D02*
X37800000Y-146600000D01*
X47570290Y-141330165D02*
X47534549Y-141387046D01*
X56100000Y-143400000D02*
X55300000Y-142600000D01*
X48030165Y-140929709D02*
X47966756Y-140907521D01*
X48087046Y-140965450D02*
X48030165Y-140929709D01*
X44769834Y-141470290D02*
X44712953Y-141434549D01*
X44570290Y-141069834D02*
X44534549Y-141012953D01*
X44169834Y-140929709D02*
X44112953Y-140965450D01*
X45369834Y-140929709D02*
X45312953Y-140965450D01*
X47833243Y-140907521D02*
X47769834Y-140929709D01*
X45030165Y-141470290D02*
X44966756Y-141492478D01*
X47665450Y-141012953D02*
X47629709Y-141069834D01*
X46392478Y-141266756D02*
X46370290Y-141330165D01*
X47029709Y-141330165D02*
X47007521Y-141266756D01*
X45630165Y-140929709D02*
X45566756Y-140907521D01*
X47712953Y-140965450D02*
X47665450Y-141012953D01*
X45433243Y-140907521D02*
X45369834Y-140929709D01*
X45687046Y-140965450D02*
X45630165Y-140929709D01*
X46370290Y-141330165D02*
X46334549Y-141387046D01*
X48433243Y-141492478D02*
X48369834Y-141470290D01*
X47629709Y-141069834D02*
X47607521Y-141133243D01*
X44029709Y-141069834D02*
X44007521Y-141133243D01*
X45969834Y-141470290D02*
X45912953Y-141434549D01*
X55300000Y-142600000D02*
X54700000Y-142600000D01*
X44487046Y-140965450D02*
X44430165Y-140929709D01*
X44007521Y-141133243D02*
X43992478Y-141266756D01*
X44112953Y-140965450D02*
X44065450Y-141012953D01*
X46465450Y-141012953D02*
X46429709Y-141069834D01*
X43766756Y-141492478D02*
X43700000Y-141500000D01*
X47966756Y-140907521D02*
X47900000Y-140900000D01*
X47769834Y-140929709D02*
X47712953Y-140965450D01*
X46934549Y-141012953D02*
X46887046Y-140965450D01*
X59300000Y-143900000D02*
X58800000Y-143400000D01*
X42900000Y-141500000D02*
X43700000Y-141500000D01*
X47900000Y-140900000D02*
X47833243Y-140907521D01*
X47366756Y-141492478D02*
X47300000Y-141500000D01*
X46512953Y-140965450D02*
X46465450Y-141012953D01*
X45087046Y-141434549D02*
X45030165Y-141470290D01*
X47233243Y-141492478D02*
X47169834Y-141470290D01*
X58800000Y-143400000D02*
X56100000Y-143400000D01*
X46633243Y-140907521D02*
X46569834Y-140929709D01*
X47592478Y-141266756D02*
X47570290Y-141330165D01*
X44665450Y-141387046D02*
X44629709Y-141330165D01*
X45912953Y-141434549D02*
X45865450Y-141387046D01*
X43934549Y-141387046D02*
X43887046Y-141434549D01*
X46407521Y-141133243D02*
X46392478Y-141266756D01*
X44534549Y-141012953D02*
X44487046Y-140965450D01*
X44607521Y-141266756D02*
X44592478Y-141133243D01*
X48134549Y-141012953D02*
X48087046Y-140965450D01*
X43830165Y-141470290D02*
X43766756Y-141492478D01*
X45170290Y-141330165D02*
X45134549Y-141387046D01*
X45265450Y-141012953D02*
X45229709Y-141069834D01*
X47487046Y-141434549D02*
X47430165Y-141470290D01*
X48265450Y-141387046D02*
X48229709Y-141330165D01*
X43992478Y-141266756D02*
X43970290Y-141330165D01*
X48369834Y-141470290D02*
X48312953Y-141434549D01*
X46033243Y-141492478D02*
X45969834Y-141470290D01*
X48229709Y-141330165D02*
X48207521Y-141266756D01*
X44065450Y-141012953D02*
X44029709Y-141069834D01*
X47169834Y-141470290D02*
X47112953Y-141434549D01*
X44712953Y-141434549D02*
X44665450Y-141387046D01*
X48500000Y-141500000D02*
X48433243Y-141492478D01*
X44629709Y-141330165D02*
X44607521Y-141266756D01*
X44300000Y-140900000D02*
X44233243Y-140907521D01*
X46992478Y-141133243D02*
X46970290Y-141069834D01*
X46100000Y-141500000D02*
X46033243Y-141492478D01*
X44900000Y-141500000D02*
X44833243Y-141492478D01*
X45229709Y-141069834D02*
X45207521Y-141133243D01*
X53600000Y-141500000D02*
X48500000Y-141500000D01*
X45566756Y-140907521D02*
X45500000Y-140900000D01*
X46700000Y-140900000D02*
X46633243Y-140907521D01*
X48312953Y-141434549D02*
X48265450Y-141387046D01*
X46970290Y-141069834D02*
X46934549Y-141012953D01*
X47007521Y-141266756D02*
X46992478Y-141133243D01*
X46766756Y-140907521D02*
X46700000Y-140900000D01*
X43970290Y-141330165D02*
X43934549Y-141387046D01*
X37800000Y-146600000D02*
X42900000Y-141500000D01*
X45207521Y-141133243D02*
X45192478Y-141266756D01*
X47607521Y-141133243D02*
X47592478Y-141266756D01*
X44233243Y-140907521D02*
X44169834Y-140929709D01*
X46429709Y-141069834D02*
X46407521Y-141133243D01*
X45792478Y-141133243D02*
X45770290Y-141069834D01*
X43887046Y-141434549D02*
X43830165Y-141470290D01*
X47534549Y-141387046D02*
X47487046Y-141434549D01*
X45770290Y-141069834D02*
X45734549Y-141012953D01*
X45807521Y-141266756D02*
X45792478Y-141133243D01*
X47430165Y-141470290D02*
X47366756Y-141492478D01*
X46166756Y-141492478D02*
X46100000Y-141500000D01*
X44592478Y-141133243D02*
X44570290Y-141069834D01*
X45500000Y-140900000D02*
X45433243Y-140907521D01*
X46569834Y-140929709D02*
X46512953Y-140965450D01*
X54700000Y-142600000D02*
X53600000Y-141500000D01*
X44833243Y-141492478D02*
X44769834Y-141470290D01*
X46830165Y-140929709D02*
X46766756Y-140907521D01*
X44966756Y-141492478D02*
X44900000Y-141500000D01*
X46887046Y-140965450D02*
X46830165Y-140929709D01*
X47065450Y-141387046D02*
X47029709Y-141330165D01*
X48207521Y-141266756D02*
X48192478Y-141133243D01*
X48192478Y-141133243D02*
X48170290Y-141069834D01*
X45134549Y-141387046D02*
X45087046Y-141434549D01*
X45734549Y-141012953D02*
X45687046Y-140965450D01*
X47112953Y-141434549D02*
X47065450Y-141387046D01*
%TO.N,DDR3_DQ6*%
X42700000Y-139350000D02*
X54850000Y-139350000D01*
X56500000Y-141500000D02*
X56750000Y-141750000D01*
X36400000Y-147000000D02*
X36400000Y-145650000D01*
X36400000Y-145650000D02*
X42700000Y-139350000D01*
X55700000Y-141100000D02*
X56100000Y-141500000D01*
X55700000Y-140200000D02*
X55700000Y-141100000D01*
X56750000Y-142350000D02*
X57300000Y-142900000D01*
X54850000Y-139350000D02*
X55700000Y-140200000D01*
X56100000Y-141500000D02*
X56500000Y-141500000D01*
X56750000Y-141750000D02*
X56750000Y-142350000D01*
%TO.N,DDR3_DQ7*%
X46304542Y-143294127D02*
X46274757Y-143341529D01*
X45074757Y-143341529D02*
X45056268Y-143394369D01*
X42573654Y-144648528D02*
X42538298Y-144683883D01*
X46904542Y-143605872D02*
X46874757Y-143558470D01*
X46256268Y-143394369D02*
X46243731Y-143505630D01*
X43348431Y-143883500D02*
X43321713Y-143938982D01*
X42499903Y-144732028D02*
X42473185Y-144787510D01*
X46755872Y-143254542D02*
X46708470Y-143224757D01*
X43470327Y-143761605D02*
X43422182Y-143800000D01*
X42396879Y-145603121D02*
X41996879Y-145603121D01*
X46825242Y-143341529D02*
X46795457Y-143294127D01*
X45595457Y-143294127D02*
X45555872Y-143254542D01*
X43247844Y-144713641D02*
X43187807Y-144727344D01*
X43351472Y-144648528D02*
X43303326Y-144686922D01*
X45704542Y-143605872D02*
X45674757Y-143558470D01*
X42914417Y-144610133D02*
X42858935Y-144583414D01*
X43451939Y-144509545D02*
X43425220Y-144565027D01*
X36000000Y-154300000D02*
X35600000Y-154700000D01*
X38600000Y-149500000D02*
X38400000Y-149700000D01*
X46274757Y-143341529D02*
X46256268Y-143394369D01*
X45455630Y-143206268D02*
X45400000Y-143200000D01*
X45625242Y-143341529D02*
X45595457Y-143294127D01*
X46500000Y-143200000D02*
X46444369Y-143206268D01*
X43465642Y-144387928D02*
X43465642Y-144449508D01*
X43425220Y-144565027D02*
X43386826Y-144613172D01*
X42499903Y-145024646D02*
X42576692Y-145120937D01*
X44855630Y-143693731D02*
X44800000Y-143700000D01*
X53800000Y-144200000D02*
X53100000Y-143500000D01*
X42538298Y-144683883D02*
X42499903Y-144732028D01*
X43465642Y-144449508D02*
X43451939Y-144509545D01*
X45244369Y-143206268D02*
X45191529Y-143224757D01*
X54800000Y-144400000D02*
X54600000Y-144200000D01*
X46991529Y-143675242D02*
X46944127Y-143645457D01*
X47044369Y-143693731D02*
X46991529Y-143675242D01*
X46655630Y-143206268D02*
X46600000Y-143200000D01*
X47100000Y-143700000D02*
X47044369Y-143693731D01*
X36200000Y-151900000D02*
X35700000Y-152400000D01*
X45791529Y-143675242D02*
X45744127Y-143645457D01*
X46795457Y-143294127D02*
X46755872Y-143254542D01*
X45104542Y-143294127D02*
X45074757Y-143341529D01*
X43585846Y-143721183D02*
X43525809Y-143734886D01*
X42798898Y-144569711D02*
X42737318Y-144569711D01*
X46391529Y-143224757D02*
X46344127Y-143254542D01*
X43386826Y-144613172D02*
X43351472Y-144648528D01*
X46874757Y-143558470D02*
X46856268Y-143505630D01*
X42858935Y-144583414D02*
X42798898Y-144569711D01*
X45844369Y-143693731D02*
X45791529Y-143675242D01*
X44995457Y-143605872D02*
X44955872Y-143645457D01*
X37600000Y-151900000D02*
X36200000Y-151900000D01*
X46708470Y-143224757D02*
X46655630Y-143206268D01*
X46444369Y-143206268D02*
X46391529Y-143224757D01*
X46944127Y-143645457D02*
X46904542Y-143605872D01*
X45191529Y-143224757D02*
X45144127Y-143254542D01*
X39200000Y-148400000D02*
X39200000Y-149300000D01*
X44200000Y-143800000D02*
X44151854Y-143838394D01*
X43010708Y-144686922D02*
X42914417Y-144610133D01*
X38400000Y-151100000D02*
X37600000Y-151900000D01*
X43386826Y-143835355D02*
X43348431Y-143883500D01*
X43308010Y-144060599D02*
X43321713Y-144120636D01*
X45300000Y-143200000D02*
X45244369Y-143206268D01*
X42459482Y-144909127D02*
X42473185Y-144969164D01*
X44096372Y-143865113D02*
X44036335Y-143878816D01*
X53100000Y-143500000D02*
X52100000Y-143500000D01*
X43914718Y-143865113D02*
X43859236Y-143838394D01*
X44800000Y-143700000D02*
X44300000Y-143700000D01*
X42603411Y-145176419D02*
X42617114Y-145236456D01*
X43647426Y-143721183D02*
X43585846Y-143721183D01*
X54600000Y-144200000D02*
X53800000Y-144200000D01*
X43425220Y-144272409D02*
X43451939Y-144327891D01*
X45025242Y-143558470D02*
X44995457Y-143605872D01*
X42603411Y-145358073D02*
X42576692Y-145413555D01*
X43348431Y-144176118D02*
X43425220Y-144272409D01*
X46856268Y-143505630D02*
X46843731Y-143394369D01*
X43126227Y-144727344D02*
X43066190Y-144713641D01*
X43525809Y-143734886D02*
X43470327Y-143761605D01*
X43321713Y-144120636D02*
X43348431Y-144176118D01*
X45144127Y-143254542D02*
X45104542Y-143294127D01*
X44151854Y-143838394D02*
X44096372Y-143865113D01*
X43066190Y-144713641D02*
X43010708Y-144686922D01*
X44955872Y-143645457D02*
X44908470Y-143675242D01*
X43303326Y-144686922D02*
X43247844Y-144713641D01*
X45656268Y-143505630D02*
X45643731Y-143394369D01*
X46225242Y-143558470D02*
X46195457Y-143605872D01*
X45900000Y-143700000D02*
X45844369Y-143693731D01*
X50300000Y-143800000D02*
X50100000Y-143600000D01*
X51800000Y-143800000D02*
X50300000Y-143800000D01*
X42576692Y-145120937D02*
X42603411Y-145176419D01*
X42473185Y-144969164D02*
X42499903Y-145024646D01*
X55200000Y-144400000D02*
X54800000Y-144400000D01*
X42617114Y-145236456D02*
X42617114Y-145298036D01*
X42621799Y-144610133D02*
X42573654Y-144648528D01*
X35700000Y-153500000D02*
X36000000Y-153800000D01*
X46055630Y-143693731D02*
X46000000Y-143700000D01*
X45043731Y-143505630D02*
X45025242Y-143558470D01*
X43859236Y-143838394D02*
X43762945Y-143761605D01*
X44908470Y-143675242D02*
X44855630Y-143693731D01*
X43321713Y-143938982D02*
X43308010Y-143999019D01*
X43762945Y-143761605D02*
X43707463Y-143734886D01*
X43974755Y-143878816D02*
X43914718Y-143865113D01*
X45400000Y-143200000D02*
X45300000Y-143200000D01*
X45643731Y-143394369D02*
X45625242Y-143341529D01*
X39200000Y-149300000D02*
X39000000Y-149500000D01*
X41996879Y-145603121D02*
X39200000Y-148400000D01*
X39000000Y-149500000D02*
X38600000Y-149500000D01*
X43451939Y-144327891D02*
X43465642Y-144387928D01*
X43422182Y-143800000D02*
X43386826Y-143835355D01*
X46155872Y-143645457D02*
X46108470Y-143675242D01*
X45555872Y-143254542D02*
X45508470Y-143224757D01*
X42737318Y-144569711D02*
X42677281Y-144583414D01*
X46843731Y-143394369D02*
X46825242Y-143341529D01*
X50100000Y-143600000D02*
X49600000Y-143600000D01*
X44036335Y-143878816D02*
X43974755Y-143878816D01*
X46000000Y-143700000D02*
X45900000Y-143700000D01*
X49500000Y-143700000D02*
X47100000Y-143700000D01*
X35700000Y-152400000D02*
X35700000Y-153500000D01*
X38400000Y-149700000D02*
X38400000Y-151100000D01*
X42677281Y-144583414D02*
X42621799Y-144610133D01*
X42459482Y-144847547D02*
X42459482Y-144909127D01*
X43308010Y-143999019D02*
X43308010Y-144060599D01*
X42538298Y-145461700D02*
X42396879Y-145603121D01*
X43707463Y-143734886D02*
X43647426Y-143721183D01*
X46195457Y-143605872D02*
X46155872Y-143645457D01*
X46108470Y-143675242D02*
X46055630Y-143693731D01*
X49600000Y-143600000D02*
X49500000Y-143700000D01*
X46243731Y-143505630D02*
X46225242Y-143558470D01*
X46344127Y-143254542D02*
X46304542Y-143294127D01*
X45508470Y-143224757D02*
X45455630Y-143206268D01*
X44300000Y-143700000D02*
X44200000Y-143800000D01*
X45674757Y-143558470D02*
X45656268Y-143505630D01*
X52100000Y-143500000D02*
X51800000Y-143800000D01*
X42617114Y-145298036D02*
X42603411Y-145358073D01*
X43187807Y-144727344D02*
X43126227Y-144727344D01*
X45056268Y-143394369D02*
X45043731Y-143505630D01*
X42473185Y-144787510D02*
X42459482Y-144847547D01*
X45744127Y-143645457D02*
X45704542Y-143605872D01*
X42576692Y-145413555D02*
X42538298Y-145461700D01*
X46600000Y-143200000D02*
X46500000Y-143200000D01*
X36000000Y-153800000D02*
X36000000Y-154300000D01*
%TO.N,fdata[26]*%
X77600000Y-160500000D02*
X77600000Y-149900000D01*
X77600000Y-149900000D02*
X77154001Y-149454001D01*
X73800000Y-145400000D02*
X72700000Y-145400000D01*
X68800000Y-144400000D02*
X68300000Y-143900000D01*
X72700000Y-145400000D02*
X72200000Y-144900000D01*
X77154001Y-148754001D02*
X73800000Y-145400000D01*
X77100000Y-164200000D02*
X77100000Y-161000000D01*
X69500000Y-144400000D02*
X68800000Y-144400000D01*
X70000000Y-144900000D02*
X69500000Y-144400000D01*
X77154001Y-149454001D02*
X77154001Y-148754001D01*
X72200000Y-144900000D02*
X70000000Y-144900000D01*
X77100000Y-161000000D02*
X77600000Y-160500000D01*
%TO.N,fdata[2]*%
X66100000Y-146400000D02*
X66500000Y-146400000D01*
X69600000Y-165800000D02*
X69200000Y-166200000D01*
X65300000Y-151000000D02*
X65800000Y-150500000D01*
X64200000Y-159950000D02*
X65000000Y-159150000D01*
X64600000Y-165100000D02*
X64600000Y-162250000D01*
X64600000Y-162250000D02*
X64200000Y-161850000D01*
X65000000Y-159150000D02*
X65000000Y-152000000D01*
X66800000Y-144400000D02*
X67300000Y-143900000D01*
X64900000Y-165400000D02*
X64600000Y-165100000D01*
X66800000Y-146100000D02*
X66800000Y-144400000D01*
X67000000Y-166200000D02*
X66200000Y-165400000D01*
X64200000Y-161850000D02*
X64200000Y-159950000D01*
X66500000Y-146400000D02*
X66800000Y-146100000D01*
X69200000Y-166200000D02*
X67000000Y-166200000D01*
X70400000Y-165800000D02*
X69600000Y-165800000D01*
X65800000Y-146700000D02*
X66100000Y-146400000D01*
X65800000Y-150500000D02*
X65800000Y-146700000D01*
X66200000Y-165400000D02*
X64900000Y-165400000D01*
X65000000Y-152000000D02*
X65300000Y-151700000D01*
X65300000Y-151700000D02*
X65300000Y-151000000D01*
%TO.N,SPI_MOSI*%
X63800000Y-149400000D02*
X63300000Y-149900000D01*
X60900000Y-160300000D02*
X60900000Y-163450000D01*
X60800000Y-147100000D02*
X61100000Y-147400000D01*
X66640501Y-167409499D02*
X68190501Y-167409499D01*
X60800000Y-146700000D02*
X60800000Y-147100000D01*
X62150000Y-164700000D02*
X62150000Y-165500000D01*
X63800000Y-147700000D02*
X63800000Y-149400000D01*
X63300000Y-150900000D02*
X62250000Y-151950000D01*
X57300000Y-144900000D02*
X57300000Y-145218198D01*
X62250000Y-151950000D02*
X62250000Y-158950000D01*
X66400000Y-167650000D02*
X66640501Y-167409499D01*
X68190501Y-167409499D02*
X68200000Y-167400000D01*
X60900000Y-163450000D02*
X62150000Y-164700000D01*
X61100000Y-147400000D02*
X63500000Y-147400000D01*
X62150000Y-165500000D02*
X62550000Y-165900000D01*
X58481802Y-146400000D02*
X60500000Y-146400000D01*
X68200000Y-167400000D02*
X72000000Y-167400000D01*
X63500000Y-147400000D02*
X63800000Y-147700000D01*
X63650000Y-167650000D02*
X66400000Y-167650000D01*
X60500000Y-146400000D02*
X60800000Y-146700000D01*
X62550000Y-166550000D02*
X63650000Y-167650000D01*
X62550000Y-165900000D02*
X62550000Y-166550000D01*
X57300000Y-145218198D02*
X58481802Y-146400000D01*
X62250000Y-158950000D02*
X60900000Y-160300000D01*
X63300000Y-149900000D02*
X63300000Y-150900000D01*
%TO.N,DDR3_DQ4*%
X52287046Y-140365450D02*
X52334549Y-140412953D01*
X53007521Y-140533243D02*
X53029709Y-140469834D01*
X50065450Y-140787046D02*
X50112953Y-140834549D01*
X51192478Y-140533243D02*
X51207521Y-140666756D01*
X52465450Y-140787046D02*
X52512953Y-140834549D01*
X50769834Y-140329709D02*
X50833243Y-140307521D01*
X43100000Y-140300000D02*
X48500000Y-140300000D01*
X49700000Y-140300000D02*
X49766756Y-140307521D01*
X49100000Y-140900000D02*
X49166756Y-140892478D01*
X48829709Y-140730165D02*
X48865450Y-140787046D01*
X48566756Y-140307521D02*
X48630165Y-140329709D01*
X51829709Y-140469834D02*
X51865450Y-140412953D01*
X51229709Y-140730165D02*
X51265450Y-140787046D01*
X49033243Y-140892478D02*
X49100000Y-140900000D01*
X53712953Y-140834549D02*
X53769834Y-140870290D01*
X53169834Y-140329709D02*
X53233243Y-140307521D01*
X50300000Y-140900000D02*
X50366756Y-140892478D01*
X51770290Y-140730165D02*
X51792478Y-140666756D01*
X52370290Y-140469834D02*
X52392478Y-140533243D01*
X53300000Y-140300000D02*
X53366756Y-140307521D01*
X49934549Y-140412953D02*
X49970290Y-140469834D01*
X51630165Y-140870290D02*
X51687046Y-140834549D01*
X50487046Y-140834549D02*
X50534549Y-140787046D01*
X55000000Y-142000000D02*
X55400000Y-142000000D01*
X51433243Y-140892478D02*
X51500000Y-140900000D01*
X51087046Y-140365450D02*
X51134549Y-140412953D01*
X53607521Y-140666756D02*
X53629709Y-140730165D01*
X49392478Y-140666756D02*
X49407521Y-140533243D01*
X52033243Y-140307521D02*
X52100000Y-140300000D01*
X49287046Y-140834549D02*
X49334549Y-140787046D01*
X53629709Y-140730165D02*
X53665450Y-140787046D01*
X53233243Y-140307521D02*
X53300000Y-140300000D01*
X49166756Y-140892478D02*
X49230165Y-140870290D01*
X53570290Y-140469834D02*
X53592478Y-140533243D01*
X36400000Y-148200000D02*
X37000000Y-147600000D01*
X51312953Y-140834549D02*
X51369834Y-140870290D01*
X53900000Y-140900000D02*
X54100000Y-140900000D01*
X53534549Y-140412953D02*
X53570290Y-140469834D01*
X51566756Y-140892478D02*
X51630165Y-140870290D01*
X52569834Y-140870290D02*
X52633243Y-140892478D01*
X54600000Y-141600000D02*
X54600000Y-141400000D01*
X53065450Y-140412953D02*
X53112953Y-140365450D01*
X53833243Y-140892478D02*
X53900000Y-140900000D01*
X52887046Y-140834549D02*
X52934549Y-140787046D01*
X50966756Y-140307521D02*
X51030165Y-140329709D01*
X51792478Y-140666756D02*
X51807521Y-140533243D01*
X54600000Y-141600000D02*
X55000000Y-142000000D01*
X49633243Y-140307521D02*
X49700000Y-140300000D01*
X50570290Y-140730165D02*
X50592478Y-140666756D01*
X48770290Y-140469834D02*
X48792478Y-140533243D01*
X37000000Y-147600000D02*
X37000000Y-146400000D01*
X52633243Y-140892478D02*
X52700000Y-140900000D01*
X53487046Y-140365450D02*
X53534549Y-140412953D01*
X50534549Y-140787046D02*
X50570290Y-140730165D01*
X50029709Y-140730165D02*
X50065450Y-140787046D01*
X49370290Y-140730165D02*
X49392478Y-140666756D01*
X36400000Y-148200000D02*
X36400000Y-150700000D01*
X50629709Y-140469834D02*
X50665450Y-140412953D01*
X52766756Y-140892478D02*
X52830165Y-140870290D01*
X53112953Y-140365450D02*
X53169834Y-140329709D01*
X55400000Y-142000000D02*
X56300000Y-142900000D01*
X49334549Y-140787046D02*
X49370290Y-140730165D01*
X54100000Y-140900000D02*
X54600000Y-141400000D01*
X51207521Y-140666756D02*
X51229709Y-140730165D01*
X53029709Y-140469834D02*
X53065450Y-140412953D01*
X50007521Y-140666756D02*
X50029709Y-140730165D01*
X53430165Y-140329709D02*
X53487046Y-140365450D01*
X52392478Y-140533243D02*
X52407521Y-140666756D01*
X52100000Y-140300000D02*
X52166756Y-140307521D01*
X49569834Y-140329709D02*
X49633243Y-140307521D01*
X51170290Y-140469834D02*
X51192478Y-140533243D01*
X48865450Y-140787046D02*
X48912953Y-140834549D01*
X50233243Y-140892478D02*
X50300000Y-140900000D01*
X49992478Y-140533243D02*
X50007521Y-140666756D01*
X51912953Y-140365450D02*
X51969834Y-140329709D01*
X53366756Y-140307521D02*
X53430165Y-140329709D01*
X50169834Y-140870290D02*
X50233243Y-140892478D01*
X48734549Y-140412953D02*
X48770290Y-140469834D01*
X49830165Y-140329709D02*
X49887046Y-140365450D01*
X48687046Y-140365450D02*
X48734549Y-140412953D01*
X50112953Y-140834549D02*
X50169834Y-140870290D01*
X49429709Y-140469834D02*
X49465450Y-140412953D01*
X52230165Y-140329709D02*
X52287046Y-140365450D01*
X52700000Y-140900000D02*
X52766756Y-140892478D01*
X52934549Y-140787046D02*
X52970290Y-140730165D01*
X52512953Y-140834549D02*
X52569834Y-140870290D01*
X51134549Y-140412953D02*
X51170290Y-140469834D01*
X48807521Y-140666756D02*
X48829709Y-140730165D01*
X48792478Y-140533243D02*
X48807521Y-140666756D01*
X53665450Y-140787046D02*
X53712953Y-140834549D01*
X48630165Y-140329709D02*
X48687046Y-140365450D01*
X52429709Y-140730165D02*
X52465450Y-140787046D01*
X37000000Y-146400000D02*
X43100000Y-140300000D01*
X53592478Y-140533243D02*
X53607521Y-140666756D01*
X50430165Y-140870290D02*
X50487046Y-140834549D01*
X51865450Y-140412953D02*
X51912953Y-140365450D01*
X49970290Y-140469834D02*
X49992478Y-140533243D01*
X50592478Y-140666756D02*
X50607521Y-140533243D01*
X49512953Y-140365450D02*
X49569834Y-140329709D01*
X50366756Y-140892478D02*
X50430165Y-140870290D01*
X49465450Y-140412953D02*
X49512953Y-140365450D01*
X51369834Y-140870290D02*
X51433243Y-140892478D01*
X49766756Y-140307521D02*
X49830165Y-140329709D01*
X52992478Y-140666756D02*
X53007521Y-140533243D01*
X52166756Y-140307521D02*
X52230165Y-140329709D01*
X51807521Y-140533243D02*
X51829709Y-140469834D01*
X51500000Y-140900000D02*
X51566756Y-140892478D01*
X50607521Y-140533243D02*
X50629709Y-140469834D01*
X52830165Y-140870290D02*
X52887046Y-140834549D01*
X51969834Y-140329709D02*
X52033243Y-140307521D01*
X48500000Y-140300000D02*
X48566756Y-140307521D01*
X51687046Y-140834549D02*
X51734549Y-140787046D01*
X52334549Y-140412953D02*
X52370290Y-140469834D01*
X48969834Y-140870290D02*
X49033243Y-140892478D01*
X53769834Y-140870290D02*
X53833243Y-140892478D01*
X49887046Y-140365450D02*
X49934549Y-140412953D01*
X51265450Y-140787046D02*
X51312953Y-140834549D01*
X49230165Y-140870290D02*
X49287046Y-140834549D01*
X52407521Y-140666756D02*
X52429709Y-140730165D01*
X50833243Y-140307521D02*
X50900000Y-140300000D01*
X49407521Y-140533243D02*
X49429709Y-140469834D01*
X48912953Y-140834549D02*
X48969834Y-140870290D01*
X50712953Y-140365450D02*
X50769834Y-140329709D01*
X51734549Y-140787046D02*
X51770290Y-140730165D01*
X51030165Y-140329709D02*
X51087046Y-140365450D01*
X50665450Y-140412953D02*
X50712953Y-140365450D01*
X50900000Y-140300000D02*
X50966756Y-140307521D01*
X52970290Y-140730165D02*
X52992478Y-140666756D01*
%TO.N,DDR3_DQ5*%
X51250000Y-143250000D02*
X51200000Y-143250000D01*
X37600000Y-148600000D02*
X37600000Y-151100000D01*
X49228540Y-142759997D02*
X49184996Y-142803541D01*
X49880681Y-143222767D02*
X49828540Y-143190004D01*
X49511193Y-142706895D02*
X49450000Y-142700000D01*
X50050000Y-143250000D02*
X50000000Y-143250000D01*
X49828540Y-143190004D02*
X49784996Y-143146460D01*
X48552233Y-143094319D02*
X48531894Y-143036194D01*
X51138806Y-143243106D02*
X51080681Y-143222767D01*
X49450000Y-142700000D02*
X49400000Y-142700000D01*
X50331894Y-142913807D02*
X50318105Y-143036194D01*
X50918105Y-142913807D02*
X50897766Y-142855682D01*
X49784996Y-143146460D02*
X49752233Y-143094319D01*
X50265003Y-143146460D02*
X50221459Y-143190004D01*
X48369318Y-142727234D02*
X48311193Y-142706895D01*
X50821459Y-142759997D02*
X50769318Y-142727234D01*
X50169318Y-143222767D02*
X50111193Y-143243106D01*
X49021459Y-143190004D02*
X48969318Y-143222767D01*
X51465003Y-143146460D02*
X51421459Y-143190004D01*
X51497766Y-143094319D02*
X51465003Y-143146460D01*
X49569318Y-142727234D02*
X49511193Y-142706895D01*
X49097766Y-143094319D02*
X49065003Y-143146460D01*
X50480681Y-142727234D02*
X50428540Y-142759997D01*
X50865003Y-142803541D02*
X50821459Y-142759997D01*
X48497766Y-142855682D02*
X48465003Y-142803541D01*
X50318105Y-143036194D02*
X50297766Y-143094319D01*
X49184996Y-142803541D02*
X49152233Y-142855682D01*
X49152233Y-142855682D02*
X49131894Y-142913807D01*
X50111193Y-143243106D02*
X50050000Y-143250000D01*
X51738806Y-142706895D02*
X51680681Y-142727234D01*
X49938806Y-143243106D02*
X49880681Y-143222767D01*
X48465003Y-142803541D02*
X48421459Y-142759997D01*
X51531894Y-142913807D02*
X51518105Y-143036194D01*
X50650000Y-142700000D02*
X50600000Y-142700000D01*
X48738806Y-143243106D02*
X48680681Y-143222767D01*
X50384996Y-142803541D02*
X50352233Y-142855682D01*
X48800000Y-143250000D02*
X48738806Y-143243106D01*
X51200000Y-143250000D02*
X51138806Y-143243106D01*
X37600000Y-151100000D02*
X37400000Y-151300000D01*
X50221459Y-143190004D02*
X50169318Y-143222767D01*
X50769318Y-142727234D02*
X50711193Y-142706895D01*
X38500000Y-147900000D02*
X38300000Y-147900000D01*
X49752233Y-143094319D02*
X49731894Y-143036194D01*
X49400000Y-142700000D02*
X49338806Y-142706895D01*
X48628540Y-143190004D02*
X48584996Y-143146460D01*
X34800000Y-152300000D02*
X34800000Y-154700000D01*
X48680681Y-143222767D02*
X48628540Y-143190004D01*
X48850000Y-143250000D02*
X48800000Y-143250000D01*
X48584996Y-143146460D02*
X48552233Y-143094319D01*
X48311193Y-142706895D02*
X48250000Y-142700000D01*
X50984996Y-143146460D02*
X50952233Y-143094319D01*
X50600000Y-142700000D02*
X50538806Y-142706895D01*
X49697766Y-142855682D02*
X49665003Y-142803541D01*
X51552233Y-142855682D02*
X51531894Y-142913807D01*
X50538806Y-142706895D02*
X50480681Y-142727234D01*
X51421459Y-143190004D02*
X51369318Y-143222767D01*
X50711193Y-142706895D02*
X50650000Y-142700000D01*
X53900000Y-143400000D02*
X53200000Y-142700000D01*
X51028540Y-143190004D02*
X50984996Y-143146460D01*
X48250000Y-142700000D02*
X43700000Y-142700000D01*
X49131894Y-142913807D02*
X49118105Y-143036194D01*
X50428540Y-142759997D02*
X50384996Y-142803541D01*
X49065003Y-143146460D02*
X49021459Y-143190004D01*
X51584996Y-142803541D02*
X51552233Y-142855682D01*
X51369318Y-143222767D02*
X51311193Y-143243106D01*
X35800000Y-151300000D02*
X34800000Y-152300000D01*
X38300000Y-147900000D02*
X37600000Y-148600000D01*
X50000000Y-143250000D02*
X49938806Y-143243106D01*
X48969318Y-143222767D02*
X48911193Y-143243106D01*
X49621459Y-142759997D02*
X49569318Y-142727234D01*
X49731894Y-143036194D02*
X49718105Y-142913807D01*
X48518105Y-142913807D02*
X48497766Y-142855682D01*
X43700000Y-142700000D02*
X38500000Y-147900000D01*
X37400000Y-151300000D02*
X35800000Y-151300000D01*
X51518105Y-143036194D02*
X51497766Y-143094319D01*
X50931894Y-143036194D02*
X50918105Y-142913807D01*
X49338806Y-142706895D02*
X49280681Y-142727234D01*
X48531894Y-143036194D02*
X48518105Y-142913807D01*
X49118105Y-143036194D02*
X49097766Y-143094319D01*
X53200000Y-142700000D02*
X51800000Y-142700000D01*
X48421459Y-142759997D02*
X48369318Y-142727234D01*
X48911193Y-143243106D02*
X48850000Y-143250000D01*
X49718105Y-142913807D02*
X49697766Y-142855682D01*
X50952233Y-143094319D02*
X50931894Y-143036194D01*
X51628540Y-142759997D02*
X51584996Y-142803541D01*
X49665003Y-142803541D02*
X49621459Y-142759997D01*
X51800000Y-142700000D02*
X51738806Y-142706895D01*
X50352233Y-142855682D02*
X50331894Y-142913807D01*
X49280681Y-142727234D02*
X49228540Y-142759997D01*
X51311193Y-143243106D02*
X51250000Y-143250000D01*
X51080681Y-143222767D02*
X51028540Y-143190004D01*
X50897766Y-142855682D02*
X50865003Y-142803541D01*
X50297766Y-143094319D02*
X50265003Y-143146460D01*
X51680681Y-142727234D02*
X51628540Y-142759997D01*
%TO.N,LED[2]*%
X69800000Y-128750000D02*
X69800000Y-133150000D01*
X69150000Y-128100000D02*
X69800000Y-128750000D01*
D22*
X69150000Y-86600000D02*
X69150000Y-128100000D01*
%TO.N,/POWER SUPPLY/PG2*%
D23*
X83610000Y-118710000D02*
X83834500Y-118485500D01*
X88400000Y-105610000D02*
X82390000Y-105610000D01*
X80810000Y-187300000D02*
X87060000Y-181050000D01*
X40860000Y-187300000D02*
X80810000Y-187300000D01*
X87060000Y-181050000D02*
X87060000Y-150110000D01*
X32920000Y-179390000D02*
X32950000Y-179390000D01*
X89889500Y-119010000D02*
X89889500Y-107079500D01*
X88410000Y-105600000D02*
X88400000Y-105610000D01*
X89889500Y-107079500D02*
X88410000Y-105600000D01*
X89365000Y-118485500D02*
X89889500Y-119010000D01*
X89889500Y-147280500D02*
X89889500Y-119010000D01*
X83834500Y-118485500D02*
X89365000Y-118485500D01*
X87060000Y-150110000D02*
X89889500Y-147280500D01*
X32950000Y-179390000D02*
X40860000Y-187300000D01*
%TO.N,ADC_CLK_EN*%
D25*
X52250000Y-178700000D02*
X53700000Y-180150000D01*
X73650000Y-184000000D02*
X75100000Y-182550000D01*
X24500000Y-156200000D02*
X24500000Y-161000000D01*
X24300000Y-150600000D02*
X24300000Y-153800000D01*
X24500000Y-161000000D02*
X25700000Y-162200000D01*
X53700000Y-182800000D02*
X54900000Y-184000000D01*
X27300000Y-162200000D02*
X43800000Y-178700000D01*
X43800000Y-178700000D02*
X52250000Y-178700000D01*
X24675000Y-135800000D02*
X24675000Y-137200000D01*
X54900000Y-184000000D02*
X73650000Y-184000000D01*
X75100000Y-182550000D02*
X76050000Y-182550000D01*
X25000000Y-149900000D02*
X24300000Y-150600000D01*
X24300000Y-153800000D02*
X25000000Y-154500000D01*
X25000000Y-154500000D02*
X25000000Y-155700000D01*
X25000000Y-137525000D02*
X25000000Y-149900000D01*
X25000000Y-155700000D02*
X24500000Y-156200000D01*
X24675000Y-137200000D02*
X25000000Y-137525000D01*
X25700000Y-162200000D02*
X27300000Y-162200000D01*
X53700000Y-180150000D02*
X53700000Y-182800000D01*
%TD*%
M02*
