%TF.GenerationSoftware,KiCad,Pcbnew,10.0.1*%
%TF.CreationDate,2026-04-20T10:58:23+08:00*%
%TF.ProjectId,Scopefun_v3,53636f70-6566-4756-9e5f-76332e6b6963,rev?*%
%TF.SameCoordinates,Original*%
%TF.FileFunction,Soldermask,Bot*%
%TF.FilePolarity,Negative*%
%FSLAX46Y46*%
G04 Gerber Fmt 4.6, Leading zero omitted, Abs format (unit mm)*
G04 Created by KiCad (PCBNEW 10.0.1) date 2026-04-20 10:58:23*
%MOMM*%
%LPD*%
G01*
G04 APERTURE LIST*
G04 APERTURE END LIST*
G36*
X22459190Y-30418906D02*
G01*
X22459189Y-30418906D01*
X22459191Y-30418907D01*
X22495155Y-30468407D01*
X22500000Y-30499000D01*
X22500000Y-189301000D01*
X22481093Y-189359191D01*
X22431593Y-189395155D01*
X22401000Y-189400000D01*
X22400998Y-189400000D01*
X20599003Y-189400000D01*
X20599000Y-189400000D01*
X20598997Y-189399999D01*
X20598996Y-189399999D01*
X20540809Y-189381093D01*
X20504845Y-189331593D01*
X20500000Y-189301000D01*
X20500000Y-30499000D01*
X20500000Y-30498996D01*
X20518906Y-30440810D01*
X20549053Y-30418907D01*
X20568407Y-30404845D01*
X20599000Y-30400000D01*
X22401000Y-30400000D01*
X22401003Y-30400000D01*
X22459190Y-30418906D01*
G37*
G36*
X87555151Y-186057301D02*
G01*
X87756623Y-186122763D01*
X87945373Y-186218936D01*
X88116755Y-186343452D01*
X88266548Y-186493245D01*
X88391064Y-186664627D01*
X88487237Y-186853377D01*
X88552699Y-187054849D01*
X88585838Y-187264080D01*
X88585838Y-187475920D01*
X88552699Y-187685151D01*
X88487237Y-187886623D01*
X88391064Y-188075373D01*
X88266548Y-188246755D01*
X88116755Y-188396548D01*
X87945373Y-188521064D01*
X87756623Y-188617237D01*
X87555151Y-188682699D01*
X87345920Y-188715838D01*
X87134080Y-188715838D01*
X86924849Y-188682699D01*
X86723377Y-188617237D01*
X86534627Y-188521064D01*
X86363245Y-188396548D01*
X86213452Y-188246755D01*
X86088936Y-188075373D01*
X85992763Y-187886623D01*
X85927301Y-187685151D01*
X85894162Y-187475920D01*
X85894162Y-187264080D01*
X85927301Y-187054849D01*
X85992763Y-186853377D01*
X86088936Y-186664627D01*
X86213452Y-186493245D01*
X86363245Y-186343452D01*
X86534627Y-186218936D01*
X86723377Y-186122763D01*
X86924849Y-186057301D01*
X87134080Y-186024162D01*
X87345920Y-186024162D01*
X87555151Y-186057301D01*
G37*
G36*
X78151067Y-183905493D02*
G01*
X78302875Y-183968374D01*
X78439498Y-184059663D01*
X78555687Y-184175852D01*
X78646976Y-184312475D01*
X78709857Y-184464283D01*
X78741914Y-184625442D01*
X78741914Y-184789758D01*
X78709857Y-184950917D01*
X78646976Y-185102725D01*
X78555687Y-185239348D01*
X78439498Y-185355537D01*
X78302875Y-185446826D01*
X78151067Y-185509707D01*
X77989908Y-185541764D01*
X77825592Y-185541764D01*
X77664433Y-185509707D01*
X77512625Y-185446826D01*
X77376002Y-185355537D01*
X77259813Y-185239348D01*
X77168524Y-185102725D01*
X77105643Y-184950917D01*
X77073586Y-184789758D01*
X77073586Y-184625442D01*
X77105643Y-184464283D01*
X77168524Y-184312475D01*
X77259813Y-184175852D01*
X77376002Y-184059663D01*
X77512625Y-183968374D01*
X77664433Y-183905493D01*
X77825592Y-183873436D01*
X77989908Y-183873436D01*
X78151067Y-183905493D01*
G37*
G36*
X80729567Y-183905493D02*
G01*
X80881375Y-183968374D01*
X81017998Y-184059663D01*
X81134187Y-184175852D01*
X81225476Y-184312475D01*
X81288357Y-184464283D01*
X81320414Y-184625442D01*
X81320414Y-184789758D01*
X81288357Y-184950917D01*
X81225476Y-185102725D01*
X81134187Y-185239348D01*
X81017998Y-185355537D01*
X80881375Y-185446826D01*
X80729567Y-185509707D01*
X80568408Y-185541764D01*
X80404092Y-185541764D01*
X80242933Y-185509707D01*
X80091125Y-185446826D01*
X79954502Y-185355537D01*
X79838313Y-185239348D01*
X79747024Y-185102725D01*
X79684143Y-184950917D01*
X79652086Y-184789758D01*
X79652086Y-184625442D01*
X79684143Y-184464283D01*
X79747024Y-184312475D01*
X79838313Y-184175852D01*
X79954502Y-184059663D01*
X80091125Y-183968374D01*
X80242933Y-183905493D01*
X80404092Y-183873436D01*
X80568408Y-183873436D01*
X80729567Y-183905493D01*
G37*
G36*
X87555151Y-181957301D02*
G01*
X87756623Y-182022763D01*
X87945373Y-182118936D01*
X88116755Y-182243452D01*
X88266548Y-182393245D01*
X88391064Y-182564627D01*
X88487237Y-182753377D01*
X88552699Y-182954849D01*
X88585838Y-183164080D01*
X88585838Y-183375920D01*
X88552699Y-183585151D01*
X88487237Y-183786623D01*
X88391064Y-183975373D01*
X88266548Y-184146755D01*
X88116755Y-184296548D01*
X87945373Y-184421064D01*
X87756623Y-184517237D01*
X87555151Y-184582699D01*
X87345920Y-184615838D01*
X87134080Y-184615838D01*
X86924849Y-184582699D01*
X86723377Y-184517237D01*
X86534627Y-184421064D01*
X86363245Y-184296548D01*
X86213452Y-184146755D01*
X86088936Y-183975373D01*
X85992763Y-183786623D01*
X85927301Y-183585151D01*
X85894162Y-183375920D01*
X85894162Y-183164080D01*
X85927301Y-182954849D01*
X85992763Y-182753377D01*
X86088936Y-182564627D01*
X86213452Y-182393245D01*
X86363245Y-182243452D01*
X86534627Y-182118936D01*
X86723377Y-182022763D01*
X86924849Y-181957301D01*
X87134080Y-181924162D01*
X87345920Y-181924162D01*
X87555151Y-181957301D01*
G37*
G36*
X51230168Y-179741445D02*
G01*
X51454025Y-179814181D01*
X51663748Y-179921040D01*
X51854172Y-180059391D01*
X52020609Y-180225828D01*
X52158960Y-180416252D01*
X52265819Y-180625975D01*
X52338555Y-180849832D01*
X52375376Y-181082311D01*
X52375376Y-181317689D01*
X52338555Y-181550168D01*
X52265819Y-181774025D01*
X52158960Y-181983748D01*
X52020609Y-182174172D01*
X51854172Y-182340609D01*
X51663748Y-182478960D01*
X51454025Y-182585819D01*
X51230168Y-182658555D01*
X50997689Y-182695376D01*
X50762311Y-182695376D01*
X50529832Y-182658555D01*
X50305975Y-182585819D01*
X50096252Y-182478960D01*
X49905828Y-182340609D01*
X49739391Y-182174172D01*
X49601040Y-181983748D01*
X49494181Y-181774025D01*
X49421445Y-181550168D01*
X49384624Y-181317689D01*
X49384624Y-181082311D01*
X49421445Y-180849832D01*
X49494181Y-180625975D01*
X49601040Y-180416252D01*
X49739391Y-180225828D01*
X49905828Y-180059391D01*
X50096252Y-179921040D01*
X50305975Y-179814181D01*
X50529832Y-179741445D01*
X50762311Y-179704624D01*
X50997689Y-179704624D01*
X51230168Y-179741445D01*
G37*
G36*
X63270168Y-179741445D02*
G01*
X63494025Y-179814181D01*
X63703748Y-179921040D01*
X63894172Y-180059391D01*
X64060609Y-180225828D01*
X64198960Y-180416252D01*
X64305819Y-180625975D01*
X64378555Y-180849832D01*
X64415376Y-181082311D01*
X64415376Y-181317689D01*
X64378555Y-181550168D01*
X64305819Y-181774025D01*
X64198960Y-181983748D01*
X64060609Y-182174172D01*
X63894172Y-182340609D01*
X63703748Y-182478960D01*
X63494025Y-182585819D01*
X63270168Y-182658555D01*
X63037689Y-182695376D01*
X62802311Y-182695376D01*
X62569832Y-182658555D01*
X62345975Y-182585819D01*
X62136252Y-182478960D01*
X61945828Y-182340609D01*
X61779391Y-182174172D01*
X61641040Y-181983748D01*
X61534181Y-181774025D01*
X61461445Y-181550168D01*
X61424624Y-181317689D01*
X61424624Y-181082311D01*
X61461445Y-180849832D01*
X61534181Y-180625975D01*
X61641040Y-180416252D01*
X61779391Y-180225828D01*
X61945828Y-180059391D01*
X62136252Y-179921040D01*
X62345975Y-179814181D01*
X62569832Y-179741445D01*
X62802311Y-179704624D01*
X63037689Y-179704624D01*
X63270168Y-179741445D01*
G37*
G36*
X55871197Y-177760811D02*
G01*
X56009204Y-177817976D01*
X56133408Y-177900966D01*
X56239034Y-178006592D01*
X56322024Y-178130796D01*
X56379189Y-178268803D01*
X56408331Y-178415311D01*
X56408331Y-178564689D01*
X56379189Y-178711197D01*
X56322024Y-178849204D01*
X56239034Y-178973408D01*
X56133408Y-179079034D01*
X56009204Y-179162024D01*
X55871197Y-179219189D01*
X55724689Y-179248331D01*
X55575311Y-179248331D01*
X55428803Y-179219189D01*
X55290796Y-179162024D01*
X55166592Y-179079034D01*
X55060966Y-178973408D01*
X54977976Y-178849204D01*
X54920811Y-178711197D01*
X54891669Y-178564689D01*
X54891669Y-178415311D01*
X54920811Y-178268803D01*
X54977976Y-178130796D01*
X55060966Y-178006592D01*
X55166592Y-177900966D01*
X55290796Y-177817976D01*
X55428803Y-177760811D01*
X55575311Y-177731669D01*
X55724689Y-177731669D01*
X55871197Y-177760811D01*
G37*
G36*
X58371197Y-177760811D02*
G01*
X58509204Y-177817976D01*
X58633408Y-177900966D01*
X58739034Y-178006592D01*
X58822024Y-178130796D01*
X58879189Y-178268803D01*
X58908331Y-178415311D01*
X58908331Y-178564689D01*
X58879189Y-178711197D01*
X58822024Y-178849204D01*
X58739034Y-178973408D01*
X58633408Y-179079034D01*
X58509204Y-179162024D01*
X58371197Y-179219189D01*
X58224689Y-179248331D01*
X58075311Y-179248331D01*
X57928803Y-179219189D01*
X57790796Y-179162024D01*
X57666592Y-179079034D01*
X57560966Y-178973408D01*
X57477976Y-178849204D01*
X57420811Y-178711197D01*
X57391669Y-178564689D01*
X57391669Y-178415311D01*
X57420811Y-178268803D01*
X57477976Y-178130796D01*
X57560966Y-178006592D01*
X57666592Y-177900966D01*
X57790796Y-177817976D01*
X57928803Y-177760811D01*
X58075311Y-177731669D01*
X58224689Y-177731669D01*
X58371197Y-177760811D01*
G37*
G36*
X50825000Y-178750000D02*
G01*
X49775000Y-178750000D01*
X49775000Y-178150000D01*
X50825000Y-178150000D01*
X50825000Y-178750000D01*
G37*
G36*
X53525000Y-178750000D02*
G01*
X52475000Y-178750000D01*
X52475000Y-178150000D01*
X53525000Y-178150000D01*
X53525000Y-178750000D01*
G37*
G36*
X50825000Y-177800000D02*
G01*
X49775000Y-177800000D01*
X49775000Y-177200000D01*
X50825000Y-177200000D01*
X50825000Y-177800000D01*
G37*
G36*
X53525000Y-177800000D02*
G01*
X52475000Y-177800000D01*
X52475000Y-177200000D01*
X53525000Y-177200000D01*
X53525000Y-177800000D01*
G37*
G36*
X71600000Y-177700000D02*
G01*
X70300000Y-177700000D01*
X70300000Y-176700000D01*
X71600000Y-176700000D01*
X71600000Y-177700000D01*
G37*
G36*
X76450000Y-177700000D02*
G01*
X75150000Y-177700000D01*
X75150000Y-176700000D01*
X76450000Y-176700000D01*
X76450000Y-177700000D01*
G37*
G36*
X78450000Y-177700000D02*
G01*
X77150000Y-177700000D01*
X77150000Y-176700000D01*
X78450000Y-176700000D01*
X78450000Y-177700000D01*
G37*
G36*
X55871197Y-175760811D02*
G01*
X56009204Y-175817976D01*
X56133408Y-175900966D01*
X56239034Y-176006592D01*
X56322024Y-176130796D01*
X56379189Y-176268803D01*
X56408331Y-176415311D01*
X56408331Y-176564689D01*
X56379189Y-176711197D01*
X56322024Y-176849204D01*
X56239034Y-176973408D01*
X56133408Y-177079034D01*
X56009204Y-177162024D01*
X55871197Y-177219189D01*
X55724689Y-177248331D01*
X55575311Y-177248331D01*
X55428803Y-177219189D01*
X55290796Y-177162024D01*
X55166592Y-177079034D01*
X55060966Y-176973408D01*
X54977976Y-176849204D01*
X54920811Y-176711197D01*
X54891669Y-176564689D01*
X54891669Y-176415311D01*
X54920811Y-176268803D01*
X54977976Y-176130796D01*
X55060966Y-176006592D01*
X55166592Y-175900966D01*
X55290796Y-175817976D01*
X55428803Y-175760811D01*
X55575311Y-175731669D01*
X55724689Y-175731669D01*
X55871197Y-175760811D01*
G37*
G36*
X58371197Y-175760811D02*
G01*
X58509204Y-175817976D01*
X58633408Y-175900966D01*
X58739034Y-176006592D01*
X58822024Y-176130796D01*
X58879189Y-176268803D01*
X58908331Y-176415311D01*
X58908331Y-176564689D01*
X58879189Y-176711197D01*
X58822024Y-176849204D01*
X58739034Y-176973408D01*
X58633408Y-177079034D01*
X58509204Y-177162024D01*
X58371197Y-177219189D01*
X58224689Y-177248331D01*
X58075311Y-177248331D01*
X57928803Y-177219189D01*
X57790796Y-177162024D01*
X57666592Y-177079034D01*
X57560966Y-176973408D01*
X57477976Y-176849204D01*
X57420811Y-176711197D01*
X57391669Y-176564689D01*
X57391669Y-176415311D01*
X57420811Y-176268803D01*
X57477976Y-176130796D01*
X57560966Y-176006592D01*
X57666592Y-175900966D01*
X57790796Y-175817976D01*
X57928803Y-175760811D01*
X58075311Y-175731669D01*
X58224689Y-175731669D01*
X58371197Y-175760811D01*
G37*
G36*
X50825000Y-176850000D02*
G01*
X49775000Y-176850000D01*
X49775000Y-176250000D01*
X50825000Y-176250000D01*
X50825000Y-176850000D01*
G37*
G36*
X53525000Y-176850000D02*
G01*
X52475000Y-176850000D01*
X52475000Y-176250000D01*
X53525000Y-176250000D01*
X53525000Y-176850000D01*
G37*
G36*
X71600000Y-175700000D02*
G01*
X70300000Y-175700000D01*
X70300000Y-174700000D01*
X71600000Y-174700000D01*
X71600000Y-175700000D01*
G37*
G36*
X76450000Y-175700000D02*
G01*
X75150000Y-175700000D01*
X75150000Y-174700000D01*
X76450000Y-174700000D01*
X76450000Y-175700000D01*
G37*
G36*
X78450000Y-175700000D02*
G01*
X77150000Y-175700000D01*
X77150000Y-174700000D01*
X78450000Y-174700000D01*
X78450000Y-175700000D01*
G37*
G36*
X52718858Y-173895133D02*
G01*
X52728316Y-173895133D01*
X52755563Y-173902433D01*
X52824099Y-173916066D01*
X52856448Y-173929465D01*
X52879610Y-173935672D01*
X52900377Y-173947662D01*
X52932722Y-173961060D01*
X52990816Y-173999877D01*
X53015257Y-174013988D01*
X53021946Y-174020677D01*
X53030481Y-174026380D01*
X53113619Y-174109518D01*
X53119321Y-174118052D01*
X53126012Y-174124743D01*
X53140124Y-174149186D01*
X53178939Y-174207277D01*
X53192335Y-174239618D01*
X53204328Y-174260390D01*
X53210535Y-174283555D01*
X53223933Y-174315900D01*
X53237565Y-174384433D01*
X53244867Y-174411684D01*
X53244867Y-174421141D01*
X53246870Y-174431211D01*
X53246870Y-174548788D01*
X53244867Y-174558857D01*
X53244867Y-174568316D01*
X53237564Y-174595569D01*
X53223933Y-174664099D01*
X53210535Y-174696441D01*
X53204328Y-174719610D01*
X53192334Y-174740383D01*
X53178939Y-174772722D01*
X53140128Y-174830805D01*
X53126012Y-174855257D01*
X53119319Y-174861949D01*
X53113619Y-174870481D01*
X53030481Y-174953619D01*
X53021949Y-174959319D01*
X53015257Y-174966012D01*
X52990805Y-174980128D01*
X52932722Y-175018939D01*
X52900383Y-175032334D01*
X52879610Y-175044328D01*
X52856441Y-175050535D01*
X52824099Y-175063933D01*
X52755569Y-175077564D01*
X52728316Y-175084867D01*
X52718858Y-175084867D01*
X52708788Y-175086870D01*
X52591212Y-175086870D01*
X52581142Y-175084867D01*
X52571684Y-175084867D01*
X52544432Y-175077564D01*
X52475900Y-175063933D01*
X52443555Y-175050535D01*
X52420390Y-175044328D01*
X52399618Y-175032335D01*
X52367277Y-175018939D01*
X52309186Y-174980124D01*
X52284743Y-174966012D01*
X52278052Y-174959321D01*
X52269518Y-174953619D01*
X52186380Y-174870481D01*
X52180677Y-174861946D01*
X52173988Y-174855257D01*
X52159877Y-174830816D01*
X52121060Y-174772722D01*
X52107662Y-174740377D01*
X52095672Y-174719610D01*
X52089465Y-174696448D01*
X52076066Y-174664099D01*
X52062433Y-174595563D01*
X52055133Y-174568316D01*
X52055133Y-174558858D01*
X52053130Y-174548788D01*
X52053130Y-174431211D01*
X52055133Y-174421140D01*
X52055133Y-174411684D01*
X52062433Y-174384439D01*
X52076066Y-174315900D01*
X52089466Y-174283548D01*
X52095672Y-174260390D01*
X52107660Y-174239624D01*
X52121060Y-174207277D01*
X52159881Y-174149175D01*
X52173988Y-174124743D01*
X52180675Y-174118055D01*
X52186380Y-174109518D01*
X52269518Y-174026380D01*
X52278055Y-174020675D01*
X52284743Y-174013988D01*
X52309175Y-173999881D01*
X52367277Y-173961060D01*
X52399624Y-173947660D01*
X52420390Y-173935672D01*
X52443548Y-173929466D01*
X52475900Y-173916066D01*
X52544437Y-173902433D01*
X52571684Y-173895133D01*
X52581142Y-173895133D01*
X52591212Y-173893130D01*
X52708788Y-173893130D01*
X52718858Y-173895133D01*
G37*
G36*
X54468858Y-173895133D02*
G01*
X54478316Y-173895133D01*
X54505563Y-173902433D01*
X54574099Y-173916066D01*
X54606448Y-173929465D01*
X54629610Y-173935672D01*
X54650377Y-173947662D01*
X54682722Y-173961060D01*
X54740816Y-173999877D01*
X54765257Y-174013988D01*
X54771946Y-174020677D01*
X54780481Y-174026380D01*
X54863619Y-174109518D01*
X54869321Y-174118052D01*
X54876012Y-174124743D01*
X54890124Y-174149186D01*
X54928939Y-174207277D01*
X54942335Y-174239618D01*
X54954328Y-174260390D01*
X54960535Y-174283555D01*
X54973933Y-174315900D01*
X54987565Y-174384433D01*
X54994867Y-174411684D01*
X54994867Y-174421141D01*
X54996870Y-174431211D01*
X54996870Y-174548788D01*
X54994867Y-174558857D01*
X54994867Y-174568316D01*
X54987564Y-174595569D01*
X54973933Y-174664099D01*
X54960535Y-174696441D01*
X54954328Y-174719610D01*
X54942334Y-174740383D01*
X54928939Y-174772722D01*
X54890128Y-174830805D01*
X54876012Y-174855257D01*
X54869319Y-174861949D01*
X54863619Y-174870481D01*
X54780481Y-174953619D01*
X54771949Y-174959319D01*
X54765257Y-174966012D01*
X54740805Y-174980128D01*
X54682722Y-175018939D01*
X54650383Y-175032334D01*
X54629610Y-175044328D01*
X54606441Y-175050535D01*
X54574099Y-175063933D01*
X54505569Y-175077564D01*
X54478316Y-175084867D01*
X54468858Y-175084867D01*
X54458788Y-175086870D01*
X54341212Y-175086870D01*
X54331142Y-175084867D01*
X54321684Y-175084867D01*
X54294432Y-175077564D01*
X54225900Y-175063933D01*
X54193555Y-175050535D01*
X54170390Y-175044328D01*
X54149618Y-175032335D01*
X54117277Y-175018939D01*
X54059186Y-174980124D01*
X54034743Y-174966012D01*
X54028052Y-174959321D01*
X54019518Y-174953619D01*
X53936380Y-174870481D01*
X53930677Y-174861946D01*
X53923988Y-174855257D01*
X53909877Y-174830816D01*
X53871060Y-174772722D01*
X53857662Y-174740377D01*
X53845672Y-174719610D01*
X53839465Y-174696448D01*
X53826066Y-174664099D01*
X53812433Y-174595563D01*
X53805133Y-174568316D01*
X53805133Y-174558858D01*
X53803130Y-174548788D01*
X53803130Y-174431211D01*
X53805133Y-174421140D01*
X53805133Y-174411684D01*
X53812433Y-174384439D01*
X53826066Y-174315900D01*
X53839466Y-174283548D01*
X53845672Y-174260390D01*
X53857660Y-174239624D01*
X53871060Y-174207277D01*
X53909881Y-174149175D01*
X53923988Y-174124743D01*
X53930675Y-174118055D01*
X53936380Y-174109518D01*
X54019518Y-174026380D01*
X54028055Y-174020675D01*
X54034743Y-174013988D01*
X54059175Y-173999881D01*
X54117277Y-173961060D01*
X54149624Y-173947660D01*
X54170390Y-173935672D01*
X54193548Y-173929466D01*
X54225900Y-173916066D01*
X54294437Y-173902433D01*
X54321684Y-173895133D01*
X54331142Y-173895133D01*
X54341212Y-173893130D01*
X54458788Y-173893130D01*
X54468858Y-173895133D01*
G37*
G36*
X56968858Y-173895133D02*
G01*
X56978316Y-173895133D01*
X57005563Y-173902433D01*
X57074099Y-173916066D01*
X57106448Y-173929465D01*
X57129610Y-173935672D01*
X57150377Y-173947662D01*
X57182722Y-173961060D01*
X57240816Y-173999877D01*
X57265257Y-174013988D01*
X57271946Y-174020677D01*
X57280481Y-174026380D01*
X57363619Y-174109518D01*
X57369321Y-174118052D01*
X57376012Y-174124743D01*
X57390124Y-174149186D01*
X57428939Y-174207277D01*
X57442335Y-174239618D01*
X57454328Y-174260390D01*
X57460535Y-174283555D01*
X57473933Y-174315900D01*
X57487565Y-174384433D01*
X57494867Y-174411684D01*
X57494867Y-174421141D01*
X57496870Y-174431211D01*
X57496870Y-174548788D01*
X57494867Y-174558857D01*
X57494867Y-174568316D01*
X57487564Y-174595569D01*
X57473933Y-174664099D01*
X57460535Y-174696441D01*
X57454328Y-174719610D01*
X57442334Y-174740383D01*
X57428939Y-174772722D01*
X57390128Y-174830805D01*
X57376012Y-174855257D01*
X57369319Y-174861949D01*
X57363619Y-174870481D01*
X57280481Y-174953619D01*
X57271949Y-174959319D01*
X57265257Y-174966012D01*
X57240805Y-174980128D01*
X57182722Y-175018939D01*
X57150383Y-175032334D01*
X57129610Y-175044328D01*
X57106441Y-175050535D01*
X57074099Y-175063933D01*
X57005569Y-175077564D01*
X56978316Y-175084867D01*
X56968858Y-175084867D01*
X56958788Y-175086870D01*
X56841212Y-175086870D01*
X56831142Y-175084867D01*
X56821684Y-175084867D01*
X56794432Y-175077564D01*
X56725900Y-175063933D01*
X56693555Y-175050535D01*
X56670390Y-175044328D01*
X56649618Y-175032335D01*
X56617277Y-175018939D01*
X56559186Y-174980124D01*
X56534743Y-174966012D01*
X56528052Y-174959321D01*
X56519518Y-174953619D01*
X56436380Y-174870481D01*
X56430677Y-174861946D01*
X56423988Y-174855257D01*
X56409877Y-174830816D01*
X56371060Y-174772722D01*
X56357662Y-174740377D01*
X56345672Y-174719610D01*
X56339465Y-174696448D01*
X56326066Y-174664099D01*
X56312433Y-174595563D01*
X56305133Y-174568316D01*
X56305133Y-174558858D01*
X56303130Y-174548788D01*
X56303130Y-174431211D01*
X56305133Y-174421140D01*
X56305133Y-174411684D01*
X56312433Y-174384439D01*
X56326066Y-174315900D01*
X56339466Y-174283548D01*
X56345672Y-174260390D01*
X56357660Y-174239624D01*
X56371060Y-174207277D01*
X56409881Y-174149175D01*
X56423988Y-174124743D01*
X56430675Y-174118055D01*
X56436380Y-174109518D01*
X56519518Y-174026380D01*
X56528055Y-174020675D01*
X56534743Y-174013988D01*
X56559175Y-173999881D01*
X56617277Y-173961060D01*
X56649624Y-173947660D01*
X56670390Y-173935672D01*
X56693548Y-173929466D01*
X56725900Y-173916066D01*
X56794437Y-173902433D01*
X56821684Y-173895133D01*
X56831142Y-173895133D01*
X56841212Y-173893130D01*
X56958788Y-173893130D01*
X56968858Y-173895133D01*
G37*
G36*
X59468858Y-173895133D02*
G01*
X59478316Y-173895133D01*
X59505563Y-173902433D01*
X59574099Y-173916066D01*
X59606448Y-173929465D01*
X59629610Y-173935672D01*
X59650377Y-173947662D01*
X59682722Y-173961060D01*
X59740816Y-173999877D01*
X59765257Y-174013988D01*
X59771946Y-174020677D01*
X59780481Y-174026380D01*
X59863619Y-174109518D01*
X59869321Y-174118052D01*
X59876012Y-174124743D01*
X59890124Y-174149186D01*
X59928939Y-174207277D01*
X59942335Y-174239618D01*
X59954328Y-174260390D01*
X59960535Y-174283555D01*
X59973933Y-174315900D01*
X59987565Y-174384433D01*
X59994867Y-174411684D01*
X59994867Y-174421141D01*
X59996870Y-174431211D01*
X59996870Y-174548788D01*
X59994867Y-174558857D01*
X59994867Y-174568316D01*
X59987564Y-174595569D01*
X59973933Y-174664099D01*
X59960535Y-174696441D01*
X59954328Y-174719610D01*
X59942334Y-174740383D01*
X59928939Y-174772722D01*
X59890128Y-174830805D01*
X59876012Y-174855257D01*
X59869319Y-174861949D01*
X59863619Y-174870481D01*
X59780481Y-174953619D01*
X59771949Y-174959319D01*
X59765257Y-174966012D01*
X59740805Y-174980128D01*
X59682722Y-175018939D01*
X59650383Y-175032334D01*
X59629610Y-175044328D01*
X59606441Y-175050535D01*
X59574099Y-175063933D01*
X59505569Y-175077564D01*
X59478316Y-175084867D01*
X59468858Y-175084867D01*
X59458788Y-175086870D01*
X59341212Y-175086870D01*
X59331142Y-175084867D01*
X59321684Y-175084867D01*
X59294432Y-175077564D01*
X59225900Y-175063933D01*
X59193555Y-175050535D01*
X59170390Y-175044328D01*
X59149618Y-175032335D01*
X59117277Y-175018939D01*
X59059186Y-174980124D01*
X59034743Y-174966012D01*
X59028052Y-174959321D01*
X59019518Y-174953619D01*
X58936380Y-174870481D01*
X58930677Y-174861946D01*
X58923988Y-174855257D01*
X58909877Y-174830816D01*
X58871060Y-174772722D01*
X58857662Y-174740377D01*
X58845672Y-174719610D01*
X58839465Y-174696448D01*
X58826066Y-174664099D01*
X58812433Y-174595563D01*
X58805133Y-174568316D01*
X58805133Y-174558858D01*
X58803130Y-174548788D01*
X58803130Y-174431211D01*
X58805133Y-174421140D01*
X58805133Y-174411684D01*
X58812433Y-174384439D01*
X58826066Y-174315900D01*
X58839466Y-174283548D01*
X58845672Y-174260390D01*
X58857660Y-174239624D01*
X58871060Y-174207277D01*
X58909881Y-174149175D01*
X58923988Y-174124743D01*
X58930675Y-174118055D01*
X58936380Y-174109518D01*
X59019518Y-174026380D01*
X59028055Y-174020675D01*
X59034743Y-174013988D01*
X59059175Y-173999881D01*
X59117277Y-173961060D01*
X59149624Y-173947660D01*
X59170390Y-173935672D01*
X59193548Y-173929466D01*
X59225900Y-173916066D01*
X59294437Y-173902433D01*
X59321684Y-173895133D01*
X59331142Y-173895133D01*
X59341212Y-173893130D01*
X59458788Y-173893130D01*
X59468858Y-173895133D01*
G37*
G36*
X61218858Y-173895133D02*
G01*
X61228316Y-173895133D01*
X61255563Y-173902433D01*
X61324099Y-173916066D01*
X61356448Y-173929465D01*
X61379610Y-173935672D01*
X61400377Y-173947662D01*
X61432722Y-173961060D01*
X61490816Y-173999877D01*
X61515257Y-174013988D01*
X61521946Y-174020677D01*
X61530481Y-174026380D01*
X61613619Y-174109518D01*
X61619321Y-174118052D01*
X61626012Y-174124743D01*
X61640124Y-174149186D01*
X61678939Y-174207277D01*
X61692335Y-174239618D01*
X61704328Y-174260390D01*
X61710535Y-174283555D01*
X61723933Y-174315900D01*
X61737565Y-174384433D01*
X61744867Y-174411684D01*
X61744867Y-174421141D01*
X61746870Y-174431211D01*
X61746870Y-174548788D01*
X61744867Y-174558857D01*
X61744867Y-174568316D01*
X61737564Y-174595569D01*
X61723933Y-174664099D01*
X61710535Y-174696441D01*
X61704328Y-174719610D01*
X61692334Y-174740383D01*
X61678939Y-174772722D01*
X61640128Y-174830805D01*
X61626012Y-174855257D01*
X61619319Y-174861949D01*
X61613619Y-174870481D01*
X61530481Y-174953619D01*
X61521949Y-174959319D01*
X61515257Y-174966012D01*
X61490805Y-174980128D01*
X61432722Y-175018939D01*
X61400383Y-175032334D01*
X61379610Y-175044328D01*
X61356441Y-175050535D01*
X61324099Y-175063933D01*
X61255569Y-175077564D01*
X61228316Y-175084867D01*
X61218858Y-175084867D01*
X61208788Y-175086870D01*
X61091212Y-175086870D01*
X61081142Y-175084867D01*
X61071684Y-175084867D01*
X61044432Y-175077564D01*
X60975900Y-175063933D01*
X60943555Y-175050535D01*
X60920390Y-175044328D01*
X60899618Y-175032335D01*
X60867277Y-175018939D01*
X60809186Y-174980124D01*
X60784743Y-174966012D01*
X60778052Y-174959321D01*
X60769518Y-174953619D01*
X60686380Y-174870481D01*
X60680677Y-174861946D01*
X60673988Y-174855257D01*
X60659877Y-174830816D01*
X60621060Y-174772722D01*
X60607662Y-174740377D01*
X60595672Y-174719610D01*
X60589465Y-174696448D01*
X60576066Y-174664099D01*
X60562433Y-174595563D01*
X60555133Y-174568316D01*
X60555133Y-174558858D01*
X60553130Y-174548788D01*
X60553130Y-174431211D01*
X60555133Y-174421140D01*
X60555133Y-174411684D01*
X60562433Y-174384439D01*
X60576066Y-174315900D01*
X60589466Y-174283548D01*
X60595672Y-174260390D01*
X60607660Y-174239624D01*
X60621060Y-174207277D01*
X60659881Y-174149175D01*
X60673988Y-174124743D01*
X60680675Y-174118055D01*
X60686380Y-174109518D01*
X60769518Y-174026380D01*
X60778055Y-174020675D01*
X60784743Y-174013988D01*
X60809175Y-173999881D01*
X60867277Y-173961060D01*
X60899624Y-173947660D01*
X60920390Y-173935672D01*
X60943548Y-173929466D01*
X60975900Y-173916066D01*
X61044437Y-173902433D01*
X61071684Y-173895133D01*
X61081142Y-173895133D01*
X61091212Y-173893130D01*
X61208788Y-173893130D01*
X61218858Y-173895133D01*
G37*
G36*
X68367500Y-173544500D02*
G01*
X67732500Y-173544500D01*
X67732500Y-172655500D01*
X68367500Y-172655500D01*
X68367500Y-173544500D01*
G37*
G36*
X69867500Y-173544500D02*
G01*
X69232500Y-173544500D01*
X69232500Y-172655500D01*
X69867500Y-172655500D01*
X69867500Y-173544500D01*
G37*
G36*
X56000000Y-172712500D02*
G01*
X55800000Y-172712500D01*
X55800000Y-172037500D01*
X56000000Y-172037500D01*
X56000000Y-172712500D01*
G37*
G36*
X56500000Y-172712500D02*
G01*
X56300000Y-172712500D01*
X56300000Y-172037500D01*
X56500000Y-172037500D01*
X56500000Y-172712500D01*
G37*
G36*
X57100000Y-172712500D02*
G01*
X56700000Y-172712500D01*
X56700000Y-172037500D01*
X57100000Y-172037500D01*
X57100000Y-172712500D01*
G37*
G36*
X57500000Y-172712500D02*
G01*
X57300000Y-172712500D01*
X57300000Y-172037500D01*
X57500000Y-172037500D01*
X57500000Y-172712500D01*
G37*
G36*
X58000000Y-172712500D02*
G01*
X57800000Y-172712500D01*
X57800000Y-172037500D01*
X58000000Y-172037500D01*
X58000000Y-172712500D01*
G37*
G36*
X68367500Y-171944500D02*
G01*
X67732500Y-171944500D01*
X67732500Y-171055500D01*
X68367500Y-171055500D01*
X68367500Y-171944500D01*
G37*
G36*
X69867500Y-171944500D02*
G01*
X69232500Y-171944500D01*
X69232500Y-171055500D01*
X69867500Y-171055500D01*
X69867500Y-171944500D01*
G37*
G36*
X56000000Y-171837500D02*
G01*
X55800000Y-171837500D01*
X55800000Y-171162500D01*
X56000000Y-171162500D01*
X56000000Y-171837500D01*
G37*
G36*
X56500000Y-171837500D02*
G01*
X56300000Y-171837500D01*
X56300000Y-171162500D01*
X56500000Y-171162500D01*
X56500000Y-171837500D01*
G37*
G36*
X57100000Y-171837500D02*
G01*
X56700000Y-171837500D01*
X56700000Y-171162500D01*
X57100000Y-171162500D01*
X57100000Y-171837500D01*
G37*
G36*
X57500000Y-171837500D02*
G01*
X57300000Y-171837500D01*
X57300000Y-171162500D01*
X57500000Y-171162500D01*
X57500000Y-171837500D01*
G37*
G36*
X58000000Y-171837500D02*
G01*
X57800000Y-171837500D01*
X57800000Y-171162500D01*
X58000000Y-171162500D01*
X58000000Y-171837500D01*
G37*
G36*
X72444500Y-171505500D02*
G01*
X71555500Y-171505500D01*
X71555500Y-170870500D01*
X72444500Y-170870500D01*
X72444500Y-171505500D01*
G37*
G36*
X74044500Y-171505500D02*
G01*
X73155500Y-171505500D01*
X73155500Y-170870500D01*
X74044500Y-170870500D01*
X74044500Y-171505500D01*
G37*
G36*
X75644500Y-171505500D02*
G01*
X74755500Y-171505500D01*
X74755500Y-170870500D01*
X75644500Y-170870500D01*
X75644500Y-171505500D01*
G37*
G36*
X64444500Y-170717500D02*
G01*
X63555500Y-170717500D01*
X63555500Y-170082500D01*
X64444500Y-170082500D01*
X64444500Y-170717500D01*
G37*
G36*
X66244500Y-170717500D02*
G01*
X65355500Y-170717500D01*
X65355500Y-170082500D01*
X66244500Y-170082500D01*
X66244500Y-170717500D01*
G37*
G36*
X77244500Y-170617500D02*
G01*
X76355500Y-170617500D01*
X76355500Y-169982500D01*
X77244500Y-169982500D01*
X77244500Y-170617500D01*
G37*
G36*
X78844500Y-170617500D02*
G01*
X77955500Y-170617500D01*
X77955500Y-169982500D01*
X78844500Y-169982500D01*
X78844500Y-170617500D01*
G37*
G36*
X68367500Y-170294500D02*
G01*
X67732500Y-170294500D01*
X67732500Y-169405500D01*
X68367500Y-169405500D01*
X68367500Y-170294500D01*
G37*
G36*
X69867500Y-170294500D02*
G01*
X69232500Y-170294500D01*
X69232500Y-169405500D01*
X69867500Y-169405500D01*
X69867500Y-170294500D01*
G37*
G36*
X72444500Y-170005500D02*
G01*
X71555500Y-170005500D01*
X71555500Y-169370500D01*
X72444500Y-169370500D01*
X72444500Y-170005500D01*
G37*
G36*
X74044500Y-170005500D02*
G01*
X73155500Y-170005500D01*
X73155500Y-169370500D01*
X74044500Y-169370500D01*
X74044500Y-170005500D01*
G37*
G36*
X75644500Y-170005500D02*
G01*
X74755500Y-170005500D01*
X74755500Y-169370500D01*
X75644500Y-169370500D01*
X75644500Y-170005500D01*
G37*
G36*
X64444500Y-169217500D02*
G01*
X63555500Y-169217500D01*
X63555500Y-168582500D01*
X64444500Y-168582500D01*
X64444500Y-169217500D01*
G37*
G36*
X66244500Y-169217500D02*
G01*
X65355500Y-169217500D01*
X65355500Y-168582500D01*
X66244500Y-168582500D01*
X66244500Y-169217500D01*
G37*
G36*
X77244500Y-169117500D02*
G01*
X76355500Y-169117500D01*
X76355500Y-168482500D01*
X77244500Y-168482500D01*
X77244500Y-169117500D01*
G37*
G36*
X78844500Y-169117500D02*
G01*
X77955500Y-169117500D01*
X77955500Y-168482500D01*
X78844500Y-168482500D01*
X78844500Y-169117500D01*
G37*
G36*
X68367500Y-168594500D02*
G01*
X67732500Y-168594500D01*
X67732500Y-167705500D01*
X68367500Y-167705500D01*
X68367500Y-168594500D01*
G37*
G36*
X69867500Y-168594500D02*
G01*
X69232500Y-168594500D01*
X69232500Y-167705500D01*
X69867500Y-167705500D01*
X69867500Y-168594500D01*
G37*
G36*
X73567500Y-167044500D02*
G01*
X72932500Y-167044500D01*
X72932500Y-166155500D01*
X73567500Y-166155500D01*
X73567500Y-167044500D01*
G37*
G36*
X75067500Y-167044500D02*
G01*
X74432500Y-167044500D01*
X74432500Y-166155500D01*
X75067500Y-166155500D01*
X75067500Y-167044500D01*
G37*
G36*
X77644500Y-167017500D02*
G01*
X76755500Y-167017500D01*
X76755500Y-166382500D01*
X77644500Y-166382500D01*
X77644500Y-167017500D01*
G37*
G36*
X79344500Y-167017500D02*
G01*
X78455500Y-167017500D01*
X78455500Y-166382500D01*
X79344500Y-166382500D01*
X79344500Y-167017500D01*
G37*
G36*
X68367500Y-166994500D02*
G01*
X67732500Y-166994500D01*
X67732500Y-166105500D01*
X68367500Y-166105500D01*
X68367500Y-166994500D01*
G37*
G36*
X69867500Y-166994500D02*
G01*
X69232500Y-166994500D01*
X69232500Y-166105500D01*
X69867500Y-166105500D01*
X69867500Y-166994500D01*
G37*
G36*
X64644500Y-166617500D02*
G01*
X63755500Y-166617500D01*
X63755500Y-165982500D01*
X64644500Y-165982500D01*
X64644500Y-166617500D01*
G37*
G36*
X66444500Y-166617500D02*
G01*
X65555500Y-166617500D01*
X65555500Y-165982500D01*
X66444500Y-165982500D01*
X66444500Y-166617500D01*
G37*
G36*
X77644500Y-165517500D02*
G01*
X76755500Y-165517500D01*
X76755500Y-164882500D01*
X77644500Y-164882500D01*
X77644500Y-165517500D01*
G37*
G36*
X79344500Y-165517500D02*
G01*
X78455500Y-165517500D01*
X78455500Y-164882500D01*
X79344500Y-164882500D01*
X79344500Y-165517500D01*
G37*
G36*
X64644500Y-165117500D02*
G01*
X63755500Y-165117500D01*
X63755500Y-164482500D01*
X64644500Y-164482500D01*
X64644500Y-165117500D01*
G37*
G36*
X66444500Y-165117500D02*
G01*
X65555500Y-165117500D01*
X65555500Y-164482500D01*
X66444500Y-164482500D01*
X66444500Y-165117500D01*
G37*
G36*
X68344500Y-165117500D02*
G01*
X67455500Y-165117500D01*
X67455500Y-164482500D01*
X68344500Y-164482500D01*
X68344500Y-165117500D01*
G37*
G36*
X68344500Y-163617500D02*
G01*
X67455500Y-163617500D01*
X67455500Y-162982500D01*
X68344500Y-162982500D01*
X68344500Y-163617500D01*
G37*
G36*
X77444500Y-163217500D02*
G01*
X76555500Y-163217500D01*
X76555500Y-162582500D01*
X77444500Y-162582500D01*
X77444500Y-163217500D01*
G37*
G36*
X63250000Y-162800000D02*
G01*
X61950000Y-162800000D01*
X61950000Y-161800000D01*
X63250000Y-161800000D01*
X63250000Y-162800000D01*
G37*
G36*
X64844500Y-162517500D02*
G01*
X63955500Y-162517500D01*
X63955500Y-161882500D01*
X64844500Y-161882500D01*
X64844500Y-162517500D01*
G37*
G36*
X66444500Y-162517500D02*
G01*
X65555500Y-162517500D01*
X65555500Y-161882500D01*
X66444500Y-161882500D01*
X66444500Y-162517500D01*
G37*
G36*
X73067500Y-162044500D02*
G01*
X72432500Y-162044500D01*
X72432500Y-161155500D01*
X73067500Y-161155500D01*
X73067500Y-162044500D01*
G37*
G36*
X74567500Y-162044500D02*
G01*
X73932500Y-162044500D01*
X73932500Y-161155500D01*
X74567500Y-161155500D01*
X74567500Y-162044500D01*
G37*
G36*
X77444500Y-161717500D02*
G01*
X76555500Y-161717500D01*
X76555500Y-161082500D01*
X77444500Y-161082500D01*
X77444500Y-161717500D01*
G37*
G36*
X82300000Y-161700000D02*
G01*
X81000000Y-161700000D01*
X81000000Y-160700000D01*
X82300000Y-160700000D01*
X82300000Y-161700000D01*
G37*
G36*
X80144500Y-161267500D02*
G01*
X79255500Y-161267500D01*
X79255500Y-160632500D01*
X80144500Y-160632500D01*
X80144500Y-161267500D01*
G37*
G36*
X64844500Y-161017500D02*
G01*
X63955500Y-161017500D01*
X63955500Y-160382500D01*
X64844500Y-160382500D01*
X64844500Y-161017500D01*
G37*
G36*
X66444500Y-161017500D02*
G01*
X65555500Y-161017500D01*
X65555500Y-160382500D01*
X66444500Y-160382500D01*
X66444500Y-161017500D01*
G37*
G36*
X63250000Y-160800000D02*
G01*
X61950000Y-160800000D01*
X61950000Y-159800000D01*
X63250000Y-159800000D01*
X63250000Y-160800000D01*
G37*
G36*
X73067500Y-160444500D02*
G01*
X72432500Y-160444500D01*
X72432500Y-159555500D01*
X73067500Y-159555500D01*
X73067500Y-160444500D01*
G37*
G36*
X74567500Y-160444500D02*
G01*
X73932500Y-160444500D01*
X73932500Y-159555500D01*
X74567500Y-159555500D01*
X74567500Y-160444500D01*
G37*
G36*
X67967500Y-160344500D02*
G01*
X67332500Y-160344500D01*
X67332500Y-159455500D01*
X67967500Y-159455500D01*
X67967500Y-160344500D01*
G37*
G36*
X69467500Y-160344500D02*
G01*
X68832500Y-160344500D01*
X68832500Y-159455500D01*
X69467500Y-159455500D01*
X69467500Y-160344500D01*
G37*
G36*
X80144500Y-159767500D02*
G01*
X79255500Y-159767500D01*
X79255500Y-159132500D01*
X80144500Y-159132500D01*
X80144500Y-159767500D01*
G37*
G36*
X82300000Y-159700000D02*
G01*
X81000000Y-159700000D01*
X81000000Y-158700000D01*
X82300000Y-158700000D01*
X82300000Y-159700000D01*
G37*
G36*
X67900000Y-158550000D02*
G01*
X66900000Y-158550000D01*
X66900000Y-157250000D01*
X67900000Y-157250000D01*
X67900000Y-158550000D01*
G37*
G36*
X69900000Y-158550000D02*
G01*
X68900000Y-158550000D01*
X68900000Y-157250000D01*
X69900000Y-157250000D01*
X69900000Y-158550000D01*
G37*
G36*
X28317500Y-157744500D02*
G01*
X27682500Y-157744500D01*
X27682500Y-156855500D01*
X28317500Y-156855500D01*
X28317500Y-157744500D01*
G37*
G36*
X29817500Y-157744500D02*
G01*
X29182500Y-157744500D01*
X29182500Y-156855500D01*
X29817500Y-156855500D01*
X29817500Y-157744500D01*
G37*
G36*
X31567500Y-157744500D02*
G01*
X30932500Y-157744500D01*
X30932500Y-156855500D01*
X31567500Y-156855500D01*
X31567500Y-157744500D01*
G37*
G36*
X33067500Y-157744500D02*
G01*
X32432500Y-157744500D01*
X32432500Y-156855500D01*
X33067500Y-156855500D01*
X33067500Y-157744500D01*
G37*
G36*
X36367500Y-157744500D02*
G01*
X35732500Y-157744500D01*
X35732500Y-156855500D01*
X36367500Y-156855500D01*
X36367500Y-157744500D01*
G37*
G36*
X37867500Y-157744500D02*
G01*
X37232500Y-157744500D01*
X37232500Y-156855500D01*
X37867500Y-156855500D01*
X37867500Y-157744500D01*
G37*
G36*
X39667500Y-157744500D02*
G01*
X39032500Y-157744500D01*
X39032500Y-156855500D01*
X39667500Y-156855500D01*
X39667500Y-157744500D01*
G37*
G36*
X41167500Y-157744500D02*
G01*
X40532500Y-157744500D01*
X40532500Y-156855500D01*
X41167500Y-156855500D01*
X41167500Y-157744500D01*
G37*
G36*
X68850000Y-154400000D02*
G01*
X67550000Y-154400000D01*
X67550000Y-153400000D01*
X68850000Y-153400000D01*
X68850000Y-154400000D01*
G37*
G36*
X63950000Y-154300000D02*
G01*
X62650000Y-154300000D01*
X62650000Y-153300000D01*
X63950000Y-153300000D01*
X63950000Y-154300000D01*
G37*
G36*
X79250000Y-154200000D02*
G01*
X77950000Y-154200000D01*
X77950000Y-153200000D01*
X79250000Y-153200000D01*
X79250000Y-154200000D01*
G37*
G36*
X81250000Y-154200000D02*
G01*
X79950000Y-154200000D01*
X79950000Y-153200000D01*
X81250000Y-153200000D01*
X81250000Y-154200000D01*
G37*
G36*
X65344500Y-153867500D02*
G01*
X64455500Y-153867500D01*
X64455500Y-153232500D01*
X65344500Y-153232500D01*
X65344500Y-153867500D01*
G37*
G36*
X70744500Y-153867500D02*
G01*
X69855500Y-153867500D01*
X69855500Y-153232500D01*
X70744500Y-153232500D01*
X70744500Y-153867500D01*
G37*
G36*
X75244500Y-153767500D02*
G01*
X74355500Y-153767500D01*
X74355500Y-153132500D01*
X75244500Y-153132500D01*
X75244500Y-153767500D01*
G37*
G36*
X77044500Y-153767500D02*
G01*
X76155500Y-153767500D01*
X76155500Y-153132500D01*
X77044500Y-153132500D01*
X77044500Y-153767500D01*
G37*
G36*
X28917500Y-153144500D02*
G01*
X28282500Y-153144500D01*
X28282500Y-152255500D01*
X28917500Y-152255500D01*
X28917500Y-153144500D01*
G37*
G36*
X30417500Y-153144500D02*
G01*
X29782500Y-153144500D01*
X29782500Y-152255500D01*
X30417500Y-152255500D01*
X30417500Y-153144500D01*
G37*
G36*
X68850000Y-152400000D02*
G01*
X67550000Y-152400000D01*
X67550000Y-151400000D01*
X68850000Y-151400000D01*
X68850000Y-152400000D01*
G37*
G36*
X65344500Y-152367500D02*
G01*
X64455500Y-152367500D01*
X64455500Y-151732500D01*
X65344500Y-151732500D01*
X65344500Y-152367500D01*
G37*
G36*
X70744500Y-152367500D02*
G01*
X69855500Y-152367500D01*
X69855500Y-151732500D01*
X70744500Y-151732500D01*
X70744500Y-152367500D01*
G37*
G36*
X63950000Y-152300000D02*
G01*
X62650000Y-152300000D01*
X62650000Y-151300000D01*
X63950000Y-151300000D01*
X63950000Y-152300000D01*
G37*
G36*
X75244500Y-152267500D02*
G01*
X74355500Y-152267500D01*
X74355500Y-151632500D01*
X75244500Y-151632500D01*
X75244500Y-152267500D01*
G37*
G36*
X77044500Y-152267500D02*
G01*
X76155500Y-152267500D01*
X76155500Y-151632500D01*
X77044500Y-151632500D01*
X77044500Y-152267500D01*
G37*
G36*
X79250000Y-152200000D02*
G01*
X77950000Y-152200000D01*
X77950000Y-151200000D01*
X79250000Y-151200000D01*
X79250000Y-152200000D01*
G37*
G36*
X81250000Y-152200000D02*
G01*
X79950000Y-152200000D01*
X79950000Y-151200000D01*
X81250000Y-151200000D01*
X81250000Y-152200000D01*
G37*
G36*
X53267500Y-152044500D02*
G01*
X52632500Y-152044500D01*
X52632500Y-151155500D01*
X53267500Y-151155500D01*
X53267500Y-152044500D01*
G37*
G36*
X54767500Y-152044500D02*
G01*
X54132500Y-152044500D01*
X54132500Y-151155500D01*
X54767500Y-151155500D01*
X54767500Y-152044500D01*
G37*
G36*
X57367500Y-150744500D02*
G01*
X56732500Y-150744500D01*
X56732500Y-149855500D01*
X57367500Y-149855500D01*
X57367500Y-150744500D01*
G37*
G36*
X58867500Y-150744500D02*
G01*
X58232500Y-150744500D01*
X58232500Y-149855500D01*
X58867500Y-149855500D01*
X58867500Y-150744500D01*
G37*
G36*
X24617500Y-150644500D02*
G01*
X23982500Y-150644500D01*
X23982500Y-149755500D01*
X24617500Y-149755500D01*
X24617500Y-150644500D01*
G37*
G36*
X26117500Y-150644500D02*
G01*
X25482500Y-150644500D01*
X25482500Y-149755500D01*
X26117500Y-149755500D01*
X26117500Y-150644500D01*
G37*
G36*
X77250000Y-149400000D02*
G01*
X75950000Y-149400000D01*
X75950000Y-148400000D01*
X77250000Y-148400000D01*
X77250000Y-149400000D01*
G37*
G36*
X79400000Y-149400000D02*
G01*
X78100000Y-149400000D01*
X78100000Y-148400000D01*
X79400000Y-148400000D01*
X79400000Y-149400000D01*
G37*
G36*
X75244500Y-148967500D02*
G01*
X74355500Y-148967500D01*
X74355500Y-148332500D01*
X75244500Y-148332500D01*
X75244500Y-148967500D01*
G37*
G36*
X35294500Y-148567500D02*
G01*
X34405500Y-148567500D01*
X34405500Y-147932500D01*
X35294500Y-147932500D01*
X35294500Y-148567500D01*
G37*
G36*
X28417500Y-148544500D02*
G01*
X27782500Y-148544500D01*
X27782500Y-147655500D01*
X28417500Y-147655500D01*
X28417500Y-148544500D01*
G37*
G36*
X29917500Y-148544500D02*
G01*
X29282500Y-148544500D01*
X29282500Y-147655500D01*
X29917500Y-147655500D01*
X29917500Y-148544500D01*
G37*
G36*
X31617499Y-148544500D02*
G01*
X30982499Y-148544500D01*
X30982499Y-147655500D01*
X31617499Y-147655500D01*
X31617499Y-148544500D01*
G37*
G36*
X33117499Y-148544500D02*
G01*
X32482499Y-148544500D01*
X32482499Y-147655500D01*
X33117499Y-147655500D01*
X33117499Y-148544500D01*
G37*
G36*
X36967500Y-148544500D02*
G01*
X36332500Y-148544500D01*
X36332500Y-147655500D01*
X36967500Y-147655500D01*
X36967500Y-148544500D01*
G37*
G36*
X38467500Y-148544500D02*
G01*
X37832500Y-148544500D01*
X37832500Y-147655500D01*
X38467500Y-147655500D01*
X38467500Y-148544500D01*
G37*
G36*
X40567500Y-148544500D02*
G01*
X39932500Y-148544500D01*
X39932500Y-147655500D01*
X40567500Y-147655500D01*
X40567500Y-148544500D01*
G37*
G36*
X42067500Y-148544500D02*
G01*
X41432500Y-148544500D01*
X41432500Y-147655500D01*
X42067500Y-147655500D01*
X42067500Y-148544500D01*
G37*
G36*
X64894500Y-148467500D02*
G01*
X64005500Y-148467500D01*
X64005500Y-147832500D01*
X64894500Y-147832500D01*
X64894500Y-148467500D01*
G37*
G36*
X75244500Y-147467500D02*
G01*
X74355500Y-147467500D01*
X74355500Y-146832500D01*
X75244500Y-146832500D01*
X75244500Y-147467500D01*
G37*
G36*
X77250000Y-147400000D02*
G01*
X75950000Y-147400000D01*
X75950000Y-146400000D01*
X77250000Y-146400000D01*
X77250000Y-147400000D01*
G37*
G36*
X79400000Y-147400000D02*
G01*
X78100000Y-147400000D01*
X78100000Y-146400000D01*
X79400000Y-146400000D01*
X79400000Y-147400000D01*
G37*
G36*
X91394500Y-147157502D02*
G01*
X90505500Y-147157502D01*
X90505500Y-146522502D01*
X91394500Y-146522502D01*
X91394500Y-147157502D01*
G37*
G36*
X35294500Y-147067500D02*
G01*
X34405500Y-147067500D01*
X34405500Y-146432500D01*
X35294500Y-146432500D01*
X35294500Y-147067500D01*
G37*
G36*
X64894500Y-146967500D02*
G01*
X64005500Y-146967500D01*
X64005500Y-146332500D01*
X64894500Y-146332500D01*
X64894500Y-146967500D01*
G37*
G36*
X60567500Y-146444500D02*
G01*
X59932500Y-146444500D01*
X59932500Y-145555500D01*
X60567500Y-145555500D01*
X60567500Y-146444500D01*
G37*
G36*
X62067500Y-146444500D02*
G01*
X61432500Y-146444500D01*
X61432500Y-145555500D01*
X62067500Y-145555500D01*
X62067500Y-146444500D01*
G37*
G36*
X71567500Y-145994500D02*
G01*
X70932500Y-145994500D01*
X70932500Y-145105500D01*
X71567500Y-145105500D01*
X71567500Y-145994500D01*
G37*
G36*
X73067500Y-145994500D02*
G01*
X72432500Y-145994500D01*
X72432500Y-145105500D01*
X73067500Y-145105500D01*
X73067500Y-145994500D01*
G37*
G36*
X87917500Y-145884500D02*
G01*
X87282500Y-145884500D01*
X87282500Y-144995500D01*
X87917500Y-144995500D01*
X87917500Y-145884500D01*
G37*
G36*
X89417500Y-145884500D02*
G01*
X88782500Y-145884500D01*
X88782500Y-144995500D01*
X89417500Y-144995500D01*
X89417500Y-145884500D01*
G37*
G36*
X76260000Y-145730000D02*
G01*
X74760000Y-145730000D01*
X74760000Y-141730000D01*
X76260000Y-141730000D01*
X76260000Y-145730000D01*
G37*
G36*
X79860000Y-145730000D02*
G01*
X78360000Y-145730000D01*
X78360000Y-141730000D01*
X79860000Y-141730000D01*
X79860000Y-145730000D01*
G37*
G36*
X91394500Y-145657502D02*
G01*
X90505500Y-145657502D01*
X90505500Y-145022502D01*
X91394500Y-145022502D01*
X91394500Y-145657502D01*
G37*
G36*
X84290000Y-145370000D02*
G01*
X82990000Y-145370000D01*
X82990000Y-144370000D01*
X84290000Y-144370000D01*
X84290000Y-145370000D01*
G37*
G36*
X34350000Y-144900000D02*
G01*
X33050000Y-144900000D01*
X33050000Y-143900000D01*
X34350000Y-143900000D01*
X34350000Y-144900000D01*
G37*
G36*
X36350000Y-144900000D02*
G01*
X35050000Y-144900000D01*
X35050000Y-143900000D01*
X36350000Y-143900000D01*
X36350000Y-144900000D01*
G37*
G36*
X85307225Y-144274493D02*
G01*
X85355507Y-144322775D01*
X85381637Y-144385859D01*
X85381637Y-144454141D01*
X85355507Y-144517225D01*
X85307225Y-144565507D01*
X85244141Y-144591637D01*
X85175859Y-144591637D01*
X85112775Y-144565507D01*
X85064493Y-144517225D01*
X85038363Y-144454141D01*
X85038363Y-144385859D01*
X85064493Y-144322775D01*
X85112775Y-144274493D01*
X85175859Y-144248363D01*
X85244141Y-144248363D01*
X85307225Y-144274493D01*
G37*
G36*
X85807225Y-144274493D02*
G01*
X85855507Y-144322775D01*
X85881637Y-144385859D01*
X85881637Y-144454141D01*
X85855507Y-144517225D01*
X85807225Y-144565507D01*
X85744141Y-144591637D01*
X85675859Y-144591637D01*
X85612775Y-144565507D01*
X85564493Y-144517225D01*
X85538363Y-144454141D01*
X85538363Y-144385859D01*
X85564493Y-144322775D01*
X85612775Y-144274493D01*
X85675859Y-144248363D01*
X85744141Y-144248363D01*
X85807225Y-144274493D01*
G37*
G36*
X86307225Y-144274493D02*
G01*
X86355507Y-144322775D01*
X86381637Y-144385859D01*
X86381637Y-144454141D01*
X86355507Y-144517225D01*
X86307225Y-144565507D01*
X86244141Y-144591637D01*
X86175859Y-144591637D01*
X86112775Y-144565507D01*
X86064493Y-144517225D01*
X86038363Y-144454141D01*
X86038363Y-144385859D01*
X86064493Y-144322775D01*
X86112775Y-144274493D01*
X86175859Y-144248363D01*
X86244141Y-144248363D01*
X86307225Y-144274493D01*
G37*
G36*
X71567500Y-144544500D02*
G01*
X70932500Y-144544500D01*
X70932500Y-143655500D01*
X71567500Y-143655500D01*
X71567500Y-144544500D01*
G37*
G36*
X73067500Y-144544500D02*
G01*
X72432500Y-144544500D01*
X72432500Y-143655500D01*
X73067500Y-143655500D01*
X73067500Y-144544500D01*
G37*
G36*
X56867500Y-144494500D02*
G01*
X56232500Y-144494500D01*
X56232500Y-143605500D01*
X56867500Y-143605500D01*
X56867500Y-144494500D01*
G37*
G36*
X58367500Y-144494500D02*
G01*
X57732500Y-144494500D01*
X57732500Y-143605500D01*
X58367500Y-143605500D01*
X58367500Y-144494500D01*
G37*
G36*
X66044499Y-144467500D02*
G01*
X65155499Y-144467500D01*
X65155499Y-143832500D01*
X66044499Y-143832500D01*
X66044499Y-144467500D01*
G37*
G36*
X80967500Y-144304500D02*
G01*
X80332500Y-144304500D01*
X80332500Y-143415500D01*
X80967500Y-143415500D01*
X80967500Y-144304500D01*
G37*
G36*
X82467500Y-144304500D02*
G01*
X81832500Y-144304500D01*
X81832500Y-143415500D01*
X82467500Y-143415500D01*
X82467500Y-144304500D01*
G37*
G36*
X85307225Y-143774493D02*
G01*
X85355507Y-143822775D01*
X85381637Y-143885859D01*
X85381637Y-143954141D01*
X85355507Y-144017225D01*
X85307225Y-144065507D01*
X85244141Y-144091637D01*
X85175859Y-144091637D01*
X85112775Y-144065507D01*
X85064493Y-144017225D01*
X85038363Y-143954141D01*
X85038363Y-143885859D01*
X85064493Y-143822775D01*
X85112775Y-143774493D01*
X85175859Y-143748363D01*
X85244141Y-143748363D01*
X85307225Y-143774493D01*
G37*
G36*
X85807225Y-143774493D02*
G01*
X85855507Y-143822775D01*
X85881637Y-143885859D01*
X85881637Y-143954141D01*
X85855507Y-144017225D01*
X85807225Y-144065507D01*
X85744141Y-144091637D01*
X85675859Y-144091637D01*
X85612775Y-144065507D01*
X85564493Y-144017225D01*
X85538363Y-143954141D01*
X85538363Y-143885859D01*
X85564493Y-143822775D01*
X85612775Y-143774493D01*
X85675859Y-143748363D01*
X85744141Y-143748363D01*
X85807225Y-143774493D01*
G37*
G36*
X86307225Y-143774493D02*
G01*
X86355507Y-143822775D01*
X86381637Y-143885859D01*
X86381637Y-143954141D01*
X86355507Y-144017225D01*
X86307225Y-144065507D01*
X86244141Y-144091637D01*
X86175859Y-144091637D01*
X86112775Y-144065507D01*
X86064493Y-144017225D01*
X86038363Y-143954141D01*
X86038363Y-143885859D01*
X86064493Y-143822775D01*
X86112775Y-143774493D01*
X86175859Y-143748363D01*
X86244141Y-143748363D01*
X86307225Y-143774493D01*
G37*
G36*
X88094500Y-143807500D02*
G01*
X87205500Y-143807500D01*
X87205500Y-143172500D01*
X88094500Y-143172500D01*
X88094500Y-143807500D01*
G37*
G36*
X89694500Y-143807500D02*
G01*
X88805500Y-143807500D01*
X88805500Y-143172500D01*
X89694500Y-143172500D01*
X89694500Y-143807500D01*
G37*
G36*
X91294500Y-143807500D02*
G01*
X90405500Y-143807500D01*
X90405500Y-143172500D01*
X91294500Y-143172500D01*
X91294500Y-143807500D01*
G37*
G36*
X92894500Y-143807500D02*
G01*
X92005500Y-143807500D01*
X92005500Y-143172500D01*
X92894500Y-143172500D01*
X92894500Y-143807500D01*
G37*
G36*
X85307225Y-143274493D02*
G01*
X85355507Y-143322775D01*
X85381637Y-143385859D01*
X85381637Y-143454141D01*
X85355507Y-143517225D01*
X85307225Y-143565507D01*
X85244141Y-143591637D01*
X85175859Y-143591637D01*
X85112775Y-143565507D01*
X85064493Y-143517225D01*
X85038363Y-143454141D01*
X85038363Y-143385859D01*
X85064493Y-143322775D01*
X85112775Y-143274493D01*
X85175859Y-143248363D01*
X85244141Y-143248363D01*
X85307225Y-143274493D01*
G37*
G36*
X85807225Y-143274493D02*
G01*
X85855507Y-143322775D01*
X85881637Y-143385859D01*
X85881637Y-143454141D01*
X85855507Y-143517225D01*
X85807225Y-143565507D01*
X85744141Y-143591637D01*
X85675859Y-143591637D01*
X85612775Y-143565507D01*
X85564493Y-143517225D01*
X85538363Y-143454141D01*
X85538363Y-143385859D01*
X85564493Y-143322775D01*
X85612775Y-143274493D01*
X85675859Y-143248363D01*
X85744141Y-143248363D01*
X85807225Y-143274493D01*
G37*
G36*
X86307225Y-143274493D02*
G01*
X86355507Y-143322775D01*
X86381637Y-143385859D01*
X86381637Y-143454141D01*
X86355507Y-143517225D01*
X86307225Y-143565507D01*
X86244141Y-143591637D01*
X86175859Y-143591637D01*
X86112775Y-143565507D01*
X86064493Y-143517225D01*
X86038363Y-143454141D01*
X86038363Y-143385859D01*
X86064493Y-143322775D01*
X86112775Y-143274493D01*
X86175859Y-143248363D01*
X86244141Y-143248363D01*
X86307225Y-143274493D01*
G37*
G36*
X84290000Y-143370000D02*
G01*
X82990000Y-143370000D01*
X82990000Y-142370000D01*
X84290000Y-142370000D01*
X84290000Y-143370000D01*
G37*
G36*
X66044499Y-142967500D02*
G01*
X65155499Y-142967500D01*
X65155499Y-142332500D01*
X66044499Y-142332500D01*
X66044499Y-142967500D01*
G37*
G36*
X71100000Y-142950000D02*
G01*
X70100000Y-142950000D01*
X70100000Y-141650000D01*
X71100000Y-141650000D01*
X71100000Y-142950000D01*
G37*
G36*
X73100000Y-142950000D02*
G01*
X72100000Y-142950000D01*
X72100000Y-141650000D01*
X73100000Y-141650000D01*
X73100000Y-142950000D01*
G37*
G36*
X34350000Y-142900000D02*
G01*
X33050000Y-142900000D01*
X33050000Y-141900000D01*
X34350000Y-141900000D01*
X34350000Y-142900000D01*
G37*
G36*
X36350000Y-142900000D02*
G01*
X35050000Y-142900000D01*
X35050000Y-141900000D01*
X36350000Y-141900000D01*
X36350000Y-142900000D01*
G37*
G36*
X80997500Y-142814500D02*
G01*
X80362500Y-142814500D01*
X80362500Y-141925500D01*
X80997500Y-141925500D01*
X80997500Y-142814500D01*
G37*
G36*
X82497500Y-142814500D02*
G01*
X81862500Y-142814500D01*
X81862500Y-141925500D01*
X82497500Y-141925500D01*
X82497500Y-142814500D01*
G37*
G36*
X88094500Y-142307500D02*
G01*
X87205500Y-142307500D01*
X87205500Y-141672500D01*
X88094500Y-141672500D01*
X88094500Y-142307500D01*
G37*
G36*
X89694500Y-142307500D02*
G01*
X88805500Y-142307500D01*
X88805500Y-141672500D01*
X89694500Y-141672500D01*
X89694500Y-142307500D01*
G37*
G36*
X91294500Y-142307500D02*
G01*
X90405500Y-142307500D01*
X90405500Y-141672500D01*
X91294500Y-141672500D01*
X91294500Y-142307500D01*
G37*
G36*
X92894500Y-142307500D02*
G01*
X92005500Y-142307500D01*
X92005500Y-141672500D01*
X92894500Y-141672500D01*
X92894500Y-142307500D01*
G37*
G36*
X60544500Y-142217500D02*
G01*
X59655500Y-142217500D01*
X59655500Y-141582500D01*
X60544500Y-141582500D01*
X60544500Y-142217500D01*
G37*
G36*
X61894500Y-142217500D02*
G01*
X61005500Y-142217500D01*
X61005500Y-141582500D01*
X61894500Y-141582500D01*
X61894500Y-142217500D01*
G37*
G36*
X53395000Y-141480000D02*
G01*
X52845000Y-141480000D01*
X52845000Y-140980000D01*
X53395000Y-140980000D01*
X53395000Y-141480000D01*
G37*
G36*
X77840000Y-141300000D02*
G01*
X76740000Y-141300000D01*
X76740000Y-139200000D01*
X77840000Y-139200000D01*
X77840000Y-141300000D01*
G37*
G36*
X81140000Y-141300000D02*
G01*
X80040000Y-141300000D01*
X80040000Y-139200000D01*
X81140000Y-139200000D01*
X81140000Y-141300000D01*
G37*
G36*
X60544500Y-140717500D02*
G01*
X59655500Y-140717500D01*
X59655500Y-140082500D01*
X60544500Y-140082500D01*
X60544500Y-140717500D01*
G37*
G36*
X61894500Y-140717500D02*
G01*
X61005500Y-140717500D01*
X61005500Y-140082500D01*
X61894500Y-140082500D01*
X61894500Y-140717500D01*
G37*
G36*
X55035000Y-140670000D02*
G01*
X54485000Y-140670000D01*
X54485000Y-140170000D01*
X55035000Y-140170000D01*
X55035000Y-140670000D01*
G37*
G36*
X88017500Y-140584500D02*
G01*
X87382500Y-140584500D01*
X87382500Y-139695500D01*
X88017500Y-139695500D01*
X88017500Y-140584500D01*
G37*
G36*
X89517500Y-140584500D02*
G01*
X88882500Y-140584500D01*
X88882500Y-139695500D01*
X89517500Y-139695500D01*
X89517500Y-140584500D01*
G37*
G36*
X63367500Y-140544500D02*
G01*
X62732500Y-140544500D01*
X62732500Y-139655500D01*
X63367500Y-139655500D01*
X63367500Y-140544500D01*
G37*
G36*
X64867500Y-140544500D02*
G01*
X64232500Y-140544500D01*
X64232500Y-139655500D01*
X64867500Y-139655500D01*
X64867500Y-140544500D01*
G37*
G36*
X53395000Y-140480000D02*
G01*
X52845000Y-140480000D01*
X52845000Y-139980000D01*
X53395000Y-139980000D01*
X53395000Y-140480000D01*
G37*
G36*
X70544500Y-140467500D02*
G01*
X69655500Y-140467500D01*
X69655500Y-139832500D01*
X70544500Y-139832500D01*
X70544500Y-140467500D01*
G37*
G36*
X55035000Y-139670000D02*
G01*
X54485000Y-139670000D01*
X54485000Y-139170000D01*
X55035000Y-139170000D01*
X55035000Y-139670000D01*
G37*
G36*
X70544500Y-138967500D02*
G01*
X69655500Y-138967500D01*
X69655500Y-138332500D01*
X70544500Y-138332500D01*
X70544500Y-138967500D01*
G37*
G36*
X72344500Y-138367500D02*
G01*
X71455500Y-138367500D01*
X71455500Y-137732500D01*
X72344500Y-137732500D01*
X72344500Y-138367500D01*
G37*
G36*
X55025000Y-138240000D02*
G01*
X54475000Y-138240000D01*
X54475000Y-137740000D01*
X55025000Y-137740000D01*
X55025000Y-138240000D01*
G37*
G36*
X63417500Y-137569500D02*
G01*
X62782500Y-137569500D01*
X62782500Y-136680500D01*
X63417500Y-136680500D01*
X63417500Y-137569500D01*
G37*
G36*
X64917500Y-137569500D02*
G01*
X64282500Y-137569500D01*
X64282500Y-136680500D01*
X64917500Y-136680500D01*
X64917500Y-137569500D01*
G37*
G36*
X58317500Y-137344500D02*
G01*
X57682500Y-137344500D01*
X57682500Y-136455500D01*
X58317500Y-136455500D01*
X58317500Y-137344500D01*
G37*
G36*
X59817500Y-137344500D02*
G01*
X59182500Y-137344500D01*
X59182500Y-136455500D01*
X59817500Y-136455500D01*
X59817500Y-137344500D01*
G37*
G36*
X55025000Y-137240000D02*
G01*
X54475000Y-137240000D01*
X54475000Y-136740000D01*
X55025000Y-136740000D01*
X55025000Y-137240000D01*
G37*
G36*
X72344500Y-136867500D02*
G01*
X71455500Y-136867500D01*
X71455500Y-136232500D01*
X72344500Y-136232500D01*
X72344500Y-136867500D01*
G37*
G36*
X78450000Y-136600000D02*
G01*
X77150000Y-136600000D01*
X77150000Y-135600000D01*
X78450000Y-135600000D01*
X78450000Y-136600000D01*
G37*
G36*
X76344500Y-136167500D02*
G01*
X75455500Y-136167500D01*
X75455500Y-135532500D01*
X76344500Y-135532500D01*
X76344500Y-136167500D01*
G37*
G36*
X69467500Y-135744500D02*
G01*
X68832500Y-135744500D01*
X68832500Y-134855500D01*
X69467500Y-134855500D01*
X69467500Y-135744500D01*
G37*
G36*
X70967500Y-135744500D02*
G01*
X70332500Y-135744500D01*
X70332500Y-134855500D01*
X70967500Y-134855500D01*
X70967500Y-135744500D01*
G37*
G36*
X59480000Y-135375000D02*
G01*
X58980000Y-135375000D01*
X58980000Y-134825000D01*
X59480000Y-134825000D01*
X59480000Y-135375000D01*
G37*
G36*
X60480000Y-135375000D02*
G01*
X59980000Y-135375000D01*
X59980000Y-134825000D01*
X60480000Y-134825000D01*
X60480000Y-135375000D01*
G37*
G36*
X64275000Y-134700000D02*
G01*
X63775000Y-134700000D01*
X63775000Y-134150000D01*
X64275000Y-134150000D01*
X64275000Y-134700000D01*
G37*
G36*
X65275000Y-134700000D02*
G01*
X64775000Y-134700000D01*
X64775000Y-134150000D01*
X65275000Y-134150000D01*
X65275000Y-134700000D01*
G37*
G36*
X76344500Y-134667500D02*
G01*
X75455500Y-134667500D01*
X75455500Y-134032500D01*
X76344500Y-134032500D01*
X76344500Y-134667500D01*
G37*
G36*
X78450000Y-134600000D02*
G01*
X77150000Y-134600000D01*
X77150000Y-133600000D01*
X78450000Y-133600000D01*
X78450000Y-134600000D01*
G37*
G36*
X67875000Y-133900000D02*
G01*
X67375000Y-133900000D01*
X67375000Y-133350000D01*
X67875000Y-133350000D01*
X67875000Y-133900000D01*
G37*
G36*
X68875000Y-133900000D02*
G01*
X68375000Y-133900000D01*
X68375000Y-133350000D01*
X68875000Y-133350000D01*
X68875000Y-133900000D01*
G37*
G36*
X61320000Y-133765000D02*
G01*
X60820000Y-133765000D01*
X60820000Y-133215000D01*
X61320000Y-133215000D01*
X61320000Y-133765000D01*
G37*
G36*
X62320000Y-133765000D02*
G01*
X61820000Y-133765000D01*
X61820000Y-133215000D01*
X62320000Y-133215000D01*
X62320000Y-133765000D01*
G37*
G36*
X65550000Y-133175000D02*
G01*
X65050000Y-133175000D01*
X65050000Y-132625000D01*
X65550000Y-132625000D01*
X65550000Y-133175000D01*
G37*
G36*
X66550000Y-133175000D02*
G01*
X66050000Y-133175000D01*
X66050000Y-132625000D01*
X66550000Y-132625000D01*
X66550000Y-133175000D01*
G37*
G36*
X39544500Y-132557500D02*
G01*
X38655500Y-132557500D01*
X38655500Y-131922500D01*
X39544500Y-131922500D01*
X39544500Y-132557500D01*
G37*
G36*
X39544500Y-131057500D02*
G01*
X38655500Y-131057500D01*
X38655500Y-130422500D01*
X39544500Y-130422500D01*
X39544500Y-131057500D01*
G37*
G36*
X81369485Y-128210524D02*
G01*
X81518902Y-128272415D01*
X81653374Y-128362266D01*
X81767734Y-128476626D01*
X81857585Y-128611098D01*
X81919476Y-128760515D01*
X81951027Y-128919136D01*
X81951027Y-129080864D01*
X81919476Y-129239485D01*
X81857585Y-129388902D01*
X81767734Y-129523374D01*
X81653374Y-129637734D01*
X81518902Y-129727585D01*
X81369485Y-129789476D01*
X81210864Y-129821027D01*
X81049136Y-129821027D01*
X80890515Y-129789476D01*
X80741098Y-129727585D01*
X80606626Y-129637734D01*
X80492266Y-129523374D01*
X80402415Y-129388902D01*
X80340524Y-129239485D01*
X80308973Y-129080864D01*
X80308973Y-128919136D01*
X80340524Y-128760515D01*
X80402415Y-128611098D01*
X80492266Y-128476626D01*
X80606626Y-128362266D01*
X80741098Y-128272415D01*
X80890515Y-128210524D01*
X81049136Y-128178973D01*
X81210864Y-128178973D01*
X81369485Y-128210524D01*
G37*
G36*
X83909485Y-128210524D02*
G01*
X84058902Y-128272415D01*
X84193374Y-128362266D01*
X84307734Y-128476626D01*
X84397585Y-128611098D01*
X84459476Y-128760515D01*
X84491027Y-128919136D01*
X84491027Y-129080864D01*
X84459476Y-129239485D01*
X84397585Y-129388902D01*
X84307734Y-129523374D01*
X84193374Y-129637734D01*
X84058902Y-129727585D01*
X83909485Y-129789476D01*
X83750864Y-129821027D01*
X83589136Y-129821027D01*
X83430515Y-129789476D01*
X83281098Y-129727585D01*
X83146626Y-129637734D01*
X83032266Y-129523374D01*
X82942415Y-129388902D01*
X82880524Y-129239485D01*
X82848973Y-129080864D01*
X82848973Y-128919136D01*
X82880524Y-128760515D01*
X82942415Y-128611098D01*
X83032266Y-128476626D01*
X83146626Y-128362266D01*
X83281098Y-128272415D01*
X83430515Y-128210524D01*
X83589136Y-128178973D01*
X83750864Y-128178973D01*
X83909485Y-128210524D01*
G37*
G36*
X86449485Y-128210524D02*
G01*
X86598902Y-128272415D01*
X86733374Y-128362266D01*
X86847734Y-128476626D01*
X86937585Y-128611098D01*
X86999476Y-128760515D01*
X87031027Y-128919136D01*
X87031027Y-129080864D01*
X86999476Y-129239485D01*
X86937585Y-129388902D01*
X86847734Y-129523374D01*
X86733374Y-129637734D01*
X86598902Y-129727585D01*
X86449485Y-129789476D01*
X86290864Y-129821027D01*
X86129136Y-129821027D01*
X85970515Y-129789476D01*
X85821098Y-129727585D01*
X85686626Y-129637734D01*
X85572266Y-129523374D01*
X85482415Y-129388902D01*
X85420524Y-129239485D01*
X85388973Y-129080864D01*
X85388973Y-128919136D01*
X85420524Y-128760515D01*
X85482415Y-128611098D01*
X85572266Y-128476626D01*
X85686626Y-128362266D01*
X85821098Y-128272415D01*
X85970515Y-128210524D01*
X86129136Y-128178973D01*
X86290864Y-128178973D01*
X86449485Y-128210524D01*
G37*
G36*
X88989485Y-128210524D02*
G01*
X89138902Y-128272415D01*
X89273374Y-128362266D01*
X89387734Y-128476626D01*
X89477585Y-128611098D01*
X89539476Y-128760515D01*
X89571027Y-128919136D01*
X89571027Y-129080864D01*
X89539476Y-129239485D01*
X89477585Y-129388902D01*
X89387734Y-129523374D01*
X89273374Y-129637734D01*
X89138902Y-129727585D01*
X88989485Y-129789476D01*
X88830864Y-129821027D01*
X88669136Y-129821027D01*
X88510515Y-129789476D01*
X88361098Y-129727585D01*
X88226626Y-129637734D01*
X88112266Y-129523374D01*
X88022415Y-129388902D01*
X87960524Y-129239485D01*
X87928973Y-129080864D01*
X87928973Y-128919136D01*
X87960524Y-128760515D01*
X88022415Y-128611098D01*
X88112266Y-128476626D01*
X88226626Y-128362266D01*
X88361098Y-128272415D01*
X88510515Y-128210524D01*
X88669136Y-128178973D01*
X88830864Y-128178973D01*
X88989485Y-128210524D01*
G37*
G36*
X91529485Y-128210524D02*
G01*
X91678902Y-128272415D01*
X91813374Y-128362266D01*
X91927734Y-128476626D01*
X92017585Y-128611098D01*
X92079476Y-128760515D01*
X92111027Y-128919136D01*
X92111027Y-129080864D01*
X92079476Y-129239485D01*
X92017585Y-129388902D01*
X91927734Y-129523374D01*
X91813374Y-129637734D01*
X91678902Y-129727585D01*
X91529485Y-129789476D01*
X91370864Y-129821027D01*
X91209136Y-129821027D01*
X91050515Y-129789476D01*
X90901098Y-129727585D01*
X90766626Y-129637734D01*
X90652266Y-129523374D01*
X90562415Y-129388902D01*
X90500524Y-129239485D01*
X90468973Y-129080864D01*
X90468973Y-128919136D01*
X90500524Y-128760515D01*
X90562415Y-128611098D01*
X90652266Y-128476626D01*
X90766626Y-128362266D01*
X90901098Y-128272415D01*
X91050515Y-128210524D01*
X91209136Y-128178973D01*
X91370864Y-128178973D01*
X91529485Y-128210524D01*
G37*
G36*
X94069485Y-128210524D02*
G01*
X94218902Y-128272415D01*
X94353374Y-128362266D01*
X94467734Y-128476626D01*
X94557585Y-128611098D01*
X94619476Y-128760515D01*
X94651027Y-128919136D01*
X94651027Y-129080864D01*
X94619476Y-129239485D01*
X94557585Y-129388902D01*
X94467734Y-129523374D01*
X94353374Y-129637734D01*
X94218902Y-129727585D01*
X94069485Y-129789476D01*
X93910864Y-129821027D01*
X93749136Y-129821027D01*
X93590515Y-129789476D01*
X93441098Y-129727585D01*
X93306626Y-129637734D01*
X93192266Y-129523374D01*
X93102415Y-129388902D01*
X93040524Y-129239485D01*
X93008973Y-129080864D01*
X93008973Y-128919136D01*
X93040524Y-128760515D01*
X93102415Y-128611098D01*
X93192266Y-128476626D01*
X93306626Y-128362266D01*
X93441098Y-128272415D01*
X93590515Y-128210524D01*
X93749136Y-128178973D01*
X93910864Y-128178973D01*
X94069485Y-128210524D01*
G37*
G36*
X46694500Y-114042500D02*
G01*
X45805500Y-114042500D01*
X45805500Y-113407500D01*
X46694500Y-113407500D01*
X46694500Y-114042500D01*
G37*
G36*
X34994500Y-113707500D02*
G01*
X34105500Y-113707500D01*
X34105500Y-113072500D01*
X34994500Y-113072500D01*
X34994500Y-113707500D01*
G37*
G36*
X46694500Y-112542500D02*
G01*
X45805500Y-112542500D01*
X45805500Y-111907500D01*
X46694500Y-111907500D01*
X46694500Y-112542500D01*
G37*
G36*
X34994500Y-112207500D02*
G01*
X34105500Y-112207500D01*
X34105500Y-111572500D01*
X34994500Y-111572500D01*
X34994500Y-112207500D01*
G37*
G36*
X32400000Y-47500000D02*
G01*
X31200000Y-47500000D01*
X31200000Y-43500000D01*
X32400000Y-43500000D01*
X32400000Y-47500000D01*
G37*
G36*
X36400000Y-47500000D02*
G01*
X35200000Y-47500000D01*
X35200000Y-43500000D01*
X36400000Y-43500000D01*
X36400000Y-47500000D01*
G37*
G36*
X57400000Y-47500000D02*
G01*
X56200000Y-47500000D01*
X56200000Y-43500000D01*
X57400000Y-43500000D01*
X57400000Y-47500000D01*
G37*
G36*
X61400000Y-47500000D02*
G01*
X60200000Y-47500000D01*
X60200000Y-43500000D01*
X61400000Y-43500000D01*
X61400000Y-47500000D01*
G37*
G36*
X29544285Y-38707106D02*
G01*
X29768555Y-38767199D01*
X29983062Y-38856051D01*
X30184137Y-38972141D01*
X30368339Y-39113484D01*
X30532516Y-39277661D01*
X30673859Y-39461863D01*
X30789949Y-39662938D01*
X30878801Y-39877445D01*
X30938894Y-40101715D01*
X30969200Y-40331909D01*
X30969200Y-40564091D01*
X30938894Y-40794285D01*
X30878801Y-41018555D01*
X30789949Y-41233062D01*
X30673859Y-41434137D01*
X30532516Y-41618339D01*
X30368339Y-41782516D01*
X30184137Y-41923859D01*
X29983062Y-42039949D01*
X29768555Y-42128801D01*
X29544285Y-42188894D01*
X29314091Y-42219200D01*
X29081909Y-42219200D01*
X28851715Y-42188894D01*
X28627445Y-42128801D01*
X28412938Y-42039949D01*
X28211863Y-41923859D01*
X28027661Y-41782516D01*
X27863484Y-41618339D01*
X27722141Y-41434137D01*
X27606051Y-41233062D01*
X27517199Y-41018555D01*
X27457106Y-40794285D01*
X27426800Y-40564091D01*
X27426800Y-40331909D01*
X27457106Y-40101715D01*
X27517199Y-39877445D01*
X27606051Y-39662938D01*
X27722141Y-39461863D01*
X27863484Y-39277661D01*
X28027661Y-39113484D01*
X28211863Y-38972141D01*
X28412938Y-38856051D01*
X28627445Y-38767199D01*
X28851715Y-38707106D01*
X29081909Y-38676800D01*
X29314091Y-38676800D01*
X29544285Y-38707106D01*
G37*
G36*
X36144285Y-38707106D02*
G01*
X36368555Y-38767199D01*
X36583062Y-38856051D01*
X36784137Y-38972141D01*
X36968339Y-39113484D01*
X37132516Y-39277661D01*
X37273859Y-39461863D01*
X37389949Y-39662938D01*
X37478801Y-39877445D01*
X37538894Y-40101715D01*
X37569200Y-40331909D01*
X37569200Y-40564091D01*
X37538894Y-40794285D01*
X37478801Y-41018555D01*
X37389949Y-41233062D01*
X37273859Y-41434137D01*
X37132516Y-41618339D01*
X36968339Y-41782516D01*
X36784137Y-41923859D01*
X36583062Y-42039949D01*
X36368555Y-42128801D01*
X36144285Y-42188894D01*
X35914091Y-42219200D01*
X35681909Y-42219200D01*
X35451715Y-42188894D01*
X35227445Y-42128801D01*
X35012938Y-42039949D01*
X34811863Y-41923859D01*
X34627661Y-41782516D01*
X34463484Y-41618339D01*
X34322141Y-41434137D01*
X34206051Y-41233062D01*
X34117199Y-41018555D01*
X34057106Y-40794285D01*
X34026800Y-40564091D01*
X34026800Y-40331909D01*
X34057106Y-40101715D01*
X34117199Y-39877445D01*
X34206051Y-39662938D01*
X34322141Y-39461863D01*
X34463484Y-39277661D01*
X34627661Y-39113484D01*
X34811863Y-38972141D01*
X35012938Y-38856051D01*
X35227445Y-38767199D01*
X35451715Y-38707106D01*
X35681909Y-38676800D01*
X35914091Y-38676800D01*
X36144285Y-38707106D01*
G37*
G36*
X54544285Y-38707106D02*
G01*
X54768555Y-38767199D01*
X54983062Y-38856051D01*
X55184137Y-38972141D01*
X55368339Y-39113484D01*
X55532516Y-39277661D01*
X55673859Y-39461863D01*
X55789949Y-39662938D01*
X55878801Y-39877445D01*
X55938894Y-40101715D01*
X55969200Y-40331909D01*
X55969200Y-40564091D01*
X55938894Y-40794285D01*
X55878801Y-41018555D01*
X55789949Y-41233062D01*
X55673859Y-41434137D01*
X55532516Y-41618339D01*
X55368339Y-41782516D01*
X55184137Y-41923859D01*
X54983062Y-42039949D01*
X54768555Y-42128801D01*
X54544285Y-42188894D01*
X54314091Y-42219200D01*
X54081909Y-42219200D01*
X53851715Y-42188894D01*
X53627445Y-42128801D01*
X53412938Y-42039949D01*
X53211863Y-41923859D01*
X53027661Y-41782516D01*
X52863484Y-41618339D01*
X52722141Y-41434137D01*
X52606051Y-41233062D01*
X52517199Y-41018555D01*
X52457106Y-40794285D01*
X52426800Y-40564091D01*
X52426800Y-40331909D01*
X52457106Y-40101715D01*
X52517199Y-39877445D01*
X52606051Y-39662938D01*
X52722141Y-39461863D01*
X52863484Y-39277661D01*
X53027661Y-39113484D01*
X53211863Y-38972141D01*
X53412938Y-38856051D01*
X53627445Y-38767199D01*
X53851715Y-38707106D01*
X54081909Y-38676800D01*
X54314091Y-38676800D01*
X54544285Y-38707106D01*
G37*
G36*
X61144285Y-38707106D02*
G01*
X61368555Y-38767199D01*
X61583062Y-38856051D01*
X61784137Y-38972141D01*
X61968339Y-39113484D01*
X62132516Y-39277661D01*
X62273859Y-39461863D01*
X62389949Y-39662938D01*
X62478801Y-39877445D01*
X62538894Y-40101715D01*
X62569200Y-40331909D01*
X62569200Y-40564091D01*
X62538894Y-40794285D01*
X62478801Y-41018555D01*
X62389949Y-41233062D01*
X62273859Y-41434137D01*
X62132516Y-41618339D01*
X61968339Y-41782516D01*
X61784137Y-41923859D01*
X61583062Y-42039949D01*
X61368555Y-42128801D01*
X61144285Y-42188894D01*
X60914091Y-42219200D01*
X60681909Y-42219200D01*
X60451715Y-42188894D01*
X60227445Y-42128801D01*
X60012938Y-42039949D01*
X59811863Y-41923859D01*
X59627661Y-41782516D01*
X59463484Y-41618339D01*
X59322141Y-41434137D01*
X59206051Y-41233062D01*
X59117199Y-41018555D01*
X59057106Y-40794285D01*
X59026800Y-40564091D01*
X59026800Y-40331909D01*
X59057106Y-40101715D01*
X59117199Y-39877445D01*
X59206051Y-39662938D01*
X59322141Y-39461863D01*
X59463484Y-39277661D01*
X59627661Y-39113484D01*
X59811863Y-38972141D01*
X60012938Y-38856051D01*
X60227445Y-38767199D01*
X60451715Y-38707106D01*
X60681909Y-38676800D01*
X60914091Y-38676800D01*
X61144285Y-38707106D01*
G37*
G36*
X32792476Y-35911090D02*
G01*
X32982008Y-35972673D01*
X33159573Y-36063147D01*
X33320799Y-36180284D01*
X33461716Y-36321201D01*
X33578853Y-36482427D01*
X33669327Y-36659992D01*
X33730910Y-36849524D01*
X33762085Y-37046357D01*
X33762085Y-37245643D01*
X33730910Y-37442476D01*
X33669327Y-37632008D01*
X33578853Y-37809573D01*
X33461716Y-37970799D01*
X33320799Y-38111716D01*
X33159573Y-38228853D01*
X32982008Y-38319327D01*
X32792476Y-38380910D01*
X32595643Y-38412085D01*
X32396357Y-38412085D01*
X32199524Y-38380910D01*
X32009992Y-38319327D01*
X31832427Y-38228853D01*
X31671201Y-38111716D01*
X31530284Y-37970799D01*
X31413147Y-37809573D01*
X31322673Y-37632008D01*
X31261090Y-37442476D01*
X31229915Y-37245643D01*
X31229915Y-37046357D01*
X31261090Y-36849524D01*
X31322673Y-36659992D01*
X31413147Y-36482427D01*
X31530284Y-36321201D01*
X31671201Y-36180284D01*
X31832427Y-36063147D01*
X32009992Y-35972673D01*
X32199524Y-35911090D01*
X32396357Y-35879915D01*
X32595643Y-35879915D01*
X32792476Y-35911090D01*
G37*
G36*
X57792476Y-35911090D02*
G01*
X57982008Y-35972673D01*
X58159573Y-36063147D01*
X58320799Y-36180284D01*
X58461716Y-36321201D01*
X58578853Y-36482427D01*
X58669327Y-36659992D01*
X58730910Y-36849524D01*
X58762085Y-37046357D01*
X58762085Y-37245643D01*
X58730910Y-37442476D01*
X58669327Y-37632008D01*
X58578853Y-37809573D01*
X58461716Y-37970799D01*
X58320799Y-38111716D01*
X58159573Y-38228853D01*
X57982008Y-38319327D01*
X57792476Y-38380910D01*
X57595643Y-38412085D01*
X57396357Y-38412085D01*
X57199524Y-38380910D01*
X57009992Y-38319327D01*
X56832427Y-38228853D01*
X56671201Y-38111716D01*
X56530284Y-37970799D01*
X56413147Y-37809573D01*
X56322673Y-37632008D01*
X56261090Y-37442476D01*
X56229915Y-37245643D01*
X56229915Y-37046357D01*
X56261090Y-36849524D01*
X56322673Y-36659992D01*
X56413147Y-36482427D01*
X56530284Y-36321201D01*
X56671201Y-36180284D01*
X56832427Y-36063147D01*
X57009992Y-35972673D01*
X57199524Y-35911090D01*
X57396357Y-35879915D01*
X57595643Y-35879915D01*
X57792476Y-35911090D01*
G37*
G36*
X69128067Y-34524309D02*
G01*
X69279875Y-34587190D01*
X69416498Y-34678479D01*
X69532687Y-34794668D01*
X69623976Y-34931291D01*
X69686857Y-35083099D01*
X69718914Y-35244258D01*
X69718914Y-35408574D01*
X69686857Y-35569733D01*
X69623976Y-35721541D01*
X69532687Y-35858164D01*
X69416498Y-35974353D01*
X69279875Y-36065642D01*
X69128067Y-36128523D01*
X68966908Y-36160580D01*
X68802592Y-36160580D01*
X68641433Y-36128523D01*
X68489625Y-36065642D01*
X68353002Y-35974353D01*
X68236813Y-35858164D01*
X68145524Y-35721541D01*
X68082643Y-35569733D01*
X68050586Y-35408574D01*
X68050586Y-35244258D01*
X68082643Y-35083099D01*
X68145524Y-34931291D01*
X68236813Y-34794668D01*
X68353002Y-34678479D01*
X68489625Y-34587190D01*
X68641433Y-34524309D01*
X68802592Y-34492252D01*
X68966908Y-34492252D01*
X69128067Y-34524309D01*
G37*
G36*
X71706567Y-34524309D02*
G01*
X71858375Y-34587190D01*
X71994998Y-34678479D01*
X72111187Y-34794668D01*
X72202476Y-34931291D01*
X72265357Y-35083099D01*
X72297414Y-35244258D01*
X72297414Y-35408574D01*
X72265357Y-35569733D01*
X72202476Y-35721541D01*
X72111187Y-35858164D01*
X71994998Y-35974353D01*
X71858375Y-36065642D01*
X71706567Y-36128523D01*
X71545408Y-36160580D01*
X71381092Y-36160580D01*
X71219933Y-36128523D01*
X71068125Y-36065642D01*
X70931502Y-35974353D01*
X70815313Y-35858164D01*
X70724024Y-35721541D01*
X70661143Y-35569733D01*
X70629086Y-35408574D01*
X70629086Y-35244258D01*
X70661143Y-35083099D01*
X70724024Y-34931291D01*
X70815313Y-34794668D01*
X70931502Y-34678479D01*
X71068125Y-34587190D01*
X71219933Y-34524309D01*
X71381092Y-34492252D01*
X71545408Y-34492252D01*
X71706567Y-34524309D01*
G37*
G36*
X43954067Y-34290293D02*
G01*
X44105875Y-34353174D01*
X44242498Y-34444463D01*
X44358687Y-34560652D01*
X44449976Y-34697275D01*
X44512857Y-34849083D01*
X44544914Y-35010242D01*
X44544914Y-35174558D01*
X44512857Y-35335717D01*
X44449976Y-35487525D01*
X44358687Y-35624148D01*
X44242498Y-35740337D01*
X44105875Y-35831626D01*
X43954067Y-35894507D01*
X43792908Y-35926564D01*
X43628592Y-35926564D01*
X43467433Y-35894507D01*
X43315625Y-35831626D01*
X43179002Y-35740337D01*
X43062813Y-35624148D01*
X42971524Y-35487525D01*
X42908643Y-35335717D01*
X42876586Y-35174558D01*
X42876586Y-35010242D01*
X42908643Y-34849083D01*
X42971524Y-34697275D01*
X43062813Y-34560652D01*
X43179002Y-34444463D01*
X43315625Y-34353174D01*
X43467433Y-34290293D01*
X43628592Y-34258236D01*
X43792908Y-34258236D01*
X43954067Y-34290293D01*
G37*
G36*
X46532567Y-34290293D02*
G01*
X46684375Y-34353174D01*
X46820998Y-34444463D01*
X46937187Y-34560652D01*
X47028476Y-34697275D01*
X47091357Y-34849083D01*
X47123414Y-35010242D01*
X47123414Y-35174558D01*
X47091357Y-35335717D01*
X47028476Y-35487525D01*
X46937187Y-35624148D01*
X46820998Y-35740337D01*
X46684375Y-35831626D01*
X46532567Y-35894507D01*
X46371408Y-35926564D01*
X46207092Y-35926564D01*
X46045933Y-35894507D01*
X45894125Y-35831626D01*
X45757502Y-35740337D01*
X45641313Y-35624148D01*
X45550024Y-35487525D01*
X45487143Y-35335717D01*
X45455086Y-35174558D01*
X45455086Y-35010242D01*
X45487143Y-34849083D01*
X45550024Y-34697275D01*
X45641313Y-34560652D01*
X45757502Y-34444463D01*
X45894125Y-34353174D01*
X46045933Y-34290293D01*
X46207092Y-34258236D01*
X46371408Y-34258236D01*
X46532567Y-34290293D01*
G37*
G36*
X29544285Y-32107106D02*
G01*
X29768555Y-32167199D01*
X29983062Y-32256051D01*
X30184137Y-32372141D01*
X30368339Y-32513484D01*
X30532516Y-32677661D01*
X30673859Y-32861863D01*
X30789949Y-33062938D01*
X30878801Y-33277445D01*
X30938894Y-33501715D01*
X30969200Y-33731909D01*
X30969200Y-33964091D01*
X30938894Y-34194285D01*
X30878801Y-34418555D01*
X30789949Y-34633062D01*
X30673859Y-34834137D01*
X30532516Y-35018339D01*
X30368339Y-35182516D01*
X30184137Y-35323859D01*
X29983062Y-35439949D01*
X29768555Y-35528801D01*
X29544285Y-35588894D01*
X29314091Y-35619200D01*
X29081909Y-35619200D01*
X28851715Y-35588894D01*
X28627445Y-35528801D01*
X28412938Y-35439949D01*
X28211863Y-35323859D01*
X28027661Y-35182516D01*
X27863484Y-35018339D01*
X27722141Y-34834137D01*
X27606051Y-34633062D01*
X27517199Y-34418555D01*
X27457106Y-34194285D01*
X27426800Y-33964091D01*
X27426800Y-33731909D01*
X27457106Y-33501715D01*
X27517199Y-33277445D01*
X27606051Y-33062938D01*
X27722141Y-32861863D01*
X27863484Y-32677661D01*
X28027661Y-32513484D01*
X28211863Y-32372141D01*
X28412938Y-32256051D01*
X28627445Y-32167199D01*
X28851715Y-32107106D01*
X29081909Y-32076800D01*
X29314091Y-32076800D01*
X29544285Y-32107106D01*
G37*
G36*
X36144285Y-32107106D02*
G01*
X36368555Y-32167199D01*
X36583062Y-32256051D01*
X36784137Y-32372141D01*
X36968339Y-32513484D01*
X37132516Y-32677661D01*
X37273859Y-32861863D01*
X37389949Y-33062938D01*
X37478801Y-33277445D01*
X37538894Y-33501715D01*
X37569200Y-33731909D01*
X37569200Y-33964091D01*
X37538894Y-34194285D01*
X37478801Y-34418555D01*
X37389949Y-34633062D01*
X37273859Y-34834137D01*
X37132516Y-35018339D01*
X36968339Y-35182516D01*
X36784137Y-35323859D01*
X36583062Y-35439949D01*
X36368555Y-35528801D01*
X36144285Y-35588894D01*
X35914091Y-35619200D01*
X35681909Y-35619200D01*
X35451715Y-35588894D01*
X35227445Y-35528801D01*
X35012938Y-35439949D01*
X34811863Y-35323859D01*
X34627661Y-35182516D01*
X34463484Y-35018339D01*
X34322141Y-34834137D01*
X34206051Y-34633062D01*
X34117199Y-34418555D01*
X34057106Y-34194285D01*
X34026800Y-33964091D01*
X34026800Y-33731909D01*
X34057106Y-33501715D01*
X34117199Y-33277445D01*
X34206051Y-33062938D01*
X34322141Y-32861863D01*
X34463484Y-32677661D01*
X34627661Y-32513484D01*
X34811863Y-32372141D01*
X35012938Y-32256051D01*
X35227445Y-32167199D01*
X35451715Y-32107106D01*
X35681909Y-32076800D01*
X35914091Y-32076800D01*
X36144285Y-32107106D01*
G37*
G36*
X54544285Y-32107106D02*
G01*
X54768555Y-32167199D01*
X54983062Y-32256051D01*
X55184137Y-32372141D01*
X55368339Y-32513484D01*
X55532516Y-32677661D01*
X55673859Y-32861863D01*
X55789949Y-33062938D01*
X55878801Y-33277445D01*
X55938894Y-33501715D01*
X55969200Y-33731909D01*
X55969200Y-33964091D01*
X55938894Y-34194285D01*
X55878801Y-34418555D01*
X55789949Y-34633062D01*
X55673859Y-34834137D01*
X55532516Y-35018339D01*
X55368339Y-35182516D01*
X55184137Y-35323859D01*
X54983062Y-35439949D01*
X54768555Y-35528801D01*
X54544285Y-35588894D01*
X54314091Y-35619200D01*
X54081909Y-35619200D01*
X53851715Y-35588894D01*
X53627445Y-35528801D01*
X53412938Y-35439949D01*
X53211863Y-35323859D01*
X53027661Y-35182516D01*
X52863484Y-35018339D01*
X52722141Y-34834137D01*
X52606051Y-34633062D01*
X52517199Y-34418555D01*
X52457106Y-34194285D01*
X52426800Y-33964091D01*
X52426800Y-33731909D01*
X52457106Y-33501715D01*
X52517199Y-33277445D01*
X52606051Y-33062938D01*
X52722141Y-32861863D01*
X52863484Y-32677661D01*
X53027661Y-32513484D01*
X53211863Y-32372141D01*
X53412938Y-32256051D01*
X53627445Y-32167199D01*
X53851715Y-32107106D01*
X54081909Y-32076800D01*
X54314091Y-32076800D01*
X54544285Y-32107106D01*
G37*
G36*
X61144285Y-32107106D02*
G01*
X61368555Y-32167199D01*
X61583062Y-32256051D01*
X61784137Y-32372141D01*
X61968339Y-32513484D01*
X62132516Y-32677661D01*
X62273859Y-32861863D01*
X62389949Y-33062938D01*
X62478801Y-33277445D01*
X62538894Y-33501715D01*
X62569200Y-33731909D01*
X62569200Y-33964091D01*
X62538894Y-34194285D01*
X62478801Y-34418555D01*
X62389949Y-34633062D01*
X62273859Y-34834137D01*
X62132516Y-35018339D01*
X61968339Y-35182516D01*
X61784137Y-35323859D01*
X61583062Y-35439949D01*
X61368555Y-35528801D01*
X61144285Y-35588894D01*
X60914091Y-35619200D01*
X60681909Y-35619200D01*
X60451715Y-35588894D01*
X60227445Y-35528801D01*
X60012938Y-35439949D01*
X59811863Y-35323859D01*
X59627661Y-35182516D01*
X59463484Y-35018339D01*
X59322141Y-34834137D01*
X59206051Y-34633062D01*
X59117199Y-34418555D01*
X59057106Y-34194285D01*
X59026800Y-33964091D01*
X59026800Y-33731909D01*
X59057106Y-33501715D01*
X59117199Y-33277445D01*
X59206051Y-33062938D01*
X59322141Y-32861863D01*
X59463484Y-32677661D01*
X59627661Y-32513484D01*
X59811863Y-32372141D01*
X60012938Y-32256051D01*
X60227445Y-32167199D01*
X60451715Y-32107106D01*
X60681909Y-32076800D01*
X60914091Y-32076800D01*
X61144285Y-32107106D01*
G37*
M02*
