%TF.GenerationSoftware,KiCad,Pcbnew,10.0.1*%
%TF.CreationDate,2026-04-20T10:58:22+08:00*%
%TF.ProjectId,Scopefun_v3,53636f70-6566-4756-9e5f-76332e6b6963,rev?*%
%TF.SameCoordinates,Original*%
%TF.FileFunction,Paste,Top*%
%TF.FilePolarity,Positive*%
%FSLAX46Y46*%
G04 Gerber Fmt 4.6, Leading zero omitted, Abs format (unit mm)*
G04 Created by KiCad (PCBNEW 10.0.1) date 2026-04-20 10:58:22*
%MOMM*%
%LPD*%
G01*
G04 APERTURE LIST*
%ADD10R,0.700000X0.600000*%
%ADD11R,0.900000X0.950000*%
%ADD12R,0.600000X0.600000*%
%ADD13R,0.400000X0.600000*%
%ADD14R,1.800000X0.800000*%
%ADD15R,0.800000X1.200000*%
%ADD16O,0.254000X0.710000*%
%ADD17O,0.710000X0.254000*%
%ADD18R,1.370000X1.370000*%
%ADD19R,1.550000X1.230000*%
%ADD20R,1.200000X0.500000*%
%ADD21R,0.635000X0.889000*%
%ADD22R,0.889000X0.635000*%
%ADD23R,1.600000X1.000000*%
%ADD24R,1.100000X1.300000*%
%ADD25R,1.300000X1.100000*%
%ADD26R,1.300000X1.000000*%
%ADD27R,1.100000X2.100000*%
%ADD28R,1.000000X1.300000*%
%ADD29R,2.100000X1.100000*%
%ADD30R,0.500000X0.450000*%
%ADD31R,0.600000X0.700000*%
%ADD32R,1.980000X0.600000*%
%ADD33R,0.600000X1.980000*%
%ADD34R,0.400000X1.000000*%
%ADD35C,0.400000*%
%ADD36R,0.280000X1.000000*%
%ADD37C,0.250000*%
%ADD38C,0.350000*%
%ADD39R,1.500000X1.200000*%
%ADD40R,1.150000X0.440000*%
%ADD41R,0.550000X0.500000*%
%ADD42R,0.500000X0.550000*%
%ADD43R,0.600000X0.450000*%
%ADD44R,1.400000X1.075000*%
%ADD45R,1.075000X1.400000*%
%ADD46R,0.450000X0.600000*%
%ADD47R,1.050000X0.600000*%
%ADD48R,1.050000X0.860000*%
%ADD49R,1.050000X0.700000*%
%ADD50R,4.000000X1.500000*%
%ADD51R,1.500000X4.000000*%
%ADD52R,0.850000X0.300000*%
%ADD53R,0.300000X0.850000*%
%ADD54R,6.350000X6.350000*%
G04 APERTURE END LIST*
D10*
%TO.C,D7*%
X53424500Y-73281800D03*
X53424500Y-71381800D03*
X51424500Y-72331800D03*
%TD*%
D11*
%TO.C,D5*%
X55001500Y-66718812D03*
X51851500Y-66718812D03*
%TD*%
%TO.C,D9*%
X65669500Y-66718812D03*
X62519500Y-66718812D03*
%TD*%
%TO.C,D10*%
X39990100Y-66718812D03*
X36840100Y-66718812D03*
%TD*%
D10*
%TO.C,D8*%
X34952574Y-73281800D03*
X34952574Y-71381800D03*
X32952574Y-72331800D03*
%TD*%
D11*
%TO.C,D6*%
X29093500Y-66718812D03*
X25943500Y-66718812D03*
%TD*%
D12*
%TO.C,Q2*%
X45052100Y-67193100D03*
D13*
X44290100Y-67193100D03*
D12*
X43528100Y-67193100D03*
X43528100Y-68971100D03*
D13*
X44290100Y-68971100D03*
D12*
X45052100Y-68971100D03*
%TD*%
%TO.C,Q1*%
X48708100Y-67193100D03*
D13*
X47946100Y-67193100D03*
D12*
X47184100Y-67193100D03*
X47184100Y-68971100D03*
D13*
X47946100Y-68971100D03*
D12*
X48708100Y-68971100D03*
%TD*%
D14*
%TO.C,RE4*%
X31399500Y-63133000D03*
X31399500Y-59933000D03*
X31399500Y-57733000D03*
X31399500Y-55533000D03*
X24399500Y-55533000D03*
X24399500Y-57733000D03*
X24399500Y-59933000D03*
X24399500Y-63133000D03*
%TD*%
%TO.C,RE6*%
X42067500Y-63133000D03*
X42067500Y-59933000D03*
X42067500Y-57733000D03*
X42067500Y-55533000D03*
X35067500Y-55533000D03*
X35067500Y-57733000D03*
X35067500Y-59933000D03*
X35067500Y-63133000D03*
%TD*%
%TO.C,RE3*%
X57180500Y-63133000D03*
X57180500Y-59933000D03*
X57180500Y-57733000D03*
X57180500Y-55533000D03*
X50180500Y-55533000D03*
X50180500Y-57733000D03*
X50180500Y-59933000D03*
X50180500Y-63133000D03*
%TD*%
%TO.C,RE5*%
X67848500Y-63133000D03*
X67848500Y-59933000D03*
X67848500Y-57733000D03*
X67848500Y-55533000D03*
X60848500Y-55533000D03*
X60848500Y-57733000D03*
X60848500Y-59933000D03*
X60848500Y-63133000D03*
%TD*%
D15*
%TO.C,RE1*%
X53270000Y-46600000D03*
X50730000Y-46600000D03*
X50730000Y-52600000D03*
X53270000Y-52600000D03*
%TD*%
%TO.C,RE2*%
X28270000Y-46600000D03*
X25730000Y-46600000D03*
X25730000Y-52600000D03*
X28270000Y-52600000D03*
%TD*%
D16*
%TO.C,U5*%
X49052000Y-101555899D03*
X48552000Y-101555899D03*
X48052000Y-101555899D03*
X47552000Y-101555899D03*
D17*
X46932000Y-102175899D03*
X46932000Y-102675899D03*
X46932000Y-103175899D03*
X46932000Y-103675899D03*
D16*
X47552000Y-104295899D03*
X48052000Y-104295899D03*
X48552000Y-104295899D03*
X49052000Y-104295899D03*
D17*
X49672000Y-103675899D03*
X49672000Y-103175899D03*
X49672000Y-102675899D03*
X49672000Y-102175899D03*
D18*
X48302000Y-102925899D03*
%TD*%
D16*
%TO.C,U3*%
X49398000Y-84570665D03*
X48898000Y-84570665D03*
X48398000Y-84570665D03*
X47898000Y-84570665D03*
X47898000Y-87310665D03*
X48398000Y-87310665D03*
X48898000Y-87310665D03*
X49398000Y-87310665D03*
D19*
X48648000Y-85940665D03*
%TD*%
D16*
%TO.C,U4*%
X30872000Y-84570665D03*
X30372000Y-84570665D03*
X29872000Y-84570665D03*
X29372000Y-84570665D03*
X29372000Y-87310665D03*
X29872000Y-87310665D03*
X30372000Y-87310665D03*
X30872000Y-87310665D03*
D19*
X30122000Y-85940665D03*
%TD*%
D16*
%TO.C,U6*%
X32827800Y-101555899D03*
X32327800Y-101555899D03*
X31827800Y-101555899D03*
X31327800Y-101555899D03*
D17*
X30707800Y-102175899D03*
X30707800Y-102675899D03*
X30707800Y-103175899D03*
X30707800Y-103675899D03*
D16*
X31327800Y-104295899D03*
X31827800Y-104295899D03*
X32327800Y-104295899D03*
X32827800Y-104295899D03*
D17*
X33447800Y-103675899D03*
X33447800Y-103175899D03*
X33447800Y-102675899D03*
X33447800Y-102175899D03*
D18*
X32077800Y-102925899D03*
%TD*%
D20*
%TO.C,U27*%
X87680000Y-65440000D03*
X87680000Y-64490000D03*
X87680000Y-63540000D03*
X85480000Y-63540000D03*
X85480000Y-65440000D03*
%TD*%
D21*
%TO.C,C35*%
X58022560Y-103350000D03*
X56522560Y-103350000D03*
%TD*%
D22*
%TO.C,C37*%
X53100000Y-110400000D03*
X53100000Y-111900000D03*
%TD*%
%TO.C,C8*%
X74191000Y-69488000D03*
X74191000Y-67988000D03*
%TD*%
%TO.C,C7*%
X55536000Y-73312000D03*
X55536000Y-74812000D03*
%TD*%
%TO.C,C9*%
X55536000Y-71388000D03*
X55536000Y-69888000D03*
%TD*%
%TO.C,C16*%
X43300000Y-76500000D03*
X43300000Y-78000000D03*
%TD*%
%TO.C,C19*%
X50426000Y-91231000D03*
X50426000Y-89731000D03*
%TD*%
%TO.C,C21*%
X46847000Y-91231000D03*
X46847000Y-89731000D03*
%TD*%
%TO.C,C20*%
X31877000Y-91231000D03*
X31877000Y-89731000D03*
%TD*%
%TO.C,C22*%
X28321000Y-91231000D03*
X28321000Y-89731000D03*
%TD*%
%TO.C,C15*%
X51500000Y-77200000D03*
X51500000Y-78700000D03*
%TD*%
%TO.C,C10*%
X36599000Y-71388000D03*
X36599000Y-69888000D03*
%TD*%
%TO.C,C5*%
X47267000Y-63067500D03*
X47267000Y-61567500D03*
%TD*%
%TO.C,C6*%
X44100000Y-50750000D03*
X44100000Y-49250000D03*
%TD*%
%TO.C,C13*%
X37361000Y-49240500D03*
X37361000Y-50740500D03*
%TD*%
D21*
%TO.C,C2*%
X32600000Y-50800000D03*
X31100000Y-50800000D03*
%TD*%
%TO.C,C1*%
X57600000Y-50800000D03*
X56100000Y-50800000D03*
%TD*%
D22*
%TO.C,C11*%
X62888000Y-49240500D03*
X62888000Y-50740500D03*
%TD*%
%TO.C,C4*%
X70127000Y-50740500D03*
X70127000Y-49240500D03*
%TD*%
%TO.C,C3*%
X72921000Y-63067500D03*
X72921000Y-61567500D03*
%TD*%
%TO.C,C26*%
X53500000Y-103700000D03*
X53500000Y-105200000D03*
%TD*%
D21*
%TO.C,C36*%
X56525000Y-106550000D03*
X58025000Y-106550000D03*
%TD*%
D22*
%TO.C,C23*%
X44500000Y-107350000D03*
X44500000Y-108850000D03*
%TD*%
%TO.C,C25*%
X42750000Y-103700000D03*
X42750000Y-105200000D03*
%TD*%
%TO.C,C28*%
X37650000Y-105200000D03*
X37650000Y-103700000D03*
%TD*%
D21*
%TO.C,C59*%
X25875000Y-133350000D03*
X24375000Y-133350000D03*
%TD*%
D22*
%TO.C,C24*%
X28200000Y-107350000D03*
X28200000Y-108850000D03*
%TD*%
%TO.C,C27*%
X26450000Y-105200000D03*
X26450000Y-103700000D03*
%TD*%
D21*
%TO.C,C127*%
X84910000Y-87130000D03*
X83410000Y-87130000D03*
%TD*%
%TO.C,C124*%
X87890000Y-81640000D03*
X86390000Y-81640000D03*
%TD*%
D22*
%TO.C,C132*%
X82360000Y-83180000D03*
X82360000Y-84680000D03*
%TD*%
%TO.C,C137*%
X82980000Y-64190000D03*
X82980000Y-62690000D03*
%TD*%
D23*
%TO.C,F1*%
X46350000Y-183650000D03*
X46350000Y-180650000D03*
%TD*%
D24*
%TO.C,LED1*%
X78120000Y-187400000D03*
X80320000Y-187400000D03*
%TD*%
%TO.C,LED2*%
X71274000Y-32634016D03*
X69074000Y-32634016D03*
%TD*%
%TO.C,LED3*%
X46100000Y-32400000D03*
X43900000Y-32400000D03*
%TD*%
D21*
%TO.C,R58*%
X84050000Y-135400000D03*
X82550000Y-135400000D03*
%TD*%
D22*
%TO.C,R8*%
X56675000Y-83750000D03*
X56675000Y-85250000D03*
%TD*%
%TO.C,R7*%
X59875000Y-85250000D03*
X59875000Y-83750000D03*
%TD*%
%TO.C,R2*%
X65975000Y-85450000D03*
X65975000Y-83950000D03*
%TD*%
%TO.C,R3*%
X64175000Y-85400000D03*
X64175000Y-83900000D03*
%TD*%
%TO.C,R60*%
X67575000Y-83950000D03*
X67575000Y-85450000D03*
%TD*%
D21*
%TO.C,R29*%
X34618500Y-99135000D03*
X33118500Y-99135000D03*
%TD*%
D22*
%TO.C,R25*%
X33043000Y-97154398D03*
X33043000Y-95654398D03*
%TD*%
%TO.C,R26*%
X31011000Y-97154398D03*
X31011000Y-95654398D03*
%TD*%
D21*
%TO.C,R30*%
X29435500Y-99135000D03*
X30935500Y-99135000D03*
%TD*%
D22*
%TO.C,R22*%
X27328000Y-86994398D03*
X27328000Y-85494398D03*
%TD*%
D21*
%TO.C,R20*%
X28014500Y-83514000D03*
X26514500Y-83514000D03*
%TD*%
D22*
%TO.C,R1*%
X61475000Y-85250000D03*
X61475000Y-83750000D03*
%TD*%
%TO.C,R6*%
X58275000Y-83750000D03*
X58275000Y-85250000D03*
%TD*%
D21*
%TO.C,R19*%
X46667500Y-83514000D03*
X45167500Y-83514000D03*
%TD*%
D22*
%TO.C,R21*%
X45854000Y-86994398D03*
X45854000Y-85494398D03*
%TD*%
%TO.C,R24*%
X47286000Y-97154398D03*
X47286000Y-95654398D03*
%TD*%
D21*
%TO.C,R28*%
X45710602Y-99135000D03*
X47210602Y-99135000D03*
%TD*%
D22*
%TO.C,R23*%
X49422000Y-97154398D03*
X49422000Y-95654398D03*
%TD*%
D21*
%TO.C,R27*%
X50893398Y-99135000D03*
X49393398Y-99135000D03*
%TD*%
%TO.C,R37*%
X56522560Y-104950000D03*
X58022560Y-104950000D03*
%TD*%
%TO.C,R36*%
X58025000Y-101750000D03*
X56525000Y-101750000D03*
%TD*%
D22*
%TO.C,R126*%
X73060000Y-82280000D03*
X73060000Y-83780000D03*
%TD*%
%TO.C,R125*%
X74860000Y-83780000D03*
X74860000Y-82280000D03*
%TD*%
D25*
%TO.C,R9*%
X70762000Y-63277800D03*
X70762000Y-61077800D03*
%TD*%
D22*
%TO.C,R13*%
X59078000Y-66393500D03*
X59078000Y-67893500D03*
%TD*%
D25*
%TO.C,R11*%
X44981000Y-63277800D03*
X44981000Y-61077800D03*
%TD*%
D22*
%TO.C,R14*%
X33170000Y-66393500D03*
X33170000Y-67893500D03*
%TD*%
%TO.C,R17*%
X35400000Y-49250000D03*
X35400000Y-50750000D03*
%TD*%
D25*
%TO.C,R18*%
X39500000Y-51100000D03*
X39500000Y-48900000D03*
%TD*%
D22*
%TO.C,R12*%
X46400000Y-50750000D03*
X46400000Y-49250000D03*
%TD*%
D21*
%TO.C,R4*%
X57600000Y-52597000D03*
X56100000Y-52597000D03*
%TD*%
D22*
%TO.C,R15*%
X60900000Y-49240500D03*
X60900000Y-50740500D03*
%TD*%
D25*
%TO.C,R16*%
X65000000Y-51100000D03*
X65000000Y-48900000D03*
%TD*%
D22*
%TO.C,R10*%
X72286000Y-50740500D03*
X72286000Y-49240500D03*
%TD*%
%TO.C,R127*%
X81130000Y-64190000D03*
X81130000Y-62690000D03*
%TD*%
%TO.C,R128*%
X78630000Y-62690000D03*
X78630000Y-64190000D03*
%TD*%
D21*
%TO.C,R5*%
X32600000Y-52597000D03*
X31100000Y-52597000D03*
%TD*%
D20*
%TO.C,U28*%
X79589116Y-85053000D03*
X79589116Y-84103000D03*
X79589116Y-83153000D03*
X77389116Y-83153000D03*
X77389116Y-85053000D03*
%TD*%
D22*
%TO.C,C12*%
X67200000Y-50750000D03*
X67200000Y-49250000D03*
%TD*%
%TO.C,C14*%
X41700000Y-50750000D03*
X41700000Y-49250000D03*
%TD*%
%TO.C,C17*%
X33000000Y-77200000D03*
X33000000Y-78700000D03*
%TD*%
%TO.C,C18*%
X24800000Y-76500000D03*
X24800000Y-78000000D03*
%TD*%
D21*
%TO.C,C33*%
X48990000Y-116940000D03*
X47490000Y-116940000D03*
%TD*%
D22*
%TO.C,C40*%
X54450000Y-126750000D03*
X54450000Y-125250000D03*
%TD*%
%TO.C,C46*%
X48075000Y-119850000D03*
X48075000Y-121350000D03*
%TD*%
%TO.C,C49*%
X39320000Y-118095000D03*
X39320000Y-116595000D03*
%TD*%
%TO.C,C50*%
X40900000Y-118110000D03*
X40900000Y-116610000D03*
%TD*%
D26*
%TO.C,C123*%
X79440000Y-118900000D03*
X79440000Y-120900000D03*
%TD*%
D21*
%TO.C,C126*%
X84590000Y-119900000D03*
X86090000Y-119900000D03*
%TD*%
%TO.C,C129*%
X83400000Y-125150000D03*
X84900000Y-125150000D03*
%TD*%
%TO.C,C131*%
X75490000Y-122800000D03*
X76990000Y-122800000D03*
%TD*%
D22*
%TO.C,C134*%
X88080000Y-123390000D03*
X88080000Y-121890000D03*
%TD*%
D27*
%TO.C,C136*%
X72990000Y-125400000D03*
X76290000Y-125400000D03*
%TD*%
D28*
%TO.C,C148*%
X78200000Y-173100000D03*
X80200000Y-173100000D03*
%TD*%
D22*
%TO.C,C157*%
X69700000Y-173150000D03*
X69700000Y-174650000D03*
%TD*%
%TO.C,C158*%
X68100000Y-173150000D03*
X68100000Y-174650000D03*
%TD*%
%TO.C,C159*%
X64200000Y-168150000D03*
X64200000Y-169650000D03*
%TD*%
D21*
%TO.C,C160*%
X81300000Y-169600000D03*
X82800000Y-169600000D03*
%TD*%
%TO.C,C162*%
X52700000Y-161800000D03*
X54200000Y-161800000D03*
%TD*%
%TO.C,C164*%
X82250000Y-164000000D03*
X80750000Y-164000000D03*
%TD*%
D22*
%TO.C,C170*%
X59200000Y-165500000D03*
X59200000Y-164000000D03*
%TD*%
D29*
%TO.C,C178*%
X79900000Y-142375000D03*
X79900000Y-139075000D03*
%TD*%
%TO.C,C180*%
X70230000Y-125430000D03*
X70230000Y-122130000D03*
%TD*%
%TO.C,C181*%
X82900000Y-142375000D03*
X82900000Y-139075000D03*
%TD*%
D26*
%TO.C,C184*%
X37700000Y-138550000D03*
X37700000Y-140550000D03*
%TD*%
%TO.C,C186*%
X64425000Y-124650000D03*
X64425000Y-122650000D03*
%TD*%
D29*
%TO.C,C188*%
X84800000Y-147250000D03*
X84800000Y-150550000D03*
%TD*%
D22*
%TO.C,C189*%
X42025000Y-136625000D03*
X42025000Y-138125000D03*
%TD*%
D26*
%TO.C,C192*%
X77400000Y-141625000D03*
X77400000Y-139625000D03*
%TD*%
D22*
%TO.C,C197*%
X62700000Y-124300000D03*
X62700000Y-122800000D03*
%TD*%
D29*
%TO.C,C205*%
X72325000Y-132425000D03*
X72325000Y-129125000D03*
%TD*%
%TO.C,C206*%
X25000000Y-164150000D03*
X25000000Y-167450000D03*
%TD*%
D26*
%TO.C,C208*%
X69675000Y-131775000D03*
X69675000Y-129775000D03*
%TD*%
D29*
%TO.C,C218*%
X81800000Y-147250000D03*
X81800000Y-150550000D03*
%TD*%
D22*
%TO.C,C223*%
X75600000Y-141375000D03*
X75600000Y-139875000D03*
%TD*%
D21*
%TO.C,C241*%
X70050000Y-72900000D03*
X68550000Y-72900000D03*
%TD*%
%TO.C,C242*%
X62850000Y-72900000D03*
X61350000Y-72900000D03*
%TD*%
D11*
%TO.C,D11*%
X39940100Y-92118812D03*
X36790100Y-92118812D03*
%TD*%
D30*
%TO.C,D12*%
X47650000Y-114900000D03*
X48750000Y-114900000D03*
X48750000Y-113350000D03*
X47650000Y-113350000D03*
%TD*%
%TO.C,D13*%
X47660000Y-112140000D03*
X48760000Y-112140000D03*
X48760000Y-110590000D03*
X47660000Y-110590000D03*
%TD*%
D31*
%TO.C,D55*%
X70250000Y-77800000D03*
X68350000Y-77800000D03*
X69300000Y-79800000D03*
%TD*%
%TO.C,D56*%
X63050000Y-77800000D03*
X61150000Y-77800000D03*
X62100000Y-79800000D03*
%TD*%
D28*
%TO.C,L8*%
X80200000Y-175100000D03*
X78200000Y-175100000D03*
%TD*%
D26*
%TO.C,L10*%
X65900000Y-176400000D03*
X65900000Y-174400000D03*
%TD*%
D32*
%TO.C,Q4*%
X34135000Y-182495000D03*
X34135000Y-183765000D03*
X34135000Y-185035000D03*
X34135000Y-186305000D03*
X39065000Y-186305000D03*
X39065000Y-185035000D03*
X39065000Y-183765000D03*
X39065000Y-182495000D03*
%TD*%
D22*
%TO.C,R31*%
X50700000Y-108850000D03*
X50700000Y-107350000D03*
%TD*%
%TO.C,R32*%
X49000000Y-108850000D03*
X49000000Y-107350000D03*
%TD*%
%TO.C,R33*%
X47400000Y-108850000D03*
X47400000Y-107350000D03*
%TD*%
%TO.C,R34*%
X33000000Y-108850000D03*
X33000000Y-107350000D03*
%TD*%
%TO.C,R35*%
X31400000Y-108850000D03*
X31400000Y-107350000D03*
%TD*%
%TO.C,R39*%
X24775000Y-130500000D03*
X24775000Y-129000000D03*
%TD*%
%TO.C,R118*%
X83280000Y-123390000D03*
X83280000Y-121890000D03*
%TD*%
D21*
%TO.C,R120*%
X76990000Y-121200000D03*
X75490000Y-121200000D03*
%TD*%
D22*
%TO.C,R123*%
X86480000Y-123390000D03*
X86480000Y-121890000D03*
%TD*%
%TO.C,R124*%
X84880000Y-121890000D03*
X84880000Y-123390000D03*
%TD*%
%TO.C,R129*%
X73200000Y-155900000D03*
X73200000Y-157400000D03*
%TD*%
%TO.C,R130*%
X57600000Y-168150000D03*
X57600000Y-169650000D03*
%TD*%
%TO.C,R131*%
X59200000Y-168150000D03*
X59200000Y-169650000D03*
%TD*%
%TO.C,R132*%
X61000000Y-169650000D03*
X61000000Y-168150000D03*
%TD*%
%TO.C,R133*%
X57592941Y-164000000D03*
X57592941Y-165500000D03*
%TD*%
%TO.C,R134*%
X62600000Y-169650000D03*
X62600000Y-168150000D03*
%TD*%
%TO.C,R135*%
X60800000Y-165500000D03*
X60800000Y-164000000D03*
%TD*%
D21*
%TO.C,R136*%
X88250000Y-135400000D03*
X86750000Y-135400000D03*
%TD*%
D22*
%TO.C,R137*%
X62400000Y-165500000D03*
X62400000Y-164000000D03*
%TD*%
D21*
%TO.C,R138*%
X83300000Y-155500000D03*
X81800000Y-155500000D03*
%TD*%
%TO.C,R163*%
X70050000Y-74500000D03*
X68550000Y-74500000D03*
%TD*%
%TO.C,R164*%
X61350000Y-74500000D03*
X62850000Y-74500000D03*
%TD*%
%TO.C,R167*%
X70050000Y-76100000D03*
X68550000Y-76100000D03*
%TD*%
D22*
%TO.C,R168*%
X66050000Y-78000000D03*
X66050000Y-79500000D03*
%TD*%
D21*
%TO.C,R169*%
X62850000Y-76100000D03*
X61350000Y-76100000D03*
%TD*%
D22*
%TO.C,R170*%
X58800000Y-78000000D03*
X58800000Y-79500000D03*
%TD*%
D21*
%TO.C,R180*%
X25800000Y-158400000D03*
X24300000Y-158400000D03*
%TD*%
%TO.C,R182*%
X25800000Y-160100000D03*
X24300000Y-160100000D03*
%TD*%
D22*
%TO.C,R185*%
X25800000Y-154500000D03*
X25800000Y-153000000D03*
%TD*%
%TO.C,R186*%
X24200000Y-153000000D03*
X24200000Y-154500000D03*
%TD*%
D14*
%TO.C,RE7*%
X42000000Y-88200000D03*
X42000000Y-85000000D03*
X42000000Y-82800000D03*
X42000000Y-80600000D03*
X35000000Y-80600000D03*
X35000000Y-82800000D03*
X35000000Y-85000000D03*
X35000000Y-88200000D03*
%TD*%
D33*
%TO.C,U1*%
X49305000Y-75135000D03*
X48035000Y-75135000D03*
X46765000Y-75135000D03*
X45495000Y-75135000D03*
X45495000Y-80065000D03*
X46765000Y-80065000D03*
X48035000Y-80065000D03*
X49305000Y-80065000D03*
%TD*%
%TO.C,U2*%
X30805000Y-75135000D03*
X29535000Y-75135000D03*
X28265000Y-75135000D03*
X26995000Y-75135000D03*
X26995000Y-80065000D03*
X28265000Y-80065000D03*
X29535000Y-80065000D03*
X30805000Y-80065000D03*
%TD*%
D34*
%TO.C,U7*%
X55950000Y-111000000D03*
X55300000Y-111000000D03*
X54650000Y-111000000D03*
X54650000Y-112800000D03*
X55300000Y-112800000D03*
X55950000Y-112800000D03*
%TD*%
D35*
%TO.C,U12*%
X70800000Y-151400000D03*
X69800000Y-151400000D03*
X68800000Y-151400000D03*
X67800000Y-151400000D03*
X66800000Y-151400000D03*
X65800000Y-151400000D03*
X64800000Y-151400000D03*
X63800000Y-151400000D03*
X62800000Y-151400000D03*
X61800000Y-151400000D03*
X60800000Y-151400000D03*
X59800000Y-151400000D03*
X58800000Y-151400000D03*
X57800000Y-151400000D03*
X56800000Y-151400000D03*
X55800000Y-151400000D03*
X70800000Y-150400000D03*
X69800000Y-150400000D03*
X68800000Y-150400000D03*
X67800000Y-150400000D03*
X66800000Y-150400000D03*
X65800000Y-150400000D03*
X64800000Y-150400000D03*
X63800000Y-150400000D03*
X62800000Y-150400000D03*
X61800000Y-150400000D03*
X60800000Y-150400000D03*
X59800000Y-150400000D03*
X58800000Y-150400000D03*
X57800000Y-150400000D03*
X56800000Y-150400000D03*
X55800000Y-150400000D03*
X70800000Y-149400000D03*
X69800000Y-149400000D03*
X68800000Y-149400000D03*
X67800000Y-149400000D03*
X66800000Y-149400000D03*
X65800000Y-149400000D03*
X64800000Y-149400000D03*
X63800000Y-149400000D03*
X62800000Y-149400000D03*
X61800000Y-149400000D03*
X60800000Y-149400000D03*
X59800000Y-149400000D03*
X58800000Y-149400000D03*
X57800000Y-149400000D03*
X56800000Y-149400000D03*
X55800000Y-149400000D03*
X70800000Y-148400000D03*
X69800000Y-148400000D03*
X68800000Y-148400000D03*
X67800000Y-148400000D03*
X66800000Y-148400000D03*
X65800000Y-148400000D03*
X64800000Y-148400000D03*
X63800000Y-148400000D03*
X62800000Y-148400000D03*
X61800000Y-148400000D03*
X60800000Y-148400000D03*
X59800000Y-148400000D03*
X58800000Y-148400000D03*
X57800000Y-148400000D03*
X56800000Y-148400000D03*
X55800000Y-148400000D03*
X70800000Y-147400000D03*
X69800000Y-147400000D03*
X68800000Y-147400000D03*
X67800000Y-147400000D03*
X66800000Y-147400000D03*
X65800000Y-147400000D03*
X64800000Y-147400000D03*
X63800000Y-147400000D03*
X62800000Y-147400000D03*
X61800000Y-147400000D03*
X60800000Y-147400000D03*
X59800000Y-147400000D03*
X58800000Y-147400000D03*
X57800000Y-147400000D03*
X56800000Y-147400000D03*
X55800000Y-147400000D03*
X70800000Y-146400000D03*
X69800000Y-146400000D03*
X68800000Y-146400000D03*
X67800000Y-146400000D03*
X66800000Y-146400000D03*
X65800000Y-146400000D03*
X64800000Y-146400000D03*
X63800000Y-146400000D03*
X62800000Y-146400000D03*
X61800000Y-146400000D03*
X60800000Y-146400000D03*
X59800000Y-146400000D03*
X58800000Y-146400000D03*
X57800000Y-146400000D03*
X56800000Y-146400000D03*
X55800000Y-146400000D03*
X70800000Y-145400000D03*
X69800000Y-145400000D03*
X68800000Y-145400000D03*
X67800000Y-145400000D03*
X66800000Y-145400000D03*
X65800000Y-145400000D03*
X64800000Y-145400000D03*
X63800000Y-145400000D03*
X62800000Y-145400000D03*
X61800000Y-145400000D03*
X60800000Y-145400000D03*
X59800000Y-145400000D03*
X58800000Y-145400000D03*
X57800000Y-145400000D03*
X56800000Y-145400000D03*
X55800000Y-145400000D03*
X70800000Y-144400000D03*
X69800000Y-144400000D03*
X68800000Y-144400000D03*
X67800000Y-144400000D03*
X66800000Y-144400000D03*
X65800000Y-144400000D03*
X64800000Y-144400000D03*
X63800000Y-144400000D03*
X62800000Y-144400000D03*
X61800000Y-144400000D03*
X60800000Y-144400000D03*
X59800000Y-144400000D03*
X58800000Y-144400000D03*
X57800000Y-144400000D03*
X56800000Y-144400000D03*
X55800000Y-144400000D03*
X70800000Y-143400000D03*
X69800000Y-143400000D03*
X68800000Y-143400000D03*
X67800000Y-143400000D03*
X66800000Y-143400000D03*
X65800000Y-143400000D03*
X64800000Y-143400000D03*
X63800000Y-143400000D03*
X62800000Y-143400000D03*
X61800000Y-143400000D03*
X60800000Y-143400000D03*
X59800000Y-143400000D03*
X58800000Y-143400000D03*
X57800000Y-143400000D03*
X56800000Y-143400000D03*
X55800000Y-143400000D03*
X70800000Y-142400000D03*
X69800000Y-142400000D03*
X68800000Y-142400000D03*
X67800000Y-142400000D03*
X66800000Y-142400000D03*
X65800000Y-142400000D03*
X64800000Y-142400000D03*
X63800000Y-142400000D03*
X62800000Y-142400000D03*
X61800000Y-142400000D03*
X60800000Y-142400000D03*
X59800000Y-142400000D03*
X58800000Y-142400000D03*
X57800000Y-142400000D03*
X56800000Y-142400000D03*
X55800000Y-142400000D03*
X70800000Y-141400000D03*
X69800000Y-141400000D03*
X68800000Y-141400000D03*
X67800000Y-141400000D03*
X66800000Y-141400000D03*
X65800000Y-141400000D03*
X64800000Y-141400000D03*
X63800000Y-141400000D03*
X62800000Y-141400000D03*
X61800000Y-141400000D03*
X60800000Y-141400000D03*
X59800000Y-141400000D03*
X58800000Y-141400000D03*
X57800000Y-141400000D03*
X56800000Y-141400000D03*
X55800000Y-141400000D03*
X70800000Y-140400000D03*
X69800000Y-140400000D03*
X68800000Y-140400000D03*
X67800000Y-140400000D03*
X66800000Y-140400000D03*
X65800000Y-140400000D03*
X64800000Y-140400000D03*
X63800000Y-140400000D03*
X62800000Y-140400000D03*
X61800000Y-140400000D03*
X60800000Y-140400000D03*
X59800000Y-140400000D03*
X58800000Y-140400000D03*
X57800000Y-140400000D03*
X56800000Y-140400000D03*
X55800000Y-140400000D03*
X70800000Y-139400000D03*
X69800000Y-139400000D03*
X68800000Y-139400000D03*
X67800000Y-139400000D03*
X66800000Y-139400000D03*
X65800000Y-139400000D03*
X64800000Y-139400000D03*
X63800000Y-139400000D03*
X62800000Y-139400000D03*
X61800000Y-139400000D03*
X60800000Y-139400000D03*
X59800000Y-139400000D03*
X58800000Y-139400000D03*
X57800000Y-139400000D03*
X56800000Y-139400000D03*
X55800000Y-139400000D03*
X70800000Y-138400000D03*
X69800000Y-138400000D03*
X68800000Y-138400000D03*
X67800000Y-138400000D03*
X66800000Y-138400000D03*
X65800000Y-138400000D03*
X64800000Y-138400000D03*
X63800000Y-138400000D03*
X62800000Y-138400000D03*
X61800000Y-138400000D03*
X60800000Y-138400000D03*
X59800000Y-138400000D03*
X58800000Y-138400000D03*
X57800000Y-138400000D03*
X56800000Y-138400000D03*
X55800000Y-138400000D03*
X70800000Y-137400000D03*
X69800000Y-137400000D03*
X68800000Y-137400000D03*
X67800000Y-137400000D03*
X66800000Y-137400000D03*
X65800000Y-137400000D03*
X64800000Y-137400000D03*
X63800000Y-137400000D03*
X62800000Y-137400000D03*
X61800000Y-137400000D03*
X60800000Y-137400000D03*
X59800000Y-137400000D03*
X58800000Y-137400000D03*
X57800000Y-137400000D03*
X56800000Y-137400000D03*
X55800000Y-137400000D03*
X70800000Y-136400000D03*
X69800000Y-136400000D03*
X68800000Y-136400000D03*
X67800000Y-136400000D03*
X66800000Y-136400000D03*
X65800000Y-136400000D03*
X64800000Y-136400000D03*
X63800000Y-136400000D03*
X62800000Y-136400000D03*
X61800000Y-136400000D03*
X60800000Y-136400000D03*
X59800000Y-136400000D03*
X58800000Y-136400000D03*
X57800000Y-136400000D03*
X56800000Y-136400000D03*
X55800000Y-136400000D03*
%TD*%
D36*
%TO.C,U13*%
X31000000Y-182900000D03*
X30500000Y-182900000D03*
X30000000Y-182900000D03*
X29500000Y-182900000D03*
X29500000Y-184700000D03*
X30000000Y-184700000D03*
X30500000Y-184700000D03*
X31000000Y-184700000D03*
%TD*%
D37*
%TO.C,U26*%
X81540000Y-120400000D03*
X81540000Y-119900000D03*
X81540000Y-119400000D03*
X82040000Y-120400000D03*
X82040000Y-119900000D03*
X82040000Y-119400000D03*
X82540000Y-120400000D03*
X82540000Y-119900000D03*
X82540000Y-119400000D03*
%TD*%
D38*
%TO.C,U29*%
X75600000Y-169400000D03*
X74800000Y-169400000D03*
X74000000Y-169400000D03*
X73200000Y-169400000D03*
X72400000Y-169400000D03*
X71600000Y-169400000D03*
X70800000Y-169400000D03*
X70000000Y-169400000D03*
X69200000Y-169400000D03*
X68400000Y-169400000D03*
X67600000Y-169400000D03*
X75600000Y-168600000D03*
X74800000Y-168600000D03*
X74000000Y-168600000D03*
X73200000Y-168600000D03*
X72400000Y-168600000D03*
X71600000Y-168600000D03*
X70800000Y-168600000D03*
X70000000Y-168600000D03*
X69200000Y-168600000D03*
X68400000Y-168600000D03*
X67600000Y-168600000D03*
X75600000Y-167800000D03*
X74800000Y-167800000D03*
X74000000Y-167800000D03*
X73200000Y-167800000D03*
X72400000Y-167800000D03*
X71600000Y-167800000D03*
X70800000Y-167800000D03*
X70000000Y-167800000D03*
X69200000Y-167800000D03*
X68400000Y-167800000D03*
X67600000Y-167800000D03*
X75600000Y-167000000D03*
X74800000Y-167000000D03*
X74000000Y-167000000D03*
X73200000Y-167000000D03*
X72400000Y-167000000D03*
X71600000Y-167000000D03*
X70800000Y-167000000D03*
X70000000Y-167000000D03*
X69200000Y-167000000D03*
X68400000Y-167000000D03*
X67600000Y-167000000D03*
X75600000Y-166200000D03*
X74800000Y-166200000D03*
X74000000Y-166200000D03*
X73200000Y-166200000D03*
X72400000Y-166200000D03*
X71600000Y-166200000D03*
X70800000Y-166200000D03*
X70000000Y-166200000D03*
X69200000Y-166200000D03*
X68400000Y-166200000D03*
X67600000Y-166200000D03*
X75600000Y-165400000D03*
X74800000Y-165400000D03*
X74000000Y-165400000D03*
X73200000Y-165400000D03*
X72400000Y-165400000D03*
X71600000Y-165400000D03*
X70800000Y-165400000D03*
X70000000Y-165400000D03*
X69200000Y-165400000D03*
X68400000Y-165400000D03*
X67600000Y-165400000D03*
X75600000Y-164600000D03*
X74800000Y-164600000D03*
X74000000Y-164600000D03*
X73200000Y-164600000D03*
X72400000Y-164600000D03*
X71600000Y-164600000D03*
X70800000Y-164600000D03*
X70000000Y-164600000D03*
X69200000Y-164600000D03*
X68400000Y-164600000D03*
X67600000Y-164600000D03*
X75600000Y-163800000D03*
X74800000Y-163800000D03*
X74000000Y-163800000D03*
X73200000Y-163800000D03*
X72400000Y-163800000D03*
X71600000Y-163800000D03*
X70800000Y-163800000D03*
X70000000Y-163800000D03*
X69200000Y-163800000D03*
X68400000Y-163800000D03*
X67600000Y-163800000D03*
X75600000Y-163000000D03*
X74800000Y-163000000D03*
X74000000Y-163000000D03*
X73200000Y-163000000D03*
X72400000Y-163000000D03*
X71600000Y-163000000D03*
X70800000Y-163000000D03*
X70000000Y-163000000D03*
X69200000Y-163000000D03*
X68400000Y-163000000D03*
X67600000Y-163000000D03*
X75600000Y-162200000D03*
X74800000Y-162200000D03*
X74000000Y-162200000D03*
X73200000Y-162200000D03*
X72400000Y-162200000D03*
X71600000Y-162200000D03*
X70800000Y-162200000D03*
X70000000Y-162200000D03*
X69200000Y-162200000D03*
X68400000Y-162200000D03*
X67600000Y-162200000D03*
X75600000Y-161400000D03*
X74800000Y-161400000D03*
X74000000Y-161400000D03*
X73200000Y-161400000D03*
X72400000Y-161400000D03*
X71600000Y-161400000D03*
X70800000Y-161400000D03*
X70000000Y-161400000D03*
X69200000Y-161400000D03*
X68400000Y-161400000D03*
X67600000Y-161400000D03*
%TD*%
D33*
%TO.C,U30*%
X51295000Y-169365000D03*
X52565000Y-169365000D03*
X53835000Y-169365000D03*
X55105000Y-169365000D03*
X55105000Y-164435000D03*
X53835000Y-164435000D03*
X52565000Y-164435000D03*
X51295000Y-164435000D03*
%TD*%
D35*
%TO.C,U36*%
X40800000Y-149500000D03*
X40800000Y-150300000D03*
X40800000Y-151100000D03*
X40800000Y-154300000D03*
X40800000Y-155100000D03*
X40800000Y-155900000D03*
X40000000Y-149500000D03*
X40000000Y-150300000D03*
X40000000Y-151100000D03*
X40000000Y-154300000D03*
X40000000Y-155100000D03*
X40000000Y-155900000D03*
X39200000Y-149500000D03*
X39200000Y-150300000D03*
X39200000Y-151100000D03*
X39200000Y-154300000D03*
X39200000Y-155100000D03*
X39200000Y-155900000D03*
X38400000Y-149500000D03*
X38400000Y-150300000D03*
X38400000Y-151100000D03*
X38400000Y-154300000D03*
X38400000Y-155100000D03*
X38400000Y-155900000D03*
X37600000Y-149500000D03*
X37600000Y-150300000D03*
X37600000Y-151100000D03*
X37600000Y-154300000D03*
X37600000Y-155100000D03*
X37600000Y-155900000D03*
X36800000Y-149500000D03*
X36800000Y-150300000D03*
X36800000Y-151100000D03*
X36800000Y-154300000D03*
X36800000Y-155100000D03*
X36800000Y-155900000D03*
X36000000Y-149500000D03*
X36000000Y-150300000D03*
X36000000Y-151100000D03*
X36000000Y-154300000D03*
X36000000Y-155100000D03*
X36000000Y-155900000D03*
X35200000Y-149500000D03*
X35200000Y-150300000D03*
X35200000Y-151100000D03*
X35200000Y-154300000D03*
X35200000Y-155100000D03*
X35200000Y-155900000D03*
X34400000Y-149500000D03*
X34400000Y-150300000D03*
X34400000Y-151100000D03*
X34400000Y-154300000D03*
X34400000Y-155100000D03*
X34400000Y-155900000D03*
X33600000Y-149500000D03*
X33600000Y-150300000D03*
X33600000Y-151100000D03*
X33600000Y-154300000D03*
X33600000Y-155100000D03*
X33600000Y-155900000D03*
X32800000Y-149500000D03*
X32800000Y-150300000D03*
X32800000Y-151100000D03*
X32800000Y-154300000D03*
X32800000Y-155100000D03*
X32800000Y-155900000D03*
X32000000Y-149500000D03*
X32000000Y-150300000D03*
X32000000Y-151100000D03*
X32000000Y-154300000D03*
X32000000Y-155100000D03*
X32000000Y-155900000D03*
X31200000Y-149500000D03*
X31200000Y-150300000D03*
X31200000Y-151100000D03*
X31200000Y-154300000D03*
X31200000Y-155100000D03*
X31200000Y-155900000D03*
X30400000Y-149500000D03*
X30400000Y-150300000D03*
X30400000Y-151100000D03*
X30400000Y-154300000D03*
X30400000Y-155100000D03*
X30400000Y-155900000D03*
X29600000Y-149500000D03*
X29600000Y-150300000D03*
X29600000Y-151100000D03*
X29600000Y-154300000D03*
X29600000Y-155100000D03*
X29600000Y-155900000D03*
X28800000Y-149500000D03*
X28800000Y-150300000D03*
X28800000Y-151100000D03*
X28800000Y-154300000D03*
X28800000Y-155100000D03*
X28800000Y-155900000D03*
%TD*%
D39*
%TO.C,X1*%
X80740000Y-167600000D03*
X82860000Y-167600000D03*
X82860000Y-166000000D03*
X80740000Y-166000000D03*
%TD*%
D40*
%TO.C,R174*%
X48825000Y-143300000D03*
X48825000Y-144100000D03*
X48825000Y-144900000D03*
X48825000Y-145700000D03*
X50775000Y-145700000D03*
X50775000Y-144900000D03*
X50775000Y-144100000D03*
X50775000Y-143300000D03*
%TD*%
%TO.C,R175*%
X48825000Y-146800000D03*
X48825000Y-147600000D03*
X48825000Y-148400000D03*
X48825000Y-149200000D03*
X50775000Y-149200000D03*
X50775000Y-148400000D03*
X50775000Y-147600000D03*
X50775000Y-146800000D03*
%TD*%
%TO.C,R176*%
X48825000Y-150300000D03*
X48825000Y-151100000D03*
X48825000Y-151900000D03*
X48825000Y-152700000D03*
X50775000Y-152700000D03*
X50775000Y-151900000D03*
X50775000Y-151100000D03*
X50775000Y-150300000D03*
%TD*%
%TO.C,R177*%
X48825000Y-153800000D03*
X48825000Y-154600000D03*
X48825000Y-155400000D03*
X48825000Y-156200000D03*
X50775000Y-156200000D03*
X50775000Y-155400000D03*
X50775000Y-154600000D03*
X50775000Y-153800000D03*
%TD*%
%TO.C,R179*%
X57025000Y-157300000D03*
X57025000Y-158100000D03*
X57025000Y-158900000D03*
X57025000Y-159700000D03*
X58975000Y-159700000D03*
X58975000Y-158900000D03*
X58975000Y-158100000D03*
X58975000Y-157300000D03*
%TD*%
%TO.C,R178*%
X48825000Y-157300000D03*
X48825000Y-158100000D03*
X48825000Y-158900000D03*
X48825000Y-159700000D03*
X50775000Y-159700000D03*
X50775000Y-158900000D03*
X50775000Y-158100000D03*
X50775000Y-157300000D03*
%TD*%
D22*
%TO.C,R59*%
X69150000Y-83900000D03*
X69150000Y-85400000D03*
%TD*%
%TO.C,R119*%
X43100000Y-168150000D03*
X43100000Y-166650000D03*
%TD*%
D28*
%TO.C,C122*%
X45400000Y-170600000D03*
X43400000Y-170600000D03*
%TD*%
D22*
%TO.C,C130*%
X41500000Y-166650000D03*
X41500000Y-168150000D03*
%TD*%
D29*
%TO.C,C135*%
X38900000Y-164150000D03*
X38900000Y-167450000D03*
%TD*%
D21*
%TO.C,R121*%
X40300000Y-179000000D03*
X41800000Y-179000000D03*
%TD*%
%TO.C,C133*%
X40300000Y-180600000D03*
X41800000Y-180600000D03*
%TD*%
%TO.C,R122*%
X41800000Y-177400000D03*
X40300000Y-177400000D03*
%TD*%
D22*
%TO.C,C125*%
X44400000Y-175750000D03*
X44400000Y-177250000D03*
%TD*%
%TO.C,C128*%
X38200000Y-175850000D03*
X38200000Y-177350000D03*
%TD*%
D21*
%TO.C,R117*%
X40300000Y-175800000D03*
X41800000Y-175800000D03*
%TD*%
D37*
%TO.C,U25*%
X43900000Y-172700000D03*
X44400000Y-172700000D03*
X44900000Y-172700000D03*
X43900000Y-173200000D03*
X44400000Y-173200000D03*
X44900000Y-173200000D03*
X43900000Y-173700000D03*
X44400000Y-173700000D03*
X44900000Y-173700000D03*
%TD*%
D26*
%TO.C,C102*%
X78340000Y-105800000D03*
X78340000Y-107800000D03*
%TD*%
D37*
%TO.C,U22*%
X80440000Y-107300000D03*
X80440000Y-106800000D03*
X80440000Y-106300000D03*
X80940000Y-107300000D03*
X80940000Y-106800000D03*
X80940000Y-106300000D03*
X81440000Y-107300000D03*
X81440000Y-106800000D03*
X81440000Y-106300000D03*
%TD*%
D27*
%TO.C,C121*%
X71890000Y-112300000D03*
X75190000Y-112300000D03*
%TD*%
D21*
%TO.C,C114*%
X74390000Y-109700000D03*
X75890000Y-109700000D03*
%TD*%
%TO.C,R109*%
X75890000Y-108100000D03*
X74390000Y-108100000D03*
%TD*%
D22*
%TO.C,C118*%
X88340000Y-110250000D03*
X88340000Y-108750000D03*
%TD*%
%TO.C,R106*%
X83540000Y-110250000D03*
X83540000Y-108750000D03*
%TD*%
D21*
%TO.C,C105*%
X83490000Y-106800000D03*
X84990000Y-106800000D03*
%TD*%
D22*
%TO.C,R115*%
X85140000Y-108750000D03*
X85140000Y-110250000D03*
%TD*%
D21*
%TO.C,C111*%
X83590000Y-112100000D03*
X85090000Y-112100000D03*
%TD*%
D22*
%TO.C,R114*%
X86740000Y-110250000D03*
X86740000Y-108750000D03*
%TD*%
D21*
%TO.C,R112*%
X27050000Y-179000000D03*
X28550000Y-179000000D03*
%TD*%
%TO.C,R113*%
X28550000Y-177400000D03*
X27050000Y-177400000D03*
%TD*%
%TO.C,C117*%
X27050000Y-180600000D03*
X28550000Y-180600000D03*
%TD*%
D22*
%TO.C,C110*%
X25200000Y-175850000D03*
X25200000Y-177350000D03*
%TD*%
D21*
%TO.C,R105*%
X27050000Y-175800000D03*
X28550000Y-175800000D03*
%TD*%
D22*
%TO.C,C104*%
X30500000Y-175750000D03*
X30500000Y-177250000D03*
%TD*%
D37*
%TO.C,U21*%
X30000000Y-172700000D03*
X30500000Y-172700000D03*
X31000000Y-172700000D03*
X30000000Y-173200000D03*
X30500000Y-173200000D03*
X31000000Y-173200000D03*
X30000000Y-173700000D03*
X30500000Y-173700000D03*
X31000000Y-173700000D03*
%TD*%
D28*
%TO.C,C101*%
X31500000Y-170600000D03*
X29500000Y-170600000D03*
%TD*%
D22*
%TO.C,C113*%
X27600000Y-166650000D03*
X27600000Y-168150000D03*
%TD*%
%TO.C,R108*%
X29200000Y-168150000D03*
X29200000Y-166650000D03*
%TD*%
D41*
%TO.C,R45*%
X53270000Y-142370000D03*
X53270000Y-141370000D03*
%TD*%
%TO.C,R47*%
X52400000Y-138925000D03*
X52400000Y-139925000D03*
%TD*%
%TO.C,R48*%
X53260000Y-136550000D03*
X53260000Y-137550000D03*
%TD*%
%TO.C,R49*%
X53220000Y-135110000D03*
X53220000Y-134110000D03*
%TD*%
D42*
%TO.C,R50*%
X55460000Y-134250000D03*
X56460000Y-134250000D03*
%TD*%
%TO.C,R53*%
X58880000Y-134250000D03*
X57880000Y-134250000D03*
%TD*%
%TO.C,R54*%
X60750000Y-134200000D03*
X61750000Y-134200000D03*
%TD*%
%TO.C,R56*%
X65310000Y-132990000D03*
X66310000Y-132990000D03*
%TD*%
D26*
%TO.C,L1*%
X67210000Y-124680000D03*
X67210000Y-122680000D03*
%TD*%
D22*
%TO.C,R173*%
X42700000Y-110950000D03*
X42700000Y-112450000D03*
%TD*%
D31*
%TO.C,D57*%
X40450000Y-110900000D03*
X38550000Y-110900000D03*
X39500000Y-112900000D03*
%TD*%
D21*
%TO.C,R172*%
X38750000Y-108900000D03*
X40250000Y-108900000D03*
%TD*%
%TO.C,R171*%
X40250000Y-107300000D03*
X38750000Y-107300000D03*
%TD*%
D22*
%TO.C,C243*%
X36300000Y-110950000D03*
X36300000Y-112450000D03*
%TD*%
D42*
%TO.C,R43*%
X32300000Y-127100000D03*
X31300000Y-127100000D03*
%TD*%
D43*
%TO.C,C67*%
X32500000Y-125400000D03*
X32500000Y-124500000D03*
%TD*%
%TO.C,C68*%
X31000000Y-125400000D03*
X31000000Y-124500000D03*
%TD*%
%TO.C,C169*%
X72900000Y-175750000D03*
X72900000Y-174850000D03*
%TD*%
%TO.C,C171*%
X71700000Y-175750000D03*
X71700000Y-174850000D03*
%TD*%
D29*
%TO.C,C179*%
X75475000Y-129125000D03*
X75475000Y-132425000D03*
%TD*%
D26*
%TO.C,C185*%
X78125000Y-129775000D03*
X78125000Y-131775000D03*
%TD*%
D41*
%TO.C,R181*%
X45400000Y-153500000D03*
X45400000Y-152500000D03*
%TD*%
%TO.C,R183*%
X43300000Y-150100000D03*
X43300000Y-151100000D03*
%TD*%
%TO.C,R184*%
X43300000Y-154900000D03*
X43300000Y-155900000D03*
%TD*%
D44*
%TO.C,CV1*%
X71900000Y-57537500D03*
X71900000Y-53862500D03*
%TD*%
%TO.C,CV2*%
X46000000Y-57537500D03*
X46000000Y-53862500D03*
%TD*%
D45*
%TO.C,CV3*%
X68062500Y-45500000D03*
X71737500Y-45500000D03*
%TD*%
%TO.C,CV4*%
X44162500Y-45500000D03*
X47837500Y-45500000D03*
%TD*%
D43*
%TO.C,C29*%
X44700000Y-103800000D03*
X44700000Y-104700000D03*
%TD*%
%TO.C,C30*%
X51600000Y-103800000D03*
X51600000Y-104700000D03*
%TD*%
D46*
%TO.C,C60*%
X25575000Y-135000000D03*
X24675000Y-135000000D03*
%TD*%
D43*
%TO.C,C31*%
X28400000Y-103800000D03*
X28400000Y-104700000D03*
%TD*%
%TO.C,C32*%
X35750000Y-103800000D03*
X35750000Y-104700000D03*
%TD*%
D47*
%TO.C,U24*%
X85010000Y-83180000D03*
X85010000Y-84130000D03*
X85010000Y-85080000D03*
X87710000Y-85080000D03*
X87710000Y-84130000D03*
X87710000Y-83180000D03*
%TD*%
D48*
%TO.C,U9*%
X24150000Y-136710000D03*
D49*
X24150000Y-138000000D03*
D48*
X24150000Y-139290000D03*
X26000000Y-139290000D03*
D49*
X26000000Y-138000000D03*
D48*
X26000000Y-136710000D03*
%TD*%
D50*
%TO.C,L3*%
X33000000Y-167300000D03*
X33000000Y-163700000D03*
%TD*%
D51*
%TO.C,L4*%
X74540000Y-104300000D03*
X70940000Y-104300000D03*
%TD*%
D50*
%TO.C,L5*%
X46900000Y-167300000D03*
X46900000Y-163700000D03*
%TD*%
D51*
%TO.C,L6*%
X75640000Y-117400000D03*
X72040000Y-117400000D03*
%TD*%
D22*
%TO.C,C70*%
X42200000Y-186450000D03*
X42200000Y-187950000D03*
%TD*%
D21*
%TO.C,R116*%
X30420000Y-179420000D03*
X31920000Y-179420000D03*
%TD*%
D25*
%TO.C,R63*%
X48200000Y-186000000D03*
X48200000Y-188200000D03*
%TD*%
%TO.C,R62*%
X65600000Y-185900000D03*
X65600000Y-188100000D03*
%TD*%
%TO.C,R61*%
X48900000Y-171450000D03*
X48900000Y-173650000D03*
%TD*%
D34*
%TO.C,U14*%
X79100000Y-179700000D03*
X78450000Y-179700000D03*
X77800000Y-179700000D03*
X77800000Y-181500000D03*
X79100000Y-181500000D03*
%TD*%
D22*
%TO.C,C43*%
X43575000Y-131375000D03*
X43575000Y-132875000D03*
%TD*%
D21*
%TO.C,C34*%
X34250000Y-117100000D03*
X32750000Y-117100000D03*
%TD*%
D22*
%TO.C,C47*%
X81250000Y-181500000D03*
X81250000Y-180000000D03*
%TD*%
%TO.C,C48*%
X80580000Y-67790000D03*
X80580000Y-69290000D03*
%TD*%
%TO.C,C52*%
X72990000Y-87440000D03*
X72990000Y-88940000D03*
%TD*%
%TO.C,C138*%
X82730000Y-67790000D03*
X82730000Y-69290000D03*
%TD*%
%TO.C,C139*%
X74950000Y-87400000D03*
X74950000Y-88900000D03*
%TD*%
D21*
%TO.C,C38*%
X35020000Y-121110000D03*
X33520000Y-121110000D03*
%TD*%
D22*
%TO.C,C51*%
X42580000Y-118870000D03*
X42580000Y-117370000D03*
%TD*%
D21*
%TO.C,C44*%
X35020000Y-119610000D03*
X33520000Y-119610000D03*
%TD*%
D22*
%TO.C,C45*%
X44140000Y-118870000D03*
X44140000Y-117370000D03*
%TD*%
%TO.C,C41*%
X49400000Y-119825000D03*
X49400000Y-121325000D03*
%TD*%
D30*
%TO.C,D2*%
X31770000Y-111720000D03*
X32870000Y-111720000D03*
X32870000Y-110170000D03*
X31770000Y-110170000D03*
%TD*%
D22*
%TO.C,C39*%
X34840000Y-125560000D03*
X34840000Y-127060000D03*
%TD*%
D30*
%TO.C,D1*%
X31780000Y-114740000D03*
X32880000Y-114740000D03*
X32880000Y-113190000D03*
X31780000Y-113190000D03*
%TD*%
D52*
%TO.C,IC1*%
X37560000Y-121260000D03*
X37560000Y-121760000D03*
X37560000Y-122260000D03*
X37560000Y-122760000D03*
X37560000Y-123260000D03*
X37560000Y-123760000D03*
X37560000Y-124260000D03*
X37560000Y-124760000D03*
X37560000Y-125260000D03*
X37560000Y-125760000D03*
X37560000Y-126260000D03*
X37560000Y-126760000D03*
X37560000Y-127260000D03*
X37560000Y-127760000D03*
X37560000Y-128260000D03*
X37560000Y-128760000D03*
D53*
X38260000Y-129460000D03*
X38760000Y-129460000D03*
X39260000Y-129460000D03*
X39760000Y-129460000D03*
X40260000Y-129460000D03*
X40760000Y-129460000D03*
X41260000Y-129460000D03*
X41760000Y-129460000D03*
X42260000Y-129460000D03*
X42760000Y-129460000D03*
X43260000Y-129460000D03*
X43760000Y-129460000D03*
X44260000Y-129460000D03*
X44760000Y-129460000D03*
X45260000Y-129460000D03*
X45760000Y-129460000D03*
D52*
X46460000Y-128760000D03*
X46460000Y-128260000D03*
X46460000Y-127760000D03*
X46460000Y-127260000D03*
X46460000Y-126760000D03*
X46460000Y-126260000D03*
X46460000Y-125760000D03*
X46460000Y-125260000D03*
X46460000Y-124760000D03*
X46460000Y-124260000D03*
X46460000Y-123760000D03*
X46460000Y-123260000D03*
X46460000Y-122760000D03*
X46460000Y-122260000D03*
X46460000Y-121760000D03*
X46460000Y-121260000D03*
D53*
X45760000Y-120560000D03*
X45260000Y-120560000D03*
X44760000Y-120560000D03*
X44260000Y-120560000D03*
X43760000Y-120560000D03*
X43260000Y-120560000D03*
X42760000Y-120560000D03*
X42260000Y-120560000D03*
X41760000Y-120560000D03*
X41260000Y-120560000D03*
X40760000Y-120560000D03*
X40260000Y-120560000D03*
X39760000Y-120560000D03*
X39260000Y-120560000D03*
X38760000Y-120560000D03*
X38260000Y-120560000D03*
D54*
X42010000Y-125010000D03*
%TD*%
M02*
